<svg width="48" height="48" viewBox="0 0 48 48" fill="none" xmlns="http://www.w3.org/2000/svg">
<g clip-path="url(#clip0_605_7700)">
<path d="M19.42 11.4209C20.2 12.2009 20.2 13.4609 19.42 14.2409L11.66 22.0009H42C43.1 22.0009 44 22.9009 44 24.0009C44 25.1009 43.1 26.0009 42 26.0009H11.64L19.4 33.7609C20.18 34.5409 20.18 35.8009 19.4 36.5809C18.62 37.3609 17.36 37.3609 16.58 36.5809L5.40001 25.4009C4.62001 24.6209 4.62001 23.3609 5.40001 22.5809L16.6 11.4209C17.36 10.6409 18.64 10.6409 19.42 11.4209Z" fill="#0076A9"/>
</g>
<defs>
<clipPath id="clip0_605_7700">
<rect width="48" height="48" fill="white" transform="matrix(-1 0 0 1 48 0)"/>
</clipPath>
</defs>
</svg>
