<svg width="42" height="37" viewBox="0 0 42 37" fill="none" xmlns="http://www.w3.org/2000/svg">
<path d="M4.66667 14.6667L8.16667 4.16675H33.8333L37.3333 14.6667M33.8333 26.3334C32.9051 26.3334 32.0148 25.9647 31.3585 25.3083C30.7021 24.6519 30.3333 23.7617 30.3333 22.8334C30.3333 21.9052 30.7021 21.0149 31.3585 20.3585C32.0148 19.7022 32.9051 19.3334 33.8333 19.3334C34.7616 19.3334 35.6518 19.7022 36.3082 20.3585C36.9646 21.0149 37.3333 21.9052 37.3333 22.8334C37.3333 23.7617 36.9646 24.6519 36.3082 25.3083C35.6518 25.9647 34.7616 26.3334 33.8333 26.3334ZM8.16667 26.3334C7.23841 26.3334 6.34817 25.9647 5.69179 25.3083C5.03542 24.6519 4.66667 23.7617 4.66667 22.8334C4.66667 21.9052 5.03542 21.0149 5.69179 20.3585C6.34817 19.7022 7.23841 19.3334 8.16667 19.3334C9.09492 19.3334 9.98516 19.7022 10.6415 20.3585C11.2979 21.0149 11.6667 21.9052 11.6667 22.8334C11.6667 23.7617 11.2979 24.6519 10.6415 25.3083C9.98516 25.9647 9.09492 26.3334 8.16667 26.3334ZM37.1467 3.00008C36.68 1.64675 35.3733 0.666748 33.8333 0.666748H8.16667C6.62667 0.666748 5.32 1.64675 4.85333 3.00008L0 17.0001V35.6667C0 36.2856 0.245833 36.8791 0.683417 37.3167C1.121 37.7542 1.71449 38.0001 2.33333 38.0001H4.66667C5.2855 38.0001 5.879 37.7542 6.31658 37.3167C6.75417 36.8791 7 36.2856 7 35.6667V33.3334H35V35.6667C35 36.2856 35.2458 36.8791 35.6834 37.3167C36.121 37.7542 36.7145 38.0001 37.3333 38.0001H39.6667C40.2855 38.0001 40.879 37.7542 41.3166 37.3167C41.7542 36.8791 42 36.2856 42 35.6667V17.0001L37.1467 3.00008Z" fill="black"/>
</svg>
