<svg width="42" height="37" viewBox="0 0 42 37" fill="none" xmlns="http://www.w3.org/2000/svg">
<path d="M4.66667 14.6665L8.16667 4.1665H33.8333L37.3333 14.6665M33.8333 26.3332C32.9051 26.3332 32.0148 25.9644 31.3585 25.308C30.7021 24.6517 30.3333 23.7614 30.3333 22.8332C30.3333 21.9049 30.7021 21.0147 31.3585 20.3583C32.0148 19.7019 32.9051 19.3332 33.8333 19.3332C34.7616 19.3332 35.6518 19.7019 36.3082 20.3583C36.9646 21.0147 37.3333 21.9049 37.3333 22.8332C37.3333 23.7614 36.9646 24.6517 36.3082 25.308C35.6518 25.9644 34.7616 26.3332 33.8333 26.3332ZM8.16667 26.3332C7.23841 26.3332 6.34817 25.9644 5.69179 25.308C5.03542 24.6517 4.66667 23.7614 4.66667 22.8332C4.66667 21.9049 5.03542 21.0147 5.69179 20.3583C6.34817 19.7019 7.23841 19.3332 8.16667 19.3332C9.09492 19.3332 9.98516 19.7019 10.6415 20.3583C11.2979 21.0147 11.6667 21.9049 11.6667 22.8332C11.6667 23.7614 11.2979 24.6517 10.6415 25.308C9.98516 25.9644 9.09492 26.3332 8.16667 26.3332ZM37.1467 2.99984C36.68 1.6465 35.3733 0.666504 33.8333 0.666504H8.16667C6.62667 0.666504 5.32 1.6465 4.85333 2.99984L0 16.9998V35.6665C0 36.2853 0.245833 36.8788 0.683417 37.3164C1.121 37.754 1.71449 37.9998 2.33333 37.9998H4.66667C5.2855 37.9998 5.879 37.754 6.31658 37.3164C6.75417 36.8788 7 36.2853 7 35.6665V33.3332H35V35.6665C35 36.2853 35.2458 36.8788 35.6834 37.3164C36.121 37.754 36.7145 37.9998 37.3333 37.9998H39.6667C40.2855 37.9998 40.879 37.754 41.3166 37.3164C41.7542 36.8788 42 36.2853 42 35.6665V16.9998L37.1467 2.99984Z" fill="white"/>
</svg>
