<svg width="201" height="56" viewBox="0 0 201 56" fill="none"
    xmlns="http://www.w3.org/2000/svg">
    <g clip-path="url(#clip0_46_9125)">
        <mask id="mask0_46_9125" style="mask-type:luminance" maskUnits="userSpaceOnUse" x="0" y="0" width="36" height="36">
            <path d="M0.697266 0H35.7655V35.0683H0.697266V0Z" fill="white"/>
        </mask>
        <g mask="url(#mask0_46_9125)">
            <path d="M0.697266 0H35.7655V35.0683H0.697266V0Z" fill="url(#paint0_linear_46_9125)"/>
        </g>
        <mask id="mask1_46_9125" style="mask-type:luminance" maskUnits="userSpaceOnUse" x="1" y="0" width="35" height="34">
            <path d="M3.43385 0.618164C2.77603 0.618164 2.30898 1.19047 2.20373 1.993C2.20373 1.993 1.32883 6.59772 1.32883 16.3729C1.28869 21.7776 1.58087 27.1797 2.20373 32.5486C2.28925 33.3248 2.7563 33.93 3.43385 33.93H33.7921C33.965 33.9244 34.135 33.8836 34.2917 33.8103C34.4484 33.7369 34.5885 33.6324 34.7035 33.5032C34.8186 33.374 34.9062 33.2228 34.961 33.0587C35.0158 32.8946 35.0366 32.721 35.0222 32.5486C35.0222 32.5486 34.6802 25.0561 34.6802 17.7609C34.6802 10.4657 35.0222 1.97327 35.0222 1.97327C35.0332 1.63191 34.911 1.29966 34.6814 1.04678C34.4519 0.793891 34.1329 0.640188 33.7921 0.618164H3.43385Z" fill="white"/>
        </mask>
        <g mask="url(#mask1_46_9125)">
            <path d="M1.3291 0.618164H35.0357V33.93H1.3291V0.618164Z" fill="url(#paint1_linear_46_9125)"/>
        </g>
        <mask id="mask2_46_9125" style="mask-type:luminance" maskUnits="userSpaceOnUse" x="17" y="3" width="15" height="13">
            <path d="M20.4845 4.13744C21.4384 4.5387 25.2866 6.61741 25.7471 7.2818C23.0697 7.69869 20.4553 8.4501 17.9651 9.51838L17.8467 9.76178C20.353 9.28966 22.8899 8.99729 25.4379 8.88688C24.6656 9.99317 23.8008 11.0319 22.8527 11.9918L22.7408 12.2549C25.0893 10.8406 25.7536 10.7419 27.9244 9.47233C28.7401 10.6827 28.9375 13.4719 28.9704 15.6887C29.6742 14.281 30.5294 8.99213 30.1742 8.03829C31.6148 7.05157 31.8121 6.25561 31.8121 6.25561C30.8811 6.27958 29.9551 6.40084 29.0493 6.61741C26.4153 5.21601 23.5531 4.29388 20.5964 3.89404L20.4845 4.13744Z" fill="white"/>
        </mask>
        <g mask="url(#mask2_46_9125)">
            <path d="M17.8594 3.89404H31.8117V15.6887H17.8594V3.89404Z" fill="url(#paint2_linear_46_9125)"/>
        </g>
        <mask id="mask3_46_9125" style="mask-type:luminance" maskUnits="userSpaceOnUse" x="4" y="20" width="9" height="11">
            <path d="M6.11787 20.57C5.89391 22.0372 5.89391 23.5299 6.11787 24.9971C5.47014 25.113 4.83069 25.2713 4.20363 25.4707L4.0918 25.7076C4.95814 26.2583 5.85902 26.7526 6.78885 27.1876C7.27624 28.2817 7.97354 29.2696 8.84124 30.0952L8.95307 29.8518C8.7272 29.2193 8.62449 28.5495 8.65047 27.8784C9.76898 28.2184 10.9287 28.4043 12.0974 28.4309L12.2093 28.1809C11.0364 27.8406 9.94295 27.2704 8.99254 26.5035C9.27816 25.6982 9.67446 24.9366 10.17 24.2406L10.2819 23.9972C9.29513 24.1419 8.39392 24.5103 7.53876 24.655C6.88094 23.471 6.60466 21.8462 6.26259 20.3003L6.11787 20.57Z" fill="white"/>
        </mask>
        <g mask="url(#mask3_46_9125)">
            <path d="M4.0791 20.3198H12.19V30.095H4.0791V20.3198Z" fill="url(#paint3_linear_46_9125)"/>
        </g>
        <mask id="mask4_46_9125" style="mask-type:luminance" maskUnits="userSpaceOnUse" x="6" y="10" width="15" height="10">
            <path d="M11.9919 12.4985C11.3351 12.4532 10.6764 12.4423 10.0184 12.4656C8.89831 12.4888 7.78236 12.6099 6.68331 12.8274L6.57806 13.0708C7.76871 13.1234 9.40667 13.4392 10.0316 14.0707C8.53955 15.5997 7.32032 17.3729 6.42676 19.3135C6.42676 19.3135 9.71585 16.2546 11.0973 15.4981C11.0973 15.4981 11.834 17.9584 12.3471 19.1885L12.4589 18.9451C12.6725 17.4913 13.0408 16.0645 13.5575 14.689C13.9624 14.5516 14.3864 14.4783 14.8139 14.4719C16.5951 14.3377 18.3863 14.4528 20.1357 14.814L20.2475 14.5772C18.3975 13.6502 16.4091 13.0303 14.36 12.7419H14.4456C14.6721 12.0824 14.9515 11.4422 15.281 10.8276C14.0849 11.1811 12.9681 11.7618 11.9919 12.538" fill="white"/>
        </mask>
        <g mask="url(#mask4_46_9125)">
            <path d="M6.42676 10.8145H20.2475V19.3069H6.42676V10.8145Z" fill="url(#paint4_linear_46_9125)"/>
        </g>
        <mask id="mask5_46_9125" style="mask-type:luminance" maskUnits="userSpaceOnUse" x="14" y="25" width="8" height="6">
            <path d="M18.8134 27.6285C18.7739 27.1483 18.741 26.7405 18.7147 26.2077C18.1889 26.925 17.6314 27.6186 17.0438 28.2864C16.3532 28.4387 15.645 28.4962 14.9388 28.4574H14.1626L14.0508 28.7008C14.664 29.0091 15.3171 29.2305 15.9913 29.3586C15.4268 29.8062 14.8311 30.2129 14.2087 30.5756L14.0968 30.8189C15.3576 30.5337 16.5729 30.0754 17.7082 29.4573C18.1967 29.4836 18.6866 29.455 19.1686 29.3718L19.287 29.1284C19.2146 28.8784 18.9976 28.7271 18.9318 28.385C19.8369 27.6657 20.6918 26.8855 21.4907 26.0498L21.6091 25.7998C20.7259 26.4808 19.7912 27.0922 18.8134 27.6285Z" fill="white"/>
        </mask>
        <g mask="url(#mask5_46_9125)">
            <path d="M14.0508 25.7998H21.6288V30.8255H14.0508V25.7998Z" fill="url(#paint5_linear_46_9125)"/>
        </g>
        <path d="M28.0692 9.20967C25.905 10.4793 25.2406 10.5911 22.8856 11.9988C23.8841 10.9596 24.7868 9.83232 25.5827 8.63079C23.039 8.74189 20.5066 9.03426 18.0046 9.50569C20.5091 8.31797 23.1654 7.48124 25.8984 7.01914C25.4182 6.36132 21.57 4.28262 20.6359 3.88135C23.6816 4.11816 27.4048 5.25619 29.1875 6.35474C30.0973 6.15005 31.0247 6.0333 31.9569 6.0061C31.6232 6.7678 31.0412 7.3939 30.3058 7.78221C30.6676 8.74262 29.8058 14.0249 29.102 15.426C29.102 13.2158 28.8783 10.4266 28.056 9.20967M12.1961 28.1811C11.0268 27.7767 9.96024 27.121 9.07143 26.2603C9.36249 25.4574 9.75842 24.6965 10.2489 23.9974C9.23589 24.1487 8.49256 24.2605 7.61766 24.425C6.93718 23.1403 6.46849 21.7542 6.22966 20.3202C6.00904 21.7899 6.00904 23.2842 6.22966 24.7539C5.53169 24.9347 4.84968 25.1723 4.19043 25.4643C5.05689 26.0227 5.95769 26.5258 6.88748 26.9707C7.37487 28.0629 8.07222 29.0486 8.93987 29.8717C8.71925 29.1457 8.65645 28.3809 8.75568 27.6286C9.87215 27.9669 11.0297 28.1506 12.1961 28.1745M15.4325 10.6042C15.0215 11.1854 14.6979 11.8237 14.4721 12.4988C16.5136 12.8117 18.475 13.5176 20.2478 14.5775C18.4957 14.2037 16.699 14.0841 14.9129 14.2222C14.4856 14.2315 14.0621 14.3047 13.6564 14.4393C13.0999 15.8955 12.6965 17.4057 12.4526 18.9454C11.9395 17.7152 11.2028 15.2484 11.2028 15.2484C9.80161 16.0049 6.55199 19.0769 6.55199 19.0769C7.44421 17.147 8.66133 15.3848 10.1503 13.867C9.52533 13.2092 7.88736 12.9198 6.69014 12.8671C7.80725 12.5136 8.96638 12.3101 10.1371 12.2619C10.795 12.2344 11.4539 12.2454 12.1106 12.2948C13.1039 11.53 14.2334 10.9608 15.4391 10.6174M18.8598 25.9643C18.3347 26.6837 17.7726 27.3753 17.1757 28.0364C16.206 28.3205 15.1997 28.4601 14.1893 28.4508C14.8016 28.761 15.455 28.9825 16.1298 29.1086C15.5437 29.6517 14.9096 30.1405 14.2353 30.569C15.4966 30.2884 16.7122 29.8323 17.8467 29.2139C18.3376 29.2351 18.8293 29.2042 19.3137 29.1218C19.2118 28.7961 19.1305 28.4644 19.0703 28.1285C19.9874 27.4114 20.8514 26.6287 21.6555 25.7867C20.8038 26.3934 19.8989 26.9218 18.9519 27.3654C18.8598 26.905 18.8598 26.4971 18.8598 25.9643Z" fill="white"/>
        <path d="M4.62415 46.7052C4.53863 45.9553 4.34787 45.2185 3.26247 45.2185C2.60465 45.2185 2.01261 45.5474 2.01261 46.2973C2.01261 48.0734 6.0253 48.0603 6.0253 50.606C6.0253 52.2309 4.90043 53.0466 3.26247 53.0466C2.73076 53.0517 2.20406 52.9434 1.71746 52.729C1.23086 52.5147 0.795517 52.1991 0.44043 51.8033L1.09825 50.7771C1.37536 51.0938 1.71586 51.3487 2.09774 51.5255C2.47961 51.7023 2.89434 51.7969 3.31509 51.8033C4.08474 51.8033 4.63073 51.5007 4.63073 50.7639C4.63731 49.1786 0.637775 49.0996 0.637775 46.4026C0.637775 44.7515 1.87447 43.9752 3.26904 43.9752C3.61207 43.9502 3.95653 43.9975 4.28008 44.1141C4.60363 44.2308 4.89905 44.4142 5.14716 44.6523C5.39527 44.8905 5.59054 45.1782 5.72029 45.4967C5.85004 45.8153 5.91137 46.1575 5.90031 46.5013L4.62415 46.7052ZM8.62368 49.9417C8.68288 51.4744 9.2815 51.9151 10.2485 51.9151C10.8828 51.8873 11.4916 51.6568 11.9851 51.2573L12.1956 52.323C11.5459 52.7858 10.7699 53.0384 9.97221 53.0466C8.32108 53.0466 7.19622 52.0598 7.19622 49.5667C7.19622 47.0736 8.18294 46.0803 9.88669 46.0803C11.5904 46.0803 12.2811 47.2117 12.2811 48.876V49.9417H8.62368ZM10.9655 48.876C10.9655 47.7511 10.6366 47.2249 9.8538 47.2249C9.071 47.2249 8.68946 47.7117 8.63026 48.876H10.9655ZM18.9514 47.4748L18.037 47.4288C18.2849 47.7813 18.4013 48.2097 18.366 48.6392C18.3912 48.9689 18.3465 49.3003 18.2348 49.6116C18.1231 49.9229 17.9469 50.2071 17.7177 50.4455C17.4886 50.684 17.2116 50.8714 16.905 50.9954C16.5984 51.1194 16.2691 51.1773 15.9386 51.1652C15.7165 51.1761 15.494 51.1495 15.2808 51.0863C15.0308 51.2639 14.8664 51.3757 14.8664 51.5994C14.8664 52.3032 18.8922 51.4744 18.8922 53.8622C18.8922 55.3029 17.3792 56.0001 15.7413 56.0001C14.1033 56.0001 13.0047 55.4015 13.0047 54.3359C13.0263 53.993 13.1446 53.6632 13.346 53.385C13.5475 53.1067 13.8238 52.8912 14.1428 52.7637C13.9696 52.6795 13.8253 52.5457 13.7281 52.3795C13.6309 52.2132 13.5852 52.0218 13.5968 51.8296C13.6217 51.5828 13.7075 51.3461 13.8464 51.1406C13.9853 50.9351 14.173 50.7672 14.3927 50.6521C14.0913 50.4082 13.8524 50.096 13.6957 49.7414C13.5389 49.3868 13.469 48.9999 13.4915 48.6129C13.4648 48.28 13.5095 47.9452 13.6228 47.6311C13.7361 47.3169 13.9152 47.0306 14.1482 46.7913C14.3812 46.5521 14.6627 46.3655 14.9738 46.244C15.2848 46.1225 15.6183 46.0689 15.9518 46.0868C16.2768 46.0866 16.5994 46.1422 16.9056 46.2513H18.9514V47.4748ZM14.3072 54.1912C14.3072 54.7898 15.0177 54.9411 15.7939 54.9411C16.5701 54.9411 17.5437 54.599 17.5437 54.0267C17.5437 53.211 16.4254 53.2242 15.3992 53.086C14.8598 53.336 14.3006 53.7438 14.3006 54.1912M15.932 47.192C15.2084 47.192 14.7611 47.5998 14.7611 48.626C14.7611 49.6522 15.2084 50.0666 15.932 50.0666C16.6556 50.0666 17.1095 49.6522 17.1095 48.626C17.1095 47.5998 16.6622 47.192 15.932 47.192ZM21.2143 46.2513V50.8034C21.1959 50.955 21.2124 51.1087 21.2626 51.2529C21.3129 51.3971 21.3954 51.5279 21.504 51.6352C21.6126 51.7425 21.7444 51.8235 21.8891 51.8721C22.0339 51.9206 22.1878 51.9353 22.3392 51.9151C22.4905 51.9353 22.6445 51.9206 22.7892 51.8721C22.934 51.8235 23.0657 51.7425 23.1743 51.6352C23.2829 51.5279 23.3655 51.3971 23.4157 51.2529C23.4659 51.1087 23.4825 50.955 23.464 50.8034V46.2513H24.8257V50.7639C24.8257 52.3164 23.7732 53.0531 22.3392 53.0531C20.9051 53.0531 19.8526 52.3164 19.8526 50.7639V46.2513H21.2143ZM27.8451 46.2513V46.9091C28.0505 46.6599 28.3074 46.4581 28.598 46.3173C28.8886 46.1765 29.2062 46.1001 29.5291 46.0934C30.5158 46.0934 30.7066 46.9946 30.7066 47.9682L29.5423 48.1063C29.5423 47.7051 29.4962 47.4485 29.1213 47.4485C28.6681 47.5305 28.2621 47.7793 27.9832 48.1458V52.8887H26.6216V46.2513H27.8451ZM36.6796 49.5996C36.6796 51.902 35.7258 53.0531 33.9431 53.0531C32.1604 53.0531 31.1934 52.0532 31.1934 49.5799C31.1934 47.1065 32.1538 46.0868 33.9431 46.0868C35.7323 46.0868 36.6796 47.0933 36.6796 49.5996ZM32.5945 49.5996C32.5945 51.3954 33.0419 51.9348 33.9102 51.9348C34.7785 51.9348 35.2258 51.3954 35.2258 49.6193C35.2258 47.8432 34.7917 47.2446 33.9102 47.2446C33.0287 47.2446 32.5945 47.7709 32.5945 49.5996ZM41.0607 48.2511C41.0146 47.6656 40.7515 47.2249 40.0345 47.2249C39.5148 47.2249 39.1135 47.4551 39.1135 47.955C39.1135 49.2115 42.2118 49.0996 42.2118 51.1126C42.2118 52.3164 41.3633 53.086 39.9358 53.086C39.0738 53.106 38.2373 52.7926 37.6005 52.2111L38.0479 51.2112C38.5577 51.6718 39.2225 51.9231 39.9095 51.9151C40.4292 51.9151 40.8699 51.7178 40.8699 51.1915C40.8699 50.139 37.8045 50.1522 37.8045 48.0406C37.8045 46.8631 38.6465 46.0671 40.0345 46.0671C41.5672 46.0671 42.2053 46.9552 42.2053 48.0406L41.0607 48.2511ZM48.4611 52.7374V55.4607L47.1455 55.7633V46.2513H48.369V46.8499C48.9133 46.3659 49.6141 46.0948 50.3425 46.0868C51.4673 46.0868 52.5593 46.7447 52.5593 49.5009C52.5593 52.0796 51.3818 53.0531 49.8425 53.0531C49.3868 53.0402 48.9388 52.9327 48.5269 52.7374M48.5269 51.5401C48.8749 51.7762 49.2839 51.9065 49.7044 51.9151C50.4346 51.9151 51.0924 51.3099 51.0924 49.5009C51.0924 47.6919 50.4806 47.317 49.8425 47.317C49.3673 47.3329 48.9083 47.4936 48.5269 47.7774V51.5401ZM57.0522 48.0998C57.0522 47.4419 56.6378 47.2249 56.0786 47.2249C55.9381 47.2116 55.7964 47.2285 55.6631 47.2747C55.5297 47.3208 55.4077 47.395 55.3055 47.4922C55.2032 47.5895 55.123 47.7076 55.0703 47.8385C55.0176 47.9694 54.9935 48.1101 54.9998 48.2511L53.8026 48.1261C53.8421 46.8104 54.9143 46.0868 56.1641 46.0868C57.539 46.0868 58.4139 46.7907 58.4139 47.9748V51.4415C58.4139 51.7506 58.5586 51.8888 58.7757 51.8888C59.0177 51.8747 59.2485 51.7824 59.4335 51.6257L59.5124 52.6255C59.2004 52.9162 58.7876 53.0742 58.3613 53.0663C58.2269 53.0808 58.0911 53.0681 57.9617 53.0289C57.8324 52.9898 57.7123 52.925 57.6086 52.8384C57.5048 52.7519 57.4196 52.6453 57.3579 52.5251C57.2962 52.4049 57.2594 52.2735 57.2495 52.1388C57.0222 52.4273 56.7325 52.6606 56.4021 52.8213C56.0717 52.9819 55.7092 53.0657 55.3419 53.0663C55.1012 53.0868 54.8589 53.0541 54.6323 52.9704C54.4057 52.8867 54.2003 52.754 54.0307 52.582C53.8612 52.4099 53.7316 52.2026 53.6513 51.9748C53.5709 51.747 53.5417 51.5042 53.5658 51.2639C53.5658 49.5667 55.1906 48.8628 57.0522 48.876V48.0998ZM57.0522 49.889C55.8879 49.8496 54.9143 50.2771 54.9143 51.1257C54.9143 51.6388 55.138 51.9151 55.6642 51.9151C55.9331 51.8916 56.1946 51.8143 56.4331 51.6878C56.6715 51.5612 56.8821 51.388 57.0522 51.1784V49.889ZM61.6175 46.2513V46.9091C61.8242 46.6598 62.0822 46.4579 62.3739 46.3171C62.6656 46.1764 62.9842 46.1001 63.308 46.0934C64.2948 46.0934 64.479 46.9946 64.479 47.9682L63.3212 48.1063C63.3212 47.7051 63.2686 47.4485 62.8936 47.4485C62.4404 47.5305 62.0344 47.7793 61.7556 48.1458V52.8887H60.4202V46.2513H61.6175ZM68.6035 48.0998C68.6035 47.4419 68.1956 47.2249 67.6299 47.2249C67.4899 47.2126 67.3489 47.2303 67.2164 47.2769C67.0838 47.3234 66.9627 47.3978 66.8612 47.4949C66.7597 47.5921 66.6801 47.7098 66.6277 47.8402C66.5754 47.9706 66.5515 48.1107 66.5577 48.2511L65.3539 48.1261C65.3933 46.8104 66.4656 46.0868 67.7154 46.0868C69.0903 46.0868 69.9652 46.7907 69.9652 47.9748V51.4415C69.9652 51.7506 70.1165 51.8888 70.327 51.8888C70.5692 51.8756 70.8003 51.7832 70.9848 51.6257L71.0703 52.6124C70.7602 52.902 70.3499 53.06 69.9257 53.0531C69.7912 53.0686 69.655 53.0565 69.5253 53.0177C69.3956 52.979 69.2751 52.9143 69.1711 52.8275C69.0672 52.7408 68.9819 52.6339 68.9205 52.5132C68.8591 52.3926 68.8229 52.2607 68.814 52.1256C68.5832 52.4169 68.2891 52.6518 67.954 52.8125C67.6189 52.9733 67.2516 53.0555 66.88 53.0531C66.6393 53.0737 66.397 53.0409 66.1704 52.9572C65.9438 52.8735 65.7384 52.7409 65.5689 52.5688C65.3993 52.3968 65.2697 52.1894 65.1894 51.9616C65.109 51.7338 65.0798 51.4911 65.1039 51.2507C65.1039 49.5535 66.7287 48.8497 68.5903 48.8628L68.6035 48.0998ZM68.6035 49.889C67.4457 49.8496 66.4656 50.2771 66.4656 51.1257C66.4656 51.6388 66.6958 51.9151 67.2155 51.9151C67.4844 51.8916 67.7459 51.8143 67.9843 51.6878C68.2228 51.5612 68.4333 51.388 68.6035 51.1784V49.889ZM76.5236 46.2513V50.8034C76.5236 51.1017 76.6421 51.3878 76.8531 51.5988C77.064 51.8097 77.3501 51.9283 77.6485 51.9283C77.9468 51.9283 78.2329 51.8097 78.4439 51.5988C78.6548 51.3878 78.7733 51.1017 78.7733 50.8034V46.2513H80.135V50.7639C80.135 52.3164 79.0825 53.0531 77.6485 53.0531C76.2144 53.0531 75.1619 52.3164 75.1619 50.7639V46.2513H76.5236ZM83.1544 46.8499C83.7385 46.3722 84.4656 46.1036 85.2199 46.0868C86.4172 46.0868 87.1934 46.7447 87.1934 48.205V52.8887H85.8317V48.4747C85.8317 47.6656 85.5554 47.3762 84.7924 47.3762C84.2658 47.3999 83.756 47.5684 83.3189 47.8629V52.8887H81.9572V46.2513H83.1807L83.1544 46.8499ZM93.5479 46.8499C94.1037 46.3851 94.7975 46.1169 95.5214 46.0868C95.8268 46.0586 96.134 46.1163 96.4083 46.2535C96.6827 46.3906 96.9132 46.6018 97.0738 46.8631C97.6865 46.3985 98.4242 46.1282 99.192 46.0868C100.383 46.0868 101.054 46.7447 101.054 48.205V52.8887H99.6919V48.4418C99.6919 47.613 99.3696 47.3762 98.692 47.3762C98.1995 47.4172 97.7259 47.5849 97.3172 47.8629C97.3444 48.0415 97.3576 48.2218 97.3567 48.4024V52.8887H96.0213V48.626C96.0213 47.6919 95.8503 47.3762 95.0214 47.3762C94.5469 47.4164 94.0922 47.5846 93.7058 47.8629V52.8887H92.3441V46.2513H93.5677L93.5479 46.8499ZM104.093 46.2513V50.8034C104.093 51.1017 104.211 51.3878 104.422 51.5988C104.633 51.8097 104.919 51.9283 105.218 51.9283C105.516 51.9283 105.802 51.8097 106.013 51.5988C106.224 51.3878 106.342 51.1017 106.342 50.8034V46.2513H107.704V50.7639C107.704 52.3164 106.652 53.0531 105.218 53.0531C103.784 53.0531 102.731 52.3164 102.731 50.7639V46.2513H104.093ZM110.724 46.8499C111.308 46.3722 112.035 46.1036 112.789 46.0868C113.986 46.0868 114.763 46.7447 114.763 48.205V52.8887H113.401V48.4747C113.401 47.6656 113.125 47.3762 112.361 47.3762C111.835 47.3999 111.325 47.5684 110.888 47.8629V52.8887H109.526V46.2513H110.75L110.724 46.8499ZM120.282 52.0993C120.053 52.39 119.763 52.6263 119.432 52.7913C119.101 52.9562 118.737 53.0457 118.367 53.0531C117.295 53.0531 116.098 52.2243 116.098 49.5864C116.098 46.9486 117.229 46.0868 118.459 46.0868C119.022 46.0957 119.574 46.2377 120.071 46.5013V43.7647L121.433 43.5148V51.4086C121.433 51.7178 121.578 51.8559 121.795 51.8559C122.037 51.8442 122.269 51.7516 122.452 51.5928L122.545 52.5795C122.232 52.8689 121.819 53.0268 121.393 53.0202C121.257 53.0358 121.12 53.0229 120.989 52.9824C120.858 52.9419 120.738 52.8747 120.634 52.785C120.531 52.6953 120.447 52.5851 120.389 52.4614C120.331 52.3377 120.298 52.2032 120.295 52.0664M120.084 47.5669C119.684 47.3328 119.232 47.2038 118.769 47.192C118.111 47.192 117.545 47.6064 117.545 49.4943C117.545 51.1191 118.098 51.7704 118.696 51.7704C118.97 51.7539 119.237 51.6783 119.479 51.5489C119.721 51.4194 119.932 51.2392 120.097 51.0205L120.084 47.5669ZM128.577 49.5996C128.577 51.902 127.623 53.0531 125.84 53.0531C124.057 53.0531 123.09 52.0532 123.09 49.5799C123.09 47.1065 124.051 46.0868 125.84 46.0868C127.629 46.0868 128.577 47.0933 128.577 49.5996ZM124.492 49.5996C124.492 51.3954 124.939 51.9348 125.807 51.9348C126.676 51.9348 127.123 51.3954 127.123 49.6193C127.123 47.8432 126.689 47.2446 125.807 47.2446C124.926 47.2446 124.492 47.7709 124.492 49.5996ZM134.398 49.9417C134.458 51.4744 135.056 51.9151 136.023 51.9151C136.656 51.8873 137.262 51.6567 137.753 51.2573L137.97 52.323C137.321 52.7858 136.545 53.0384 135.747 53.0466C134.096 53.0466 132.971 52.0598 132.971 49.5667C132.971 47.0736 133.958 46.0803 135.655 46.0803C137.352 46.0803 138.056 47.2051 138.056 48.8694V49.9351L134.398 49.9417ZM136.747 48.876C136.747 47.7511 136.418 47.2249 135.628 47.2249C134.839 47.2249 134.471 47.7117 134.405 48.876H136.747ZM140.779 46.8499C141.361 46.3731 142.086 46.1045 142.838 46.0868C144.042 46.0868 144.812 46.7447 144.812 48.205V52.8887H143.45V48.4747C143.45 47.6656 143.174 47.3762 142.411 47.3762C141.884 47.3989 141.374 47.5674 140.937 47.8629V52.8887H139.575V46.2513H140.799L140.779 46.8499ZM150.923 49.9417C150.982 51.4744 151.581 51.9151 152.548 51.9151C153.182 51.8873 153.791 51.6568 154.284 51.2573L154.495 52.323C153.845 52.7858 153.069 53.0384 152.271 53.0466C150.62 53.0466 149.495 52.0598 149.495 49.5667C149.495 47.0736 150.482 46.0803 152.186 46.0803C153.89 46.0803 154.58 47.2051 154.58 48.8694V49.9351L150.923 49.9417ZM153.271 48.876C153.271 47.7511 152.942 47.2249 152.159 47.2249C151.377 47.2249 150.995 47.7117 150.936 48.876H153.271ZM156.619 46.2513L158.277 51.3889L159.863 46.2513H161.231L159.014 52.8887H157.429L155.166 46.2513H156.619ZM167.296 49.5996C167.296 51.902 166.349 53.0531 164.559 53.0531C162.77 53.0531 161.816 52.0532 161.816 49.5799C161.816 47.1065 162.777 46.0868 164.559 46.0868C166.342 46.0868 167.296 47.0933 167.296 49.5996ZM163.211 49.5996C163.211 51.3954 163.665 51.9348 164.559 51.9348C165.454 51.9348 165.875 51.3954 165.875 49.6193C165.875 47.8432 165.434 47.2446 164.559 47.2446C163.684 47.2446 163.211 47.7709 163.211 49.5996ZM170.157 43.5148V51.3625C170.147 51.4277 170.152 51.4943 170.171 51.5573C170.191 51.6204 170.224 51.6782 170.269 51.7264C170.314 51.7746 170.369 51.8119 170.431 51.8354C170.493 51.859 170.559 51.8683 170.624 51.8625C170.913 51.8476 171.192 51.7568 171.434 51.5994L171.572 52.6519C171.153 52.9058 170.674 53.0442 170.184 53.0531C169.072 53.0531 168.796 52.2374 168.796 51.3625V43.7647L170.157 43.5148ZM173.67 46.2513V50.8034C173.67 51.1017 173.789 51.3878 174 51.5988C174.211 51.8097 174.497 51.9283 174.795 51.9283C175.093 51.9283 175.379 51.8097 175.59 51.5988C175.801 51.3878 175.92 51.1017 175.92 50.8034V46.2513H177.275V50.7639C177.275 52.3164 176.229 53.0531 174.795 53.0531C173.361 53.0531 172.308 52.3164 172.308 50.7639V46.2513H173.67ZM182.314 48.4879C182.274 47.8301 181.998 47.2249 181.248 47.2249C180.498 47.2249 180.051 47.7051 180.051 49.5799C180.051 51.4546 180.617 51.9151 181.603 51.9151C182.211 51.9053 182.799 51.6948 183.274 51.3165L183.537 52.3295C182.897 52.8006 182.122 53.0541 181.327 53.0531C179.604 53.0531 178.63 51.9677 178.63 49.5667C178.63 47.1657 179.465 46.0934 181.301 46.0934C182.899 46.0934 183.511 47.0801 183.537 48.3629L182.314 48.4879ZM186.373 45.3896H185.011V43.8897H186.373V45.3896ZM186.373 52.915H185.011V46.2513H186.373V52.915ZM193.359 49.5996C193.359 51.902 192.405 53.0531 190.622 53.0531C188.839 53.0531 187.872 52.0532 187.872 49.5799C187.872 47.1065 188.833 46.0868 190.622 46.0868C192.411 46.0868 193.359 47.0933 193.359 49.5996ZM189.267 49.5996C189.267 51.3954 189.721 51.9348 190.622 51.9348C191.523 51.9348 191.938 51.3954 191.938 49.6193C191.938 47.8432 191.497 47.2446 190.622 47.2446C189.747 47.2446 189.267 47.7709 189.267 49.5996ZM192.556 43.5345L191.102 45.508H189.944L191.168 43.5345H192.556ZM196.082 46.8499C196.663 46.3709 197.388 46.102 198.141 46.0868C199.338 46.0868 200.114 46.7447 200.114 48.205V52.8887H198.753V48.4747C198.753 47.6656 198.476 47.3762 197.713 47.3762C197.187 47.3999 196.677 47.5684 196.24 47.8629V52.8887H194.878V46.2513H196.108L196.082 46.8499ZM44.5142 4.84168C44.6063 6.06522 44.6655 9.12408 44.6655 10.2489C44.6655 11.3738 44.6655 14.7221 44.501 16.2153V16.3338H49.8886C52.5198 16.3338 55.3221 15.4983 55.3221 13.1499C55.3221 11.6764 54.2565 10.5844 52.2633 9.99239C53.7236 9.5977 54.717 8.58467 54.717 7.41375C54.717 5.50608 52.5198 4.78248 50.4609 4.72985H44.5142V4.84168ZM48.6716 6.02576C50.9213 6.02576 51.7568 6.49281 51.7568 7.72292C51.7605 8.03484 51.6532 8.33792 51.4542 8.57809C51.1441 8.86644 50.7735 9.0817 50.3694 9.20805C49.9653 9.33441 49.538 9.36865 49.1189 9.30826H49.0663L48.4085 10.9397H49.0663C49.5933 10.8847 50.1258 10.949 50.6246 11.1278C51.1233 11.3066 51.5755 11.5952 51.9475 11.9724C52.1999 12.2622 52.3379 12.6341 52.3357 13.0184C52.3357 14.334 51.2108 14.9918 48.9939 14.9918H47.6323C47.5533 13.2946 47.5533 10.9791 47.5533 10.295C47.5533 9.48588 47.5533 7.66372 47.6388 6.13758C47.9893 6.08492 48.3437 6.06291 48.6979 6.0718M67.7352 4.72985H65.1039L65.2157 7.64399C65.2618 9.09776 65.3078 10.5844 65.4065 12.0251C65.112 11.3717 64.741 10.7556 64.3014 10.1897C64.3014 10.1437 61.5648 5.94682 60.6176 4.75617H57.5653V4.86142C57.6508 6.08496 57.7166 9.14381 57.7166 10.2687C57.7166 11.2949 57.7166 14.7484 57.5456 16.2351V16.3601H60.2492V16.2417C60.0913 13.3999 60.0913 10.545 60.0913 7.78213C60.2324 8.24146 60.4553 8.67155 60.7491 9.05172C60.7952 9.12408 65.4394 15.9128 65.6762 16.3206V16.3666H67.8536V16.2417C67.6891 14.7484 67.6825 11.3015 67.6825 10.2753C67.6825 9.15039 67.7483 6.09154 67.8338 4.868V4.72985H67.7352ZM70.8795 4.83511C70.965 6.06522 71.0308 9.1175 71.0308 10.2424C71.0308 11.2686 71.0308 14.7155 70.8598 16.2088V16.3272H74.0765V16.2088C73.9647 15.1431 73.9252 13.1039 73.9121 11.5317H74.958C79.2075 11.5317 81.2665 10.3937 81.2665 8.03868C81.2665 5.3482 78.3721 4.74959 75.9513 4.67723H70.8927L70.8795 4.83511ZM74.8264 6.15074C76.3328 6.15074 77.3985 6.44018 77.905 7.06511C78.14 7.36729 78.2632 7.7415 78.2537 8.12419C78.2537 9.80163 76.3789 10.1568 74.8001 10.1568H74.1423L73.8857 10.1174V8.65045C73.8857 7.90711 73.8857 7.05853 73.9252 6.24941C74.2213 6.20315 74.5202 6.17678 74.8199 6.17048M87.4039 4.83511C87.496 6.06522 87.5552 9.1175 87.5552 10.2424C87.5552 11.2686 87.5552 14.7155 87.3842 16.2088V16.3272H90.6141V16.2088C90.5088 15.1431 90.4628 13.1039 90.4496 11.5317H91.4955C95.7384 11.5317 97.8106 10.3937 97.8106 8.03868C97.8106 5.3482 94.9162 4.74959 92.4888 4.67723H87.4302L87.4039 4.83511ZM91.3508 6.15074C92.8572 6.15074 93.9229 6.44018 94.436 7.06511C94.6663 7.36941 94.7868 7.74268 94.778 8.12419C94.778 9.80163 92.9033 10.1568 91.3245 10.1568H90.6667L90.4167 10.1174V8.64387C90.4167 7.90054 90.4167 7.05853 90.4562 6.24941C90.7523 6.20346 91.0512 6.17709 91.3508 6.17048M102.093 4.72985H102.034V4.79564C101.435 6.44018 97.5803 14.88 96.9817 16.1759L96.9028 16.3338H99.6656V16.268C99.909 15.4786 100.218 14.5774 100.58 13.6038L102.863 13.5709H105.158C105.658 14.8208 106.027 15.768 106.191 16.2417V16.3009H109.395L104.251 4.72985H102.093ZM102.876 8.15051C103.132 8.68992 103.797 10.2489 104.54 12.0974H101.179C101.777 10.6239 102.369 9.29511 102.876 8.15051ZM110.691 4.83511C110.77 6.05865 110.842 9.1175 110.842 10.2424C110.842 11.2686 110.842 14.7221 110.664 16.2088V16.3338H113.894V16.2088C113.73 14.7155 113.723 11.2686 113.723 10.2424C113.723 9.43983 113.756 7.6111 113.815 6.19021C114.078 6.15732 114.44 6.13101 114.684 6.12443C116.19 6.09154 117.256 6.41387 117.762 7.03879C117.998 7.3379 118.122 7.71044 118.111 8.0913C118.111 9.40694 116.854 10.1042 115.683 10.17C115.464 10.1803 115.243 10.1693 115.026 10.1371L114.809 10.0976L114.947 10.3016C116.078 11.979 117.795 14.9063 118.519 16.2877V16.3338H121.972L121.867 16.1627C121.749 15.972 119.486 12.65 118.525 11.2291L118.459 11.1436C120.216 10.6107 121.091 9.61086 121.091 8.0913C121.091 5.40083 118.196 4.80221 115.769 4.72985H110.71L110.691 4.83511ZM126.524 4.7167H123.452V4.82853C123.538 6.05865 123.604 9.1175 123.604 10.2424C123.604 11.262 123.604 14.7089 123.433 16.2022V16.3206H126.656V16.2022C126.498 14.7089 126.485 11.262 126.485 10.2424C126.485 9.1175 126.551 6.05865 126.636 4.82853V4.7167H126.524ZM129.537 4.84168C129.629 6.06522 129.688 9.12408 129.688 10.2489C129.688 11.3738 129.688 14.7221 129.517 16.2153V16.3338H134.898C137.53 16.3338 140.338 15.4983 140.338 13.1499C140.338 11.6764 139.273 10.5844 137.28 9.99239C138.74 9.5977 139.733 8.58467 139.733 7.41375C139.733 5.50608 137.543 4.78248 135.477 4.72985H129.557L129.537 4.84168ZM133.695 6.02576C135.944 6.02576 136.78 6.49281 136.78 7.72292C136.783 8.03484 136.676 8.33792 136.477 8.57809C136.166 8.86831 135.793 9.08465 135.386 9.21106C134.98 9.33747 134.55 9.37069 134.129 9.30826H134.069L133.458 10.9397H134.083C134.606 10.8877 135.135 10.9535 135.63 11.1322C136.125 11.3109 136.574 11.598 136.944 11.9724C137.194 12.2637 137.332 12.6346 137.332 13.0184C137.332 14.334 136.207 14.9918 133.997 14.9918H132.629C132.55 13.2946 132.55 10.9791 132.55 10.295C132.55 9.4793 132.55 7.66372 132.642 6.13758C132.99 6.08467 133.342 6.06265 133.695 6.0718M148.252 4.7167H146.081V4.78248C145.423 6.53227 141.365 15.4325 141.029 16.1693L140.95 16.3206H143.72V16.2548C143.956 15.4654 144.272 14.5642 144.634 13.5907L146.917 13.5578H149.212C149.712 14.8142 150.081 15.7549 150.239 16.2285V16.2877H153.442L148.298 4.7167H148.252ZM146.936 8.13735C147.2 8.68334 147.851 10.2358 148.607 12.0843H146.936L145.246 12.0514C145.838 10.5779 146.43 9.25564 146.936 8.10446M154.37 7.7295C154.37 9.76874 156.422 10.5976 158.231 11.3343C159.639 11.9001 161.086 12.4921 161.086 13.4591C161.1 13.7152 161.02 13.9676 160.862 14.1695C160.527 14.5708 159.836 14.7418 158.744 14.6892C157.481 14.5821 156.251 14.2338 155.12 13.663L154.554 13.4065V15.9391L154.916 16.018L155.139 16.0641C156.214 16.3496 157.317 16.5085 158.428 16.5377C161.823 16.5377 163.855 15.1826 163.855 12.9328C163.855 10.841 161.757 10.0056 159.909 9.2688C158.547 8.72281 157.133 8.15708 157.133 7.29534C157.133 7.03222 157.133 6.25599 158.882 6.25599C160.021 6.31522 161.137 6.59212 162.171 7.07169L162.829 7.34797V4.7759L162.171 4.65749C161.222 4.45232 160.255 4.33779 159.284 4.31543C156.343 4.31543 154.37 5.69027 154.37 7.7295ZM52.6119 22.3988C51.966 22.0045 51.2242 21.7951 50.4675 21.7936C47.8362 21.7936 46.9547 23.8592 46.9547 25.6287C46.9547 28.0824 48.4611 29.3191 50.4872 29.3191C51.6349 29.2848 52.7265 28.8143 53.5395 28.0034V30.1282C52.4219 30.5799 51.2254 30.8036 50.0201 30.786C46.3758 30.786 44.0998 28.5165 44.0998 25.6287C44.0998 22.5896 46.5074 20.3662 50.4872 20.3662C51.402 20.3758 52.3121 20.4973 53.1974 20.728L52.6119 22.3988ZM61.4135 20.5306C61.8016 21.5634 65.1039 28.9178 65.8801 30.5821H63.1107C62.9528 30.1216 62.6173 29.2664 62.1898 28.2139H58.2429C57.9205 29.0559 57.664 29.8322 57.4337 30.5821H54.9998C55.5721 29.3322 58.9467 22.0305 59.4795 20.5306H61.4135ZM61.6569 26.8917L60.2229 23.4908C59.7624 24.4644 59.2625 25.6156 58.7296 26.8917H61.6569ZM72.011 20.5306C74.1226 20.5306 76.6157 21.1227 76.6157 23.4448C76.6157 24.7604 75.8592 25.6287 74.3462 26.076C75.2894 27.6285 76.3103 29.1325 77.4051 30.5821H74.4054C73.7476 29.3322 72.2544 26.8062 71.1624 25.1682C71.4176 25.2216 71.678 25.2459 71.9386 25.2406C72.8135 25.2406 74.0436 24.5828 74.0436 23.4448C74.0436 21.9976 72.2938 21.7344 71.4124 21.7344C71.0476 21.7343 70.683 21.7541 70.3204 21.7936C70.2612 23.0435 70.2349 24.6091 70.2349 25.313C70.2349 26.201 70.2349 29.1744 70.3927 30.5755H67.597C67.7352 29.1809 67.7681 27.3851 67.7681 25.313C67.7681 23.5632 67.768 21.4647 67.6233 20.5306H72.011ZM83.1741 20.5306C87.4105 20.5306 89.0287 22.7541 89.0287 25.5432C89.0287 28.3323 87.4499 30.5821 83.0163 30.5821H79.2864C79.4246 29.2336 79.4246 27.3785 79.4246 25.3195C79.4246 24.346 79.4246 21.8331 79.2864 20.5241L83.1741 20.5306ZM82.0098 21.7936C81.9506 22.4515 81.9374 24.1618 81.9374 25.3261C81.9374 26.7931 81.9374 27.9574 81.9966 29.273C82.2348 29.2987 82.4741 29.3119 82.7137 29.3125C85.141 29.3125 86.404 28.5494 86.404 25.4643C86.404 22.5238 85.0884 21.6884 82.6545 21.7476L82.0098 21.7936ZM94.1926 20.5306C94.1071 21.695 94.0479 24.3328 94.0479 25.3261C94.0479 26.201 94.0479 29.1875 94.1926 30.5887H91.4034C91.5481 29.1941 91.5613 26.2076 91.5613 25.3261C91.5613 24.4446 91.5021 21.695 91.4363 20.5306H94.1926ZM104.843 20.5306V21.9844C104.053 21.9384 102.086 21.8792 101.429 21.8792C100.942 21.8792 100.396 21.8792 99.8367 21.9252C99.7906 22.5436 99.7774 23.3198 99.7774 23.9908V24.8656L103.284 24.813V26.372L99.7709 26.2339C99.7709 27.5101 99.7709 29.4901 99.9287 30.5821H97.1396C97.3172 29.1875 97.3172 26.201 97.3172 25.3195C97.3172 24.4381 97.2449 21.6884 97.1528 20.5241L104.843 20.5306Z" fill="black"/>
    </g>
    <defs>
        <linearGradient id="paint0_linear_46_9125" x1="18.0056" y1="-0.805827" x2="18.0056" y2="36.2096" gradientUnits="userSpaceOnUse">
            <stop stop-color="#43774F"/>
            <stop offset="0.6" stop-color="#9FC8AD"/>
            <stop offset="1" stop-color="#549462"/>
        </linearGradient>
        <linearGradient id="paint1_linear_46_9125" x1="18.5387" y1="-8.72942" x2="18.5387" y2="32.871" gradientUnits="userSpaceOnUse">
            <stop stop-color="#549462"/>
            <stop offset="0.3" stop-color="#9FC8AD"/>
            <stop offset="0.55" stop-color="#549462"/>
            <stop offset="0.84" stop-color="#43774F"/>
            <stop offset="0.89" stop-color="#488057"/>
            <stop offset="0.98" stop-color="#56986E"/>
            <stop offset="1" stop-color="#599D73"/>
        </linearGradient>
        <linearGradient id="paint2_linear_46_9125" x1="24.9291" y1="30.5554" x2="24.9291" y2="3.63749" gradientUnits="userSpaceOnUse">
            <stop stop-color="#5EA77E"/>
            <stop offset="1" stop-color="#549462"/>
        </linearGradient>
        <linearGradient id="paint3_linear_46_9125" x1="8.39031" y1="30.539" x2="8.39031" y2="3.61455" gradientUnits="userSpaceOnUse">
            <stop stop-color="#5EA77E"/>
            <stop offset="1" stop-color="#549462"/>
        </linearGradient>
        <linearGradient id="paint4_linear_46_9125" x1="13.2158" y1="30.5786" x2="13.2158" y2="3.66727" gradientUnits="userSpaceOnUse">
            <stop stop-color="#5EA77E"/>
            <stop offset="1" stop-color="#549462"/>
        </linearGradient>
        <linearGradient id="paint5_linear_46_9125" x1="17.9432" y1="30.5558" x2="17.9432" y2="3.63794" gradientUnits="userSpaceOnUse">
            <stop stop-color="#5EA77E"/>
            <stop offset="1" stop-color="#549462"/>
        </linearGradient>
        <clipPath id="clip0_46_9125">
            <rect width="199.648" height="56" fill="white" transform="translate(0.44043)"/>
        </clipPath>
    </defs>
</svg>
