<svg width="52" height="48" viewBox="0 0 52 48" fill="none" xmlns="http://www.w3.org/2000/svg">
<path d="M11.6667 25.6667L15.1667 15.1667H40.8333L44.3333 25.6667M40.8333 37.3334C39.9051 37.3334 39.0148 36.9647 38.3585 36.3083C37.7021 35.6519 37.3333 34.7617 37.3333 33.8334C37.3333 32.9052 37.7021 32.0149 38.3585 31.3585C39.0148 30.7022 39.9051 30.3334 40.8333 30.3334C41.7616 30.3334 42.6518 30.7022 43.3082 31.3585C43.9646 32.0149 44.3333 32.9052 44.3333 33.8334C44.3333 34.7617 43.9646 35.6519 43.3082 36.3083C42.6518 36.9647 41.7616 37.3334 40.8333 37.3334ZM15.1667 37.3334C14.2384 37.3334 13.3482 36.9647 12.6918 36.3083C12.0354 35.6519 11.6667 34.7617 11.6667 33.8334C11.6667 32.9052 12.0354 32.0149 12.6918 31.3585C13.3482 30.7022 14.2384 30.3334 15.1667 30.3334C16.0949 30.3334 16.9852 30.7022 17.6415 31.3585C18.2979 32.0149 18.6667 32.9052 18.6667 33.8334C18.6667 34.7617 18.2979 35.6519 17.6415 36.3083C16.9852 36.9647 16.0949 37.3334 15.1667 37.3334ZM44.1467 14.0001C43.68 12.6467 42.3733 11.6667 40.8333 11.6667H15.1667C13.6267 11.6667 12.32 12.6467 11.8533 14.0001L7 28.0001V46.6667C7 47.2856 7.24583 47.8791 7.68342 48.3167C8.121 48.7542 8.71449 49.0001 9.33333 49.0001H11.6667C12.2855 49.0001 12.879 48.7542 13.3166 48.3167C13.7542 47.8791 14 47.2856 14 46.6667V44.3334H42V46.6667C42 47.2856 42.2458 47.8791 42.6834 48.3167C43.121 48.7542 43.7145 49.0001 44.3333 49.0001H46.6667C47.2855 49.0001 47.879 48.7542 48.3166 48.3167C48.7542 47.8791 49 47.2856 49 46.6667V28.0001L44.1467 14.0001Z" fill="black"/>
</svg>
