<svg width="201" height="56" viewBox="0 0 201 56" fill="none" xmlns="http://www.w3.org/2000/svg">
<g clip-path="url(#clip0_138_8553)">
<mask id="mask0_138_8553" style="mask-type:luminance" maskUnits="userSpaceOnUse" x="0" y="0" width="36" height="36">
<path d="M0.695312 0H35.7636V35.0683H0.695312V0Z" fill="white"/>
</mask>
<g mask="url(#mask0_138_8553)">
<path d="M0.695312 0H35.7636V35.0683H0.695312V0Z" fill="url(#paint0_linear_138_8553)"/>
</g>
<mask id="mask1_138_8553" style="mask-type:luminance" maskUnits="userSpaceOnUse" x="1" y="0" width="35" height="34">
<path d="M3.43287 0.618164C2.77505 0.618164 2.308 1.19047 2.20275 1.993C2.20275 1.993 1.32786 6.59772 1.32786 16.3729C1.28771 21.7776 1.57989 27.1797 2.20275 32.5486C2.28827 33.3248 2.75532 33.93 3.43287 33.93H33.7911C33.9641 33.9244 34.134 33.8836 34.2907 33.8103C34.4474 33.7369 34.5875 33.6324 34.7026 33.5032C34.8176 33.374 34.9052 33.2228 34.96 33.0587C35.0148 32.8946 35.0356 32.721 35.0213 32.5486C35.0213 32.5486 34.6792 25.0561 34.6792 17.7609C34.6792 10.4657 35.0213 1.97327 35.0213 1.97327C35.0322 1.63191 34.91 1.29966 34.6804 1.04678C34.4509 0.793891 34.132 0.640188 33.7911 0.618164H3.43287Z" fill="white"/>
</mask>
<g mask="url(#mask1_138_8553)">
<path d="M1.32812 0.618164H35.0347V33.93H1.32812V0.618164Z" fill="url(#paint1_linear_138_8553)"/>
</g>
<mask id="mask2_138_8553" style="mask-type:luminance" maskUnits="userSpaceOnUse" x="17" y="3" width="15" height="13">
<path d="M20.4836 4.13744C21.4374 4.5387 25.2856 6.61741 25.7461 7.2818C23.0687 7.69869 20.4543 8.4501 17.9641 9.51838L17.8457 9.76178C20.352 9.28966 22.8889 8.99729 25.4369 8.88688C24.6646 9.99317 23.7998 11.0319 22.8517 11.9918L22.7399 12.2549C25.0883 10.8406 25.7527 10.7419 27.9235 9.47233C28.7392 10.6827 28.9365 13.4719 28.9694 15.6887C29.6733 14.281 30.5284 8.99213 30.1732 8.03829C31.6138 7.05157 31.8112 6.25561 31.8112 6.25561C30.8801 6.27958 29.9542 6.40084 29.0483 6.61741C26.4143 5.21601 23.5521 4.29388 20.5954 3.89404L20.4836 4.13744Z" fill="white"/>
</mask>
<g mask="url(#mask2_138_8553)">
<path d="M17.8594 3.89404H31.8117V15.6887H17.8594V3.89404Z" fill="url(#paint2_linear_138_8553)"/>
</g>
<mask id="mask3_138_8553" style="mask-type:luminance" maskUnits="userSpaceOnUse" x="4" y="20" width="9" height="11">
<path d="M6.11592 20.57C5.89196 22.0372 5.89196 23.5299 6.11592 24.9971C5.46819 25.113 4.82874 25.2713 4.20167 25.4707L4.08984 25.7076C4.95619 26.2583 5.85706 26.7526 6.7869 27.1876C7.27428 28.2817 7.97158 29.2696 8.83929 30.0952L8.95111 29.8518C8.72525 29.2193 8.62253 28.5495 8.64852 27.8784C9.76703 28.2184 10.9267 28.4043 12.0955 28.4309L12.2073 28.1809C11.0345 27.8406 9.941 27.2704 8.99058 26.5035C9.27621 25.6982 9.67251 24.9366 10.1681 24.2406L10.2799 23.9972C9.29318 24.1419 8.39197 24.5103 7.53681 24.655C6.87899 23.471 6.60271 21.8462 6.26064 20.3003L6.11592 20.57Z" fill="white"/>
</mask>
<g mask="url(#mask3_138_8553)">
<path d="M4.07617 20.3198H12.1871V30.095H4.07617V20.3198Z" fill="url(#paint3_linear_138_8553)"/>
</g>
<mask id="mask4_138_8553" style="mask-type:luminance" maskUnits="userSpaceOnUse" x="6" y="10" width="15" height="10">
<path d="M11.9909 12.4985C11.3341 12.4532 10.6754 12.4423 10.0175 12.4656C8.89734 12.4888 7.78138 12.6099 6.68233 12.8274L6.57708 13.0708C7.76773 13.1234 9.40569 13.4392 10.0306 14.0707C8.53857 15.5997 7.31934 17.3729 6.42578 19.3135C6.42578 19.3135 9.71487 16.2546 11.0963 15.4981C11.0963 15.4981 11.833 17.9584 12.3461 19.1885L12.458 18.9451C12.6715 17.4913 13.0398 16.0645 13.5565 14.689C13.9614 14.5516 14.3854 14.4783 14.813 14.4719C16.5941 14.3377 18.3854 14.4528 20.1347 14.814L20.2465 14.5772C18.3966 13.6502 16.4081 13.0303 14.3591 12.7419H14.4446C14.6711 12.0824 14.9505 11.4422 15.28 10.8276C14.0839 11.1811 12.9672 11.7618 11.9909 12.538" fill="white"/>
</mask>
<g mask="url(#mask4_138_8553)">
<path d="M6.42578 10.8145H20.2465V19.3069H6.42578V10.8145Z" fill="url(#paint4_linear_138_8553)"/>
</g>
<mask id="mask5_138_8553" style="mask-type:luminance" maskUnits="userSpaceOnUse" x="14" y="25" width="8" height="6">
<path d="M18.8114 27.6285C18.772 27.1483 18.7391 26.7405 18.7128 26.2077C18.1869 26.925 17.6294 27.6186 17.0419 28.2864C16.3512 28.4387 15.6431 28.4962 14.9369 28.4574H14.1607L14.0488 28.7008C14.662 29.0091 15.3151 29.2305 15.9894 29.3586C15.4249 29.8062 14.8291 30.2129 14.2067 30.5756L14.0949 30.8189C15.3557 30.5337 16.571 30.0754 17.7063 29.4573C18.1947 29.4836 18.6846 29.455 19.1666 29.3718L19.2851 29.1284C19.2127 28.8784 18.9956 28.7271 18.9298 28.385C19.8349 27.6657 20.6899 26.8855 21.4887 26.0498L21.6072 25.7998C20.724 26.4808 19.7892 27.0922 18.8114 27.6285Z" fill="white"/>
</mask>
<g mask="url(#mask5_138_8553)">
<path d="M14.0488 25.7998H21.6269V30.8255H14.0488V25.7998Z" fill="url(#paint5_linear_138_8553)"/>
</g>
<path d="M28.0682 9.20967C25.904 10.4793 25.2396 10.5911 22.8846 11.9988C23.8831 10.9596 24.7858 9.83232 25.5817 8.63079C23.0381 8.74189 20.5056 9.03426 18.0036 9.50569C20.5081 8.31797 23.1644 7.48124 25.8974 7.01914C25.4172 6.36132 21.569 4.28262 20.6349 3.88135C23.6806 4.11816 27.4038 5.25619 29.1865 6.35474C30.0963 6.15005 31.0238 6.0333 31.9559 6.0061C31.6222 6.7678 31.0402 7.3939 30.3048 7.78221C30.6666 8.74262 29.8049 14.0249 29.101 15.426C29.101 13.2158 28.8773 10.4266 28.0551 9.20967M12.1951 28.1811C11.0258 27.7767 9.95926 27.121 9.07046 26.2603C9.36152 25.4574 9.75745 24.6965 10.248 23.9974C9.23491 24.1487 8.49158 24.2605 7.61668 24.425C6.9362 23.1403 6.46751 21.7542 6.22869 20.3202C6.00806 21.7899 6.00806 23.2842 6.22869 24.7539C5.53072 24.9347 4.8487 25.1723 4.18945 25.4643C5.05591 26.0227 5.95671 26.5258 6.8865 26.9707C7.37389 28.0629 8.07125 29.0486 8.9389 29.8717C8.71828 29.1457 8.65548 28.3809 8.75471 27.6286C9.87117 27.9669 11.0287 28.1506 12.1951 28.1745M15.4316 10.6042C15.0205 11.1854 14.697 11.8237 14.4711 12.4988C16.5126 12.8117 18.4741 13.5176 20.2468 14.5775C18.4947 14.2037 16.698 14.0841 14.9119 14.2222C14.4846 14.2315 14.0611 14.3047 13.6554 14.4393C13.099 15.8955 12.6955 17.4057 12.4516 18.9454C11.9385 17.7152 11.2018 15.2484 11.2018 15.2484C9.80064 16.0049 6.55102 19.0769 6.55102 19.0769C7.44323 17.147 8.66036 15.3848 10.1493 13.867C9.52435 13.2092 7.88639 12.9198 6.68916 12.8671C7.80627 12.5136 8.9654 12.3101 10.1361 12.2619C10.794 12.2344 11.453 12.2454 12.1096 12.2948C13.1029 11.53 14.2324 10.9608 15.4381 10.6174M18.8588 25.9643C18.3337 26.6837 17.7716 27.3753 17.1748 28.0364C16.205 28.3205 15.1987 28.4601 14.1883 28.4508C14.8007 28.761 15.4541 28.9825 16.1288 29.1086C15.5428 29.6517 14.9087 30.1405 14.2343 30.569C15.4956 30.2884 16.7112 29.8323 17.8457 29.2139C18.3366 29.2351 18.8283 29.2042 19.3127 29.1218C19.2108 28.7961 19.1295 28.4644 19.0693 28.1285C19.9865 27.4114 20.8505 26.6287 21.6545 25.7867C20.8028 26.3934 19.8979 26.9218 18.9509 27.3654C18.8588 26.905 18.8588 26.4971 18.8588 25.9643Z" fill="white"/>
<path d="M4.62317 46.7052C4.53766 45.9553 4.34689 45.2185 3.26149 45.2185C2.60367 45.2185 2.01164 45.5474 2.01164 46.2973C2.01164 48.0734 6.02432 48.0603 6.02432 50.606C6.02432 52.2309 4.89946 53.0466 3.26149 53.0466C2.72978 53.0517 2.20309 52.9434 1.71648 52.729C1.22988 52.5147 0.79454 52.1991 0.439453 51.8033L1.09727 50.7771C1.37438 51.0938 1.71489 51.3487 2.09676 51.5255C2.47863 51.7023 2.89336 51.7969 3.31412 51.8033C4.08376 51.8033 4.62975 51.5007 4.62975 50.7639C4.63633 49.1786 0.636798 49.0996 0.636798 46.4026C0.636798 44.7515 1.8735 43.9752 3.26807 43.9752C3.61109 43.9502 3.95555 43.9975 4.2791 44.1141C4.60266 44.2308 4.89807 44.4142 5.14618 44.6523C5.3943 44.8905 5.58956 45.1782 5.71931 45.4967C5.84906 45.8153 5.9104 46.1575 5.89934 46.5013L4.62317 46.7052ZM8.6227 49.9417C8.68191 51.4744 9.28052 51.9151 10.2475 51.9151C10.8819 51.8873 11.4906 51.6568 11.9841 51.2573L12.1947 52.323C11.5449 52.7858 10.7689 53.0384 9.97123 53.0466C8.32011 53.0466 7.19524 52.0598 7.19524 49.5667C7.19524 47.0736 8.18196 46.0803 9.88571 46.0803C11.5895 46.0803 12.2802 47.2117 12.2802 48.876V49.9417H8.6227ZM10.9645 48.876C10.9645 47.7511 10.6356 47.2249 9.85282 47.2249C9.07002 47.2249 8.68848 47.7117 8.62928 48.876H10.9645ZM18.9504 47.4748L18.0361 47.4288C18.2839 47.7813 18.4003 48.2097 18.365 48.6392C18.3902 48.9689 18.3455 49.3003 18.2338 49.6116C18.1221 49.9229 17.9459 50.2071 17.7167 50.4455C17.4876 50.684 17.2106 50.8714 16.9041 50.9954C16.5975 51.1194 16.2681 51.1773 15.9376 51.1652C15.7155 51.1761 15.4931 51.1495 15.2798 51.0863C15.0298 51.2639 14.8654 51.3757 14.8654 51.5994C14.8654 52.3032 18.8912 51.4744 18.8912 53.8622C18.8912 55.3029 17.3783 56.0001 15.7403 56.0001C14.1023 56.0001 13.0038 55.4015 13.0038 54.3359C13.0253 53.993 13.1436 53.6632 13.3451 53.385C13.5465 53.1067 13.8228 52.8912 14.1418 52.7637C13.9686 52.6795 13.8243 52.5457 13.7271 52.3795C13.6299 52.2132 13.5842 52.0218 13.5958 51.8296C13.6208 51.5828 13.7065 51.3461 13.8455 51.1406C13.9844 50.9351 14.1721 50.7672 14.3918 50.6521C14.0904 50.4082 13.8514 50.096 13.6947 49.7414C13.538 49.3868 13.468 48.9999 13.4906 48.6129C13.4638 48.28 13.5086 47.9452 13.6218 47.6311C13.7351 47.3169 13.9142 47.0306 14.1472 46.7913C14.3802 46.5521 14.6617 46.3655 14.9728 46.244C15.2839 46.1225 15.6173 46.0689 15.9508 46.0868C16.2758 46.0866 16.5985 46.1422 16.9046 46.2513H18.9504V47.4748ZM14.3062 54.1912C14.3062 54.7898 15.0167 54.9411 15.7929 54.9411C16.5691 54.9411 17.5427 54.599 17.5427 54.0267C17.5427 53.211 16.4244 53.2242 15.3982 53.086C14.8588 53.336 14.2997 53.7438 14.2997 54.1912M15.9311 47.192C15.2075 47.192 14.7601 47.5998 14.7601 48.626C14.7601 49.6522 15.2075 50.0666 15.9311 50.0666C16.6547 50.0666 17.1085 49.6522 17.1085 48.626C17.1085 47.5998 16.6612 47.192 15.9311 47.192ZM21.2133 46.2513V50.8034C21.1949 50.955 21.2114 51.1087 21.2617 51.2529C21.3119 51.3971 21.3945 51.5279 21.5031 51.6352C21.6117 51.7425 21.7434 51.8235 21.8881 51.8721C22.0329 51.9206 22.1869 51.9353 22.3382 51.9151C22.4895 51.9353 22.6435 51.9206 22.7883 51.8721C22.933 51.8235 23.0647 51.7425 23.1733 51.6352C23.2819 51.5279 23.3645 51.3971 23.4147 51.2529C23.4649 51.1087 23.4815 50.955 23.4631 50.8034V46.2513H24.8247V50.7639C24.8247 52.3164 23.7722 53.0531 22.3382 53.0531C20.9042 53.0531 19.8516 52.3164 19.8516 50.7639V46.2513H21.2133ZM27.8441 46.2513V46.9091C28.0496 46.6599 28.3064 46.4581 28.597 46.3173C28.8877 46.1765 29.2053 46.1001 29.5281 46.0934C30.5149 46.0934 30.7056 46.9946 30.7056 47.9682L29.5413 48.1063C29.5413 47.7051 29.4953 47.4485 29.1203 47.4485C28.6671 47.5305 28.2611 47.7793 27.9823 48.1458V52.8887H26.6206V46.2513H27.8441ZM36.6786 49.5996C36.6786 51.902 35.7248 53.0531 33.9421 53.0531C32.1594 53.0531 31.1924 52.0532 31.1924 49.5799C31.1924 47.1065 32.1528 46.0868 33.9421 46.0868C35.7314 46.0868 36.6786 47.0933 36.6786 49.5996ZM32.5936 49.5996C32.5936 51.3954 33.0409 51.9348 33.9092 51.9348C34.7775 51.9348 35.2248 51.3954 35.2248 49.6193C35.2248 47.8432 34.7907 47.2446 33.9092 47.2446C33.0277 47.2446 32.5936 47.7709 32.5936 49.5996ZM41.0597 48.2511C41.0136 47.6656 40.7505 47.2249 40.0335 47.2249C39.5138 47.2249 39.1125 47.4551 39.1125 47.955C39.1125 49.2115 42.2109 49.0996 42.2109 51.1126C42.2109 52.3164 41.3623 53.086 39.9348 53.086C39.0728 53.106 38.2363 52.7926 37.5996 52.2111L38.0469 51.2112C38.5567 51.6718 39.2215 51.9231 39.9085 51.9151C40.4282 51.9151 40.8689 51.7178 40.8689 51.1915C40.8689 50.139 37.8035 50.1522 37.8035 48.0406C37.8035 46.8631 38.6455 46.0671 40.0335 46.0671C41.5662 46.0671 42.2043 46.9552 42.2043 48.0406L41.0597 48.2511ZM48.4601 52.7374V55.4607L47.1445 55.7633V46.2513H48.368V46.8499C48.9123 46.3659 49.6132 46.0948 50.3415 46.0868C51.4664 46.0868 52.5583 46.7447 52.5583 49.5009C52.5583 52.0796 51.3808 53.0531 49.8415 53.0531C49.3859 53.0402 48.9378 52.9327 48.5259 52.7374M48.5259 51.5401C48.874 51.7762 49.2829 51.9065 49.7034 51.9151C50.4336 51.9151 51.0914 51.3099 51.0914 49.5009C51.0914 47.6919 50.4796 47.317 49.8415 47.317C49.3663 47.3329 48.9074 47.4936 48.5259 47.7774V51.5401ZM57.0512 48.0998C57.0512 47.4419 56.6368 47.2249 56.0777 47.2249C55.9372 47.2116 55.7954 47.2285 55.6621 47.2747C55.5287 47.3208 55.4068 47.395 55.3045 47.4922C55.2023 47.5895 55.1221 47.7076 55.0693 47.8385C55.0166 47.9694 54.9926 48.1101 54.9988 48.2511L53.8016 48.1261C53.8411 46.8104 54.9133 46.0868 56.1632 46.0868C57.538 46.0868 58.4129 46.7907 58.4129 47.9748V51.4415C58.4129 51.7506 58.5576 51.8888 58.7747 51.8888C59.0167 51.8747 59.2476 51.7824 59.4325 51.6257L59.5115 52.6255C59.1994 52.9162 58.7866 53.0742 58.3603 53.0663C58.226 53.0808 58.0901 53.0681 57.9608 53.0289C57.8315 52.9898 57.7113 52.925 57.6076 52.8384C57.5039 52.7519 57.4186 52.6453 57.3569 52.5251C57.2952 52.4049 57.2584 52.2735 57.2486 52.1388C57.0212 52.4273 56.7315 52.6606 56.4011 52.8213C56.0707 52.9819 55.7083 53.0657 55.3409 53.0663C55.1002 53.0868 54.8579 53.0541 54.6313 52.9704C54.4047 52.8867 54.1993 52.754 54.0298 52.582C53.8602 52.4099 53.7306 52.2026 53.6503 51.9748C53.5699 51.747 53.5407 51.5042 53.5648 51.2639C53.5648 49.5667 55.1896 48.8628 57.0512 48.876V48.0998ZM57.0512 49.889C55.8869 49.8496 54.9133 50.2771 54.9133 51.1257C54.9133 51.6388 55.137 51.9151 55.6632 51.9151C55.9322 51.8916 56.1936 51.8143 56.4321 51.6878C56.6705 51.5612 56.8811 51.388 57.0512 51.1784V49.889ZM61.6165 46.2513V46.9091C61.8232 46.6598 62.0812 46.4579 62.3729 46.3171C62.6646 46.1764 62.9832 46.1001 63.3071 46.0934C64.2938 46.0934 64.478 46.9946 64.478 47.9682L63.3202 48.1063C63.3202 47.7051 63.2676 47.4485 62.8926 47.4485C62.4395 47.5305 62.0335 47.7793 61.7546 48.1458V52.8887H60.4193V46.2513H61.6165ZM68.6025 48.0998C68.6025 47.4419 68.1947 47.2249 67.6289 47.2249C67.489 47.2126 67.348 47.2303 67.2154 47.2769C67.0828 47.3234 66.9617 47.3978 66.8602 47.4949C66.7587 47.5921 66.6791 47.7098 66.6268 47.8402C66.5744 47.9706 66.5505 48.1107 66.5567 48.2511L65.3529 48.1261C65.3923 46.8104 66.4646 46.0868 67.7144 46.0868C69.0893 46.0868 69.9642 46.7907 69.9642 47.9748V51.4415C69.9642 51.7506 70.1155 51.8888 70.326 51.8888C70.5682 51.8756 70.7993 51.7832 70.9838 51.6257L71.0693 52.6124C70.7593 52.902 70.3489 53.06 69.9247 53.0531C69.7902 53.0686 69.654 53.0565 69.5243 53.0177C69.3946 52.979 69.2741 52.9143 69.1702 52.8275C69.0662 52.7408 68.981 52.6339 68.9196 52.5132C68.8582 52.3926 68.8219 52.2607 68.813 52.1256C68.5822 52.4169 68.2881 52.6518 67.953 52.8125C67.618 52.9733 67.2506 53.0555 66.879 53.0531C66.6383 53.0737 66.396 53.0409 66.1694 52.9572C65.9428 52.8735 65.7374 52.7409 65.5679 52.5688C65.3983 52.3968 65.2688 52.1894 65.1884 51.9616C65.108 51.7338 65.0788 51.4911 65.1029 51.2507C65.1029 49.5535 66.7277 48.8497 68.5893 48.8628L68.6025 48.0998ZM68.6025 49.889C67.4447 49.8496 66.4646 50.2771 66.4646 51.1257C66.4646 51.6388 66.6948 51.9151 67.2145 51.9151C67.4834 51.8916 67.7449 51.8143 67.9834 51.6878C68.2218 51.5612 68.4324 51.388 68.6025 51.1784V49.889ZM76.5226 46.2513V50.8034C76.5226 51.1017 76.6411 51.3878 76.8521 51.5988C77.063 51.8097 77.3492 51.9283 77.6475 51.9283C77.9458 51.9283 78.2319 51.8097 78.4429 51.5988C78.6538 51.3878 78.7724 51.1017 78.7724 50.8034V46.2513H80.134V50.7639C80.134 52.3164 79.0815 53.0531 77.6475 53.0531C76.2134 53.0531 75.1609 52.3164 75.1609 50.7639V46.2513H76.5226ZM83.1534 46.8499C83.7375 46.3722 84.4646 46.1036 85.219 46.0868C86.4162 46.0868 87.1924 46.7447 87.1924 48.205V52.8887H85.8307V48.4747C85.8307 47.6656 85.5545 47.3762 84.7914 47.3762C84.2648 47.3999 83.755 47.5684 83.3179 47.8629V52.8887H81.9562V46.2513H83.1797L83.1534 46.8499ZM93.5469 46.8499C94.1028 46.3851 94.7965 46.1169 95.5204 46.0868C95.8258 46.0586 96.133 46.1163 96.4074 46.2535C96.6817 46.3906 96.9122 46.6018 97.0728 46.8631C97.6855 46.3985 98.4233 46.1282 99.191 46.0868C100.382 46.0868 101.053 46.7447 101.053 48.205V52.8887H99.691V48.4418C99.691 47.613 99.3686 47.3762 98.6911 47.3762C98.1985 47.4172 97.7249 47.5849 97.3162 47.8629C97.3434 48.0415 97.3566 48.2218 97.3557 48.4024V52.8887H96.0203V48.626C96.0203 47.6919 95.8493 47.3762 95.0204 47.3762C94.5459 47.4164 94.0912 47.5846 93.7048 47.8629V52.8887H92.3431V46.2513H93.5667L93.5469 46.8499ZM104.092 46.2513V50.8034C104.092 51.1017 104.21 51.3878 104.421 51.5988C104.632 51.8097 104.918 51.9283 105.217 51.9283C105.515 51.9283 105.801 51.8097 106.012 51.5988C106.223 51.3878 106.341 51.1017 106.341 50.8034V46.2513H107.703V50.7639C107.703 52.3164 106.651 53.0531 105.217 53.0531C103.783 53.0531 102.73 52.3164 102.73 50.7639V46.2513H104.092ZM110.723 46.8499C111.307 46.3722 112.034 46.1036 112.788 46.0868C113.985 46.0868 114.762 46.7447 114.762 48.205V52.8887H113.4V48.4747C113.4 47.6656 113.124 47.3762 112.361 47.3762C111.834 47.3999 111.324 47.5684 110.887 47.8629V52.8887H109.525V46.2513H110.749L110.723 46.8499ZM120.281 52.0993C120.052 52.39 119.762 52.6263 119.431 52.7913C119.1 52.9562 118.736 53.0457 118.366 53.0531C117.294 53.0531 116.097 52.2243 116.097 49.5864C116.097 46.9486 117.228 46.0868 118.458 46.0868C119.021 46.0957 119.573 46.2377 120.07 46.5013V43.7647L121.432 43.5148V51.4086C121.432 51.7178 121.577 51.8559 121.794 51.8559C122.036 51.8442 122.268 51.7516 122.451 51.5928L122.544 52.5795C122.231 52.8689 121.818 53.0268 121.392 53.0202C121.256 53.0358 121.119 53.0229 120.988 52.9824C120.857 52.9419 120.737 52.8747 120.633 52.785C120.53 52.6953 120.446 52.5851 120.388 52.4614C120.33 52.3377 120.297 52.2032 120.294 52.0664M120.083 47.5669C119.683 47.3328 119.231 47.2038 118.768 47.192C118.11 47.192 117.544 47.6064 117.544 49.4943C117.544 51.1191 118.097 51.7704 118.695 51.7704C118.969 51.7539 119.236 51.6783 119.478 51.5489C119.72 51.4194 119.931 51.2392 120.096 51.0205L120.083 47.5669ZM128.576 49.5996C128.576 51.902 127.622 53.0531 125.839 53.0531C124.057 53.0531 123.09 52.0532 123.09 49.5799C123.09 47.1065 124.05 46.0868 125.839 46.0868C127.628 46.0868 128.576 47.0933 128.576 49.5996ZM124.491 49.5996C124.491 51.3954 124.938 51.9348 125.806 51.9348C126.675 51.9348 127.122 51.3954 127.122 49.6193C127.122 47.8432 126.688 47.2446 125.806 47.2446C124.925 47.2446 124.491 47.7709 124.491 49.5996ZM134.397 49.9417C134.457 51.4744 135.055 51.9151 136.022 51.9151C136.655 51.8873 137.261 51.6567 137.752 51.2573L137.969 52.323C137.32 52.7858 136.544 53.0384 135.746 53.0466C134.095 53.0466 132.97 52.0598 132.97 49.5667C132.97 47.0736 133.957 46.0803 135.654 46.0803C137.351 46.0803 138.055 47.2051 138.055 48.8694V49.9351L134.397 49.9417ZM136.746 48.876C136.746 47.7511 136.417 47.2249 135.628 47.2249C134.838 47.2249 134.47 47.7117 134.404 48.876H136.746ZM140.778 46.8499C141.36 46.3731 142.085 46.1045 142.837 46.0868C144.041 46.0868 144.811 46.7447 144.811 48.205V52.8887H143.449V48.4747C143.449 47.6656 143.173 47.3762 142.41 47.3762C141.883 47.3989 141.373 47.5674 140.936 47.8629V52.8887H139.574V46.2513H140.798L140.778 46.8499ZM150.922 49.9417C150.981 51.4744 151.58 51.9151 152.547 51.9151C153.181 51.8873 153.79 51.6568 154.283 51.2573L154.494 52.323C153.844 52.7858 153.068 53.0384 152.27 53.0466C150.619 53.0466 149.494 52.0598 149.494 49.5667C149.494 47.0736 150.481 46.0803 152.185 46.0803C153.889 46.0803 154.579 47.2051 154.579 48.8694V49.9351L150.922 49.9417ZM153.27 48.876C153.27 47.7511 152.941 47.2249 152.158 47.2249C151.376 47.2249 150.994 47.7117 150.935 48.876H153.27ZM156.618 46.2513L158.276 51.3889L159.862 46.2513H161.23L159.013 52.8887H157.428L155.165 46.2513H156.618ZM167.295 49.5996C167.295 51.902 166.348 53.0531 164.558 53.0531C162.769 53.0531 161.815 52.0532 161.815 49.5799C161.815 47.1065 162.776 46.0868 164.558 46.0868C166.341 46.0868 167.295 47.0933 167.295 49.5996ZM163.21 49.5996C163.21 51.3954 163.664 51.9348 164.558 51.9348C165.453 51.9348 165.874 51.3954 165.874 49.6193C165.874 47.8432 165.433 47.2446 164.558 47.2446C163.683 47.2446 163.21 47.7709 163.21 49.5996ZM170.156 43.5148V51.3625C170.146 51.4277 170.151 51.4943 170.17 51.5573C170.19 51.6204 170.223 51.6782 170.268 51.7264C170.313 51.7746 170.368 51.8119 170.43 51.8354C170.492 51.859 170.558 51.8683 170.623 51.8625C170.912 51.8476 171.191 51.7568 171.433 51.5994L171.571 52.6519C171.152 52.9058 170.673 53.0442 170.183 53.0531C169.071 53.0531 168.795 52.2374 168.795 51.3625V43.7647L170.156 43.5148ZM173.669 46.2513V50.8034C173.669 51.1017 173.788 51.3878 173.999 51.5988C174.21 51.8097 174.496 51.9283 174.794 51.9283C175.092 51.9283 175.378 51.8097 175.589 51.5988C175.8 51.3878 175.919 51.1017 175.919 50.8034V46.2513H177.274V50.7639C177.274 52.3164 176.228 53.0531 174.794 53.0531C173.36 53.0531 172.307 52.3164 172.307 50.7639V46.2513H173.669ZM182.313 48.4879C182.273 47.8301 181.997 47.2249 181.247 47.2249C180.497 47.2249 180.05 47.7051 180.05 49.5799C180.05 51.4546 180.616 51.9151 181.602 51.9151C182.21 51.9053 182.798 51.6948 183.273 51.3165L183.536 52.3295C182.896 52.8006 182.121 53.0541 181.326 53.0531C179.603 53.0531 178.629 51.9677 178.629 49.5667C178.629 47.1657 179.464 46.0934 181.3 46.0934C182.898 46.0934 183.51 47.0801 183.536 48.3629L182.313 48.4879ZM186.372 45.3896H185.01V43.8897H186.372V45.3896ZM186.372 52.915H185.01V46.2513H186.372V52.915ZM193.358 49.5996C193.358 51.902 192.404 53.0531 190.621 53.0531C188.838 53.0531 187.871 52.0532 187.871 49.5799C187.871 47.1065 188.832 46.0868 190.621 46.0868C192.41 46.0868 193.358 47.0933 193.358 49.5996ZM189.266 49.5996C189.266 51.3954 189.72 51.9348 190.621 51.9348C191.522 51.9348 191.937 51.3954 191.937 49.6193C191.937 47.8432 191.496 47.2446 190.621 47.2446C189.746 47.2446 189.266 47.7709 189.266 49.5996ZM192.555 43.5345L191.101 45.508H189.944L191.167 43.5345H192.555ZM196.081 46.8499C196.662 46.3709 197.387 46.102 198.14 46.0868C199.337 46.0868 200.113 46.7447 200.113 48.205V52.8887H198.752V48.4747C198.752 47.6656 198.475 47.3762 197.712 47.3762C197.186 47.3999 196.676 47.5684 196.239 47.8629V52.8887H194.877V46.2513H196.107L196.081 46.8499ZM44.5132 4.84168C44.6053 6.06522 44.6645 9.12408 44.6645 10.2489C44.6645 11.3738 44.6645 14.7221 44.5001 16.2153V16.3338H49.8876C52.5189 16.3338 55.3212 15.4983 55.3212 13.1499C55.3212 11.6764 54.2555 10.5844 52.2623 9.99239C53.7227 9.5977 54.716 8.58467 54.716 7.41375C54.716 5.50608 52.5189 4.78248 50.4599 4.72985H44.5132V4.84168ZM48.6706 6.02576C50.9204 6.02576 51.7558 6.49281 51.7558 7.72292C51.7595 8.03484 51.6523 8.33792 51.4532 8.57809C51.1432 8.86644 50.7725 9.0817 50.3684 9.20805C49.9643 9.33441 49.537 9.36865 49.1179 9.30826H49.0653L48.4075 10.9397H49.0653C49.5923 10.8847 50.1249 10.949 50.6236 11.1278C51.1224 11.3066 51.5745 11.5952 51.9466 11.9724C52.1989 12.2622 52.3369 12.6341 52.3347 13.0184C52.3347 14.334 51.2098 14.9918 48.993 14.9918H47.6313C47.5523 13.2946 47.5523 10.9791 47.5523 10.295C47.5523 9.48588 47.5523 7.66372 47.6379 6.13758C47.9883 6.08492 48.3427 6.06291 48.6969 6.0718M67.7342 4.72985H65.1029L65.2147 7.64399C65.2608 9.09776 65.3068 10.5844 65.4055 12.0251C65.111 11.3717 64.7401 10.7556 64.3004 10.1897C64.3004 10.1437 61.5639 5.94682 60.6166 4.75617H57.5643V4.86142C57.6498 6.08496 57.7156 9.14381 57.7156 10.2687C57.7156 11.2949 57.7156 14.7484 57.5446 16.2351V16.3601H60.2482V16.2417C60.0903 13.3999 60.0903 10.545 60.0903 7.78213C60.2314 8.24146 60.4543 8.67155 60.7482 9.05172C60.7942 9.12408 65.4384 15.9128 65.6752 16.3206V16.3666H67.8526V16.2417C67.6881 14.7484 67.6816 11.3015 67.6816 10.2753C67.6816 9.15039 67.7473 6.09154 67.8329 4.868V4.72985H67.7342ZM70.8785 4.83511C70.9641 6.06522 71.0298 9.1175 71.0298 10.2424C71.0298 11.2686 71.0298 14.7155 70.8588 16.2088V16.3272H74.0755V16.2088C73.9637 15.1431 73.9242 13.1039 73.9111 11.5317H74.957C79.2065 11.5317 81.2655 10.3937 81.2655 8.03868C81.2655 5.3482 78.3711 4.74959 75.9503 4.67723H70.8917L70.8785 4.83511ZM74.8255 6.15074C76.3319 6.15074 77.3975 6.44018 77.904 7.06511C78.1391 7.36729 78.2622 7.7415 78.2527 8.12419C78.2527 9.80163 76.3779 10.1568 74.7991 10.1568H74.1413L73.8848 10.1174V8.65045C73.8848 7.90711 73.8848 7.05853 73.9242 6.24941C74.2204 6.20315 74.5192 6.17678 74.8189 6.17048M87.4029 4.83511C87.495 6.06522 87.5542 9.1175 87.5542 10.2424C87.5542 11.2686 87.5542 14.7155 87.3832 16.2088V16.3272H90.6131V16.2088C90.5078 15.1431 90.4618 13.1039 90.4486 11.5317H91.4945C95.7375 11.5317 97.8096 10.3937 97.8096 8.03868C97.8096 5.3482 94.9152 4.74959 92.4878 4.67723H87.4292L87.4029 4.83511ZM91.3498 6.15074C92.8562 6.15074 93.9219 6.44018 94.435 7.06511C94.6653 7.36941 94.7858 7.74268 94.7771 8.12419C94.7771 9.80163 92.9023 10.1568 91.3235 10.1568H90.6657L90.4157 10.1174V8.64387C90.4157 7.90054 90.4157 7.05853 90.4552 6.24941C90.7513 6.20346 91.0502 6.17709 91.3498 6.17048M102.092 4.72985H102.033V4.79564C101.434 6.44018 97.5794 14.88 96.9807 16.1759L96.9018 16.3338H99.6646V16.268C99.908 15.4786 100.217 14.5774 100.579 13.6038L102.862 13.5709H105.157C105.657 14.8208 106.026 15.768 106.19 16.2417V16.3009H109.394L104.25 4.72985H102.092ZM102.875 8.15051C103.131 8.68992 103.796 10.2489 104.539 12.0974H101.178C101.776 10.6239 102.368 9.29511 102.875 8.15051ZM110.69 4.83511C110.769 6.05865 110.841 9.1175 110.841 10.2424C110.841 11.2686 110.841 14.7221 110.663 16.2088V16.3338H113.893V16.2088C113.729 14.7155 113.722 11.2686 113.722 10.2424C113.722 9.43983 113.755 7.6111 113.814 6.19021C114.077 6.15732 114.439 6.13101 114.683 6.12443C116.189 6.09154 117.255 6.41387 117.761 7.03879C117.997 7.3379 118.121 7.71044 118.11 8.0913C118.11 9.40694 116.853 10.1042 115.683 10.17C115.463 10.1803 115.242 10.1693 115.025 10.1371L114.808 10.0976L114.946 10.3016C116.077 11.979 117.794 14.9063 118.518 16.2877V16.3338H121.971L121.866 16.1627C121.748 15.972 119.485 12.65 118.524 11.2291L118.458 11.1436C120.215 10.6107 121.09 9.61086 121.09 8.0913C121.09 5.40083 118.195 4.80221 115.768 4.72985H110.709L110.69 4.83511ZM126.523 4.7167H123.451V4.82853C123.537 6.05865 123.603 9.1175 123.603 10.2424C123.603 11.262 123.603 14.7089 123.432 16.2022V16.3206H126.655V16.2022C126.497 14.7089 126.484 11.262 126.484 10.2424C126.484 9.1175 126.55 6.05865 126.635 4.82853V4.7167H126.523ZM129.536 4.84168C129.628 6.06522 129.687 9.12408 129.687 10.2489C129.687 11.3738 129.687 14.7221 129.516 16.2153V16.3338H134.897C137.529 16.3338 140.337 15.4983 140.337 13.1499C140.337 11.6764 139.272 10.5844 137.279 9.99239C138.739 9.5977 139.732 8.58467 139.732 7.41375C139.732 5.50608 137.542 4.78248 135.476 4.72985H129.556L129.536 4.84168ZM133.694 6.02576C135.943 6.02576 136.779 6.49281 136.779 7.72292C136.782 8.03484 136.675 8.33792 136.476 8.57809C136.165 8.86831 135.792 9.08465 135.385 9.21106C134.979 9.33747 134.549 9.37069 134.128 9.30826H134.068L133.457 10.9397H134.082C134.605 10.8877 135.134 10.9535 135.629 11.1322C136.124 11.3109 136.573 11.598 136.943 11.9724C137.193 12.2637 137.331 12.6346 137.331 13.0184C137.331 14.334 136.206 14.9918 133.996 14.9918H132.628C132.549 13.2946 132.549 10.9791 132.549 10.295C132.549 9.4793 132.549 7.66372 132.641 6.13758C132.989 6.08467 133.341 6.06265 133.694 6.0718M148.251 4.7167H146.08V4.78248C145.422 6.53227 141.364 15.4325 141.028 16.1693L140.949 16.3206H143.719V16.2548C143.955 15.4654 144.271 14.5642 144.633 13.5907L146.916 13.5578H149.211C149.711 14.8142 150.08 15.7549 150.238 16.2285V16.2877H153.441L148.297 4.7167H148.251ZM146.935 8.13735C147.199 8.68334 147.85 10.2358 148.606 12.0843H146.935L145.245 12.0514C145.837 10.5779 146.429 9.25564 146.935 8.10446M154.369 7.7295C154.369 9.76874 156.421 10.5976 158.23 11.3343C159.638 11.9001 161.085 12.4921 161.085 13.4591C161.099 13.7152 161.02 13.9676 160.861 14.1695C160.526 14.5708 159.835 14.7418 158.743 14.6892C157.481 14.5821 156.25 14.2338 155.119 13.663L154.553 13.4065V15.9391L154.915 16.018L155.138 16.0641C156.213 16.3496 157.316 16.5085 158.427 16.5377C161.822 16.5377 163.854 15.1826 163.854 12.9328C163.854 10.841 161.756 10.0056 159.908 9.2688C158.546 8.72281 157.132 8.15708 157.132 7.29534C157.132 7.03222 157.132 6.25599 158.881 6.25599C160.02 6.31522 161.136 6.59212 162.17 7.07169L162.828 7.34797V4.7759L162.17 4.65749C161.221 4.45232 160.254 4.33779 159.283 4.31543C156.342 4.31543 154.369 5.69027 154.369 7.7295ZM52.611 22.3988C51.9651 22.0045 51.2232 21.7951 50.4665 21.7936C47.8352 21.7936 46.9537 23.8592 46.9537 25.6287C46.9537 28.0824 48.4601 29.3191 50.4862 29.3191C51.634 29.2848 52.7255 28.8143 53.5385 28.0034V30.1282C52.421 30.5799 51.2244 30.8036 50.0192 30.786C46.3749 30.786 44.0988 28.5165 44.0988 25.6287C44.0988 22.5896 46.5064 20.3662 50.4862 20.3662C51.401 20.3758 52.3111 20.4973 53.1964 20.728L52.611 22.3988ZM61.4126 20.5306C61.8007 21.5634 65.1029 28.9178 65.8791 30.5821H63.1097C62.9518 30.1216 62.6164 29.2664 62.1888 28.2139H58.2419C57.9195 29.0559 57.663 29.8322 57.4328 30.5821H54.9988C55.5711 29.3322 58.9457 22.0305 59.4786 20.5306H61.4126ZM61.6559 26.8917L60.2219 23.4908C59.7614 24.4644 59.2615 25.6156 58.7287 26.8917H61.6559ZM72.01 20.5306C74.1216 20.5306 76.6147 21.1227 76.6147 23.4448C76.6147 24.7604 75.8582 25.6287 74.3452 26.076C75.2884 27.6285 76.3093 29.1325 77.4041 30.5821H74.4044C73.7466 29.3322 72.2534 26.8062 71.1614 25.1682C71.4166 25.2216 71.677 25.2459 71.9376 25.2406C72.8125 25.2406 74.0426 24.5828 74.0426 23.4448C74.0426 21.9976 72.2929 21.7344 71.4114 21.7344C71.0466 21.7343 70.6821 21.7541 70.3194 21.7936C70.2602 23.0435 70.2339 24.6091 70.2339 25.313C70.2339 26.201 70.2339 29.1744 70.3918 30.5755H67.596C67.7342 29.1809 67.7671 27.3851 67.7671 25.313C67.7671 23.5632 67.7671 21.4647 67.6224 20.5306H72.01ZM83.1732 20.5306C87.4095 20.5306 89.0277 22.7541 89.0277 25.5432C89.0277 28.3323 87.449 30.5821 83.0153 30.5821H79.2855C79.4236 29.2336 79.4236 27.3785 79.4236 25.3195C79.4236 24.346 79.4236 21.8331 79.2855 20.5241L83.1732 20.5306ZM82.0088 21.7936C81.9496 22.4515 81.9365 24.1618 81.9365 25.3261C81.9365 26.7931 81.9365 27.9574 81.9957 29.273C82.2338 29.2987 82.4732 29.3119 82.7127 29.3125C85.14 29.3125 86.403 28.5494 86.403 25.4643C86.403 22.5238 85.0874 21.6884 82.6535 21.7476L82.0088 21.7936ZM94.1916 20.5306C94.1061 21.695 94.0469 24.3328 94.0469 25.3261C94.0469 26.201 94.0469 29.1875 94.1916 30.5887H91.4025C91.5472 29.1941 91.5603 26.2076 91.5603 25.3261C91.5603 24.4446 91.5011 21.695 91.4353 20.5306H94.1916ZM104.842 20.5306V21.9844C104.052 21.9384 102.085 21.8792 101.428 21.8792C100.941 21.8792 100.395 21.8792 99.8357 21.9252C99.7896 22.5436 99.7765 23.3198 99.7765 23.9908V24.8656L103.283 24.813V26.372L99.7699 26.2339C99.7699 27.5101 99.7699 29.4901 99.9278 30.5821H97.1386C97.3162 29.1875 97.3162 26.201 97.3162 25.3195C97.3162 24.4381 97.2439 21.6884 97.1518 20.5241L104.842 20.5306Z" fill="white"/>
</g>
<defs>
<linearGradient id="paint0_linear_138_8553" x1="18.0037" y1="-0.805827" x2="18.0037" y2="36.2096" gradientUnits="userSpaceOnUse">
<stop stop-color="#43774F"/>
<stop offset="0.6" stop-color="#9FC8AD"/>
<stop offset="1" stop-color="#549462"/>
</linearGradient>
<linearGradient id="paint1_linear_138_8553" x1="18.5377" y1="-8.72942" x2="18.5377" y2="32.871" gradientUnits="userSpaceOnUse">
<stop stop-color="#549462"/>
<stop offset="0.3" stop-color="#9FC8AD"/>
<stop offset="0.55" stop-color="#549462"/>
<stop offset="0.84" stop-color="#43774F"/>
<stop offset="0.89" stop-color="#488057"/>
<stop offset="0.98" stop-color="#56986E"/>
<stop offset="1" stop-color="#599D73"/>
</linearGradient>
<linearGradient id="paint2_linear_138_8553" x1="24.9291" y1="30.5554" x2="24.9291" y2="3.63749" gradientUnits="userSpaceOnUse">
<stop stop-color="#5EA77E"/>
<stop offset="1" stop-color="#549462"/>
</linearGradient>
<linearGradient id="paint3_linear_138_8553" x1="8.38738" y1="30.539" x2="8.38738" y2="3.61455" gradientUnits="userSpaceOnUse">
<stop stop-color="#5EA77E"/>
<stop offset="1" stop-color="#549462"/>
</linearGradient>
<linearGradient id="paint4_linear_138_8553" x1="13.2149" y1="30.5786" x2="13.2149" y2="3.66727" gradientUnits="userSpaceOnUse">
<stop stop-color="#5EA77E"/>
<stop offset="1" stop-color="#549462"/>
</linearGradient>
<linearGradient id="paint5_linear_138_8553" x1="17.9413" y1="30.5558" x2="17.9413" y2="3.63794" gradientUnits="userSpaceOnUse">
<stop stop-color="#5EA77E"/>
<stop offset="1" stop-color="#549462"/>
</linearGradient>
<clipPath id="clip0_138_8553">
<rect width="199.648" height="56" fill="white" transform="translate(0.439453)"/>
</clipPath>
</defs>
</svg>
