<svg width="91" height="56" viewBox="0 0 91 56" fill="none"
	xmlns="http://www.w3.org/2000/svg">
	<path d="M4.39551 44.1787H88.4456V44.4793H4.39551V44.1787ZM6.09855 52.9444H8.85347V54.3469H4.39551V46.7333H6.09855V52.9444ZM17.2184 46.7333H15.4653L12.6102 54.3469H14.3633L14.9143 52.6438H17.7193L18.2703 54.3469H20.0234L17.2184 46.7333ZM15.315 51.4417L16.0163 49.388L16.1665 48.9372L16.3168 48.3361C16.3669 48.5365 16.417 48.7369 16.4671 48.8871C16.5172 49.0875 16.5672 49.1877 16.6173 49.3379L17.3186 51.4417H15.315ZM40.3096 46.7333H38.5565L35.7014 54.3469H37.5046L38.0556 52.6438H40.8606L41.3114 53.9462C41.3114 53.9962 41.3615 53.9962 41.3615 53.9962L41.4617 54.2968H43.2148L40.3096 46.7333ZM38.4563 51.4417L39.1576 49.388L39.3078 48.9372L39.4581 48.3361C39.5082 48.5365 39.5583 48.7369 39.6084 48.8871C39.6585 49.0875 39.7086 49.1877 39.7587 49.3379L40.4599 51.4417H38.4563ZM64.3526 46.7333H62.5994L59.7443 54.3469H61.4975L62.0485 52.6438H64.8535L65.4044 54.3469H67.1576L64.3526 46.7333ZM62.4993 51.4417L63.2005 49.388L63.3508 48.9372L63.501 48.3361C63.5511 48.5365 63.6012 48.7369 63.6513 48.8871C63.7014 49.0875 63.7515 49.1877 63.8016 49.3379L64.5028 51.4417H62.4993ZM85.6406 46.7333H83.8875L81.0324 54.3469H82.7855L83.3365 52.6438H86.1415L86.6925 54.3469H88.4456L85.6406 46.7333ZM83.7372 51.4417L84.4384 49.388L84.5887 48.9372L84.739 48.3361C84.7891 48.5365 84.8391 48.7369 84.8892 48.8871C84.9393 49.0875 84.9894 49.1877 85.0395 49.3379L85.7408 51.4417H83.7372ZM31.0932 52.2431L30.8427 52.4435L30.7926 52.4936C30.6925 52.5937 30.5923 52.6438 30.4921 52.6939L30.1916 52.8442C30.0914 52.8943 29.9912 52.8943 29.8409 52.9444C29.6907 52.9945 29.5905 52.9945 29.3901 52.9945C29.1397 52.9945 28.8892 52.9444 28.6388 52.8442C28.3884 52.744 28.188 52.5937 28.0377 52.3934C27.8374 52.193 27.7372 51.9426 27.637 51.642C27.5368 51.3415 27.4867 50.9909 27.4867 50.5902C27.4867 50.1894 27.5368 49.8889 27.637 49.5884C27.7372 49.2878 27.8875 49.0374 28.0878 48.837C28.2882 48.6367 28.4885 48.4363 28.739 48.3361C28.9894 48.236 29.29 48.1859 29.5905 48.1859C29.7909 48.1859 29.891 48.236 30.0413 48.236C30.1916 48.286 30.2917 48.286 30.3919 48.3361C30.4921 48.3862 30.5923 48.4363 30.6424 48.4864C30.7426 48.5365 30.7926 48.5866 30.8427 48.6367C30.8928 48.6367 30.8928 48.6868 30.8928 48.6868L31.2434 48.9873L31.4939 48.5866L32.0449 47.7852C31.8946 47.6349 31.7443 47.4846 31.544 47.3844C31.3436 47.2342 31.1433 47.1841 30.9429 47.0839C30.7426 46.9837 30.4921 46.9336 30.2417 46.8835C29.9912 46.8335 29.7408 46.7834 29.4402 46.7834C28.8892 46.7834 28.3383 46.8835 27.8875 47.0839C27.4367 47.2843 27.0359 47.5347 26.6853 47.8853C26.3347 48.236 26.0842 48.6367 25.8839 49.0875C25.6835 49.5884 25.6334 50.0893 25.6334 50.6402C25.6334 51.1912 25.7336 51.7422 25.8839 52.193C26.0341 52.6939 26.2846 53.0946 26.5851 53.3952C26.8857 53.7458 27.2864 53.9962 27.7372 54.1966C28.188 54.397 28.6889 54.4971 29.2399 54.4971C29.8409 54.4971 30.3919 54.397 30.8427 54.1966C31.2935 53.9962 31.6442 53.7458 31.8946 53.3451L31.9447 53.295L31.0932 52.2431ZM54.6853 46.7333H53.8338L53.6835 47.0839L51.8302 50.8406C51.7801 50.9909 51.6799 51.0911 51.6299 51.2914C51.5798 51.4417 51.4796 51.592 51.4295 51.7422C51.3794 51.592 51.3293 51.4417 51.2291 51.2914C51.179 51.1411 51.0789 51.041 51.0288 50.8907L49.2256 47.0839L49.0753 46.7834H47.2721V54.397H48.7748V49.7386C48.7748 49.6385 48.7247 49.4882 48.7247 49.388L50.6782 53.295L50.8785 53.6456H51.9805L52.1808 53.2449L52.5315 52.5437L52.6316 52.3433L54.1343 49.388C54.0842 49.6385 54.0842 49.8889 54.0842 50.0893V54.447H55.5869V46.7333H54.6853ZM75.8231 51.6921C75.7229 51.5419 75.6728 51.4417 75.5726 51.3916C75.4724 51.2914 75.3722 51.2413 75.2721 51.1912C75.5225 51.0911 75.7229 50.9909 75.8731 50.8406C76.0735 50.6903 76.2238 50.5401 76.3239 50.3397C76.4742 50.1394 76.5243 49.939 76.6245 49.7386C76.6746 49.5383 76.7247 49.2878 76.7247 49.0374C76.7247 48.7369 76.6746 48.4363 76.5744 48.1358C76.4742 47.8352 76.3239 47.6349 76.0735 47.4345C75.8231 47.2342 75.5225 47.0839 75.1719 46.9837C74.7712 46.8835 74.3204 46.8335 73.8195 46.8335H71.4152V54.447H73.1182V51.5919H73.569C73.7193 51.5919 73.8195 51.642 73.8696 51.642C73.9697 51.6921 74.0198 51.7422 74.0699 51.8424L74.7211 52.9945V53.0445L75.2721 54.0463C75.2721 54.0964 75.3222 54.0964 75.3222 54.0964L75.4724 54.3469H77.4259L75.8231 51.6921ZM73.7193 50.3397H73.018V48.0857H73.7193C74.1701 48.0857 74.4706 48.1859 74.671 48.3361C74.8713 48.5365 74.9715 48.7869 74.9715 49.1376C74.9715 49.2878 74.9214 49.4381 74.8714 49.5884C74.8213 49.7386 74.7211 49.8388 74.671 49.9891C74.5708 50.0893 74.4205 50.1894 74.2703 50.2395C74.1701 50.2896 73.9697 50.3397 73.7193 50.3397Z" fill="black"/>
	<path d="M20.5744 32.8084V26.0964C15.8159 25.1447 12.3096 21.4381 12.3096 17.5812C12.3096 13.9748 15.7157 10.168 20.5744 9.26639V2.60449C10.4563 3.55619 4.39551 10.6689 4.39551 17.6814C4.39551 24.9945 10.857 31.8066 20.5744 32.8084Z" fill="#C12A21"/>
	<path d="M88.4452 32.8084V26.0964C83.6867 25.1447 80.1804 21.4381 80.1804 17.5812C80.1804 13.9748 83.5865 10.168 88.4452 9.26639V2.60449C78.3271 3.55619 72.3164 10.719 72.3164 17.6814C72.3164 24.9945 78.7779 31.8066 88.4452 32.8084Z" fill="#456091"/>
	<path d="M50.0768 26.948C50.6278 25.8461 50.8783 24.6439 50.8783 23.3917C50.8783 21.6386 50.3273 20.1359 49.1752 18.6833C48.0232 17.2808 46.6707 16.279 45.0178 15.6278C43.3648 15.0268 40.7602 14.3756 37.2038 13.7745C35.1001 13.4239 33.6976 12.9731 33.0965 12.4722C32.4954 11.9713 32.1949 11.3702 32.1949 10.669C32.1949 8.86575 33.7978 7.96414 37.0035 7.96414C38.957 7.96414 40.5097 8.46504 41.6117 9.51692H49.8765C47.9731 4.8586 43.5652 2.50439 36.753 2.50439C32.9462 2.50439 29.8908 3.406 27.6368 5.25931C25.3827 7.11262 24.2808 9.36665 24.2808 12.0214C24.2808 14.626 25.2325 16.6296 27.0858 17.982C28.9892 19.3344 32.1448 20.4364 36.5527 21.1878C38.957 21.6386 40.5097 22.0393 41.3613 22.5402C42.2128 23.0411 42.6135 23.6922 42.6135 24.5938C42.6135 25.4454 42.1627 26.1967 41.211 26.7978C41.1609 26.8479 41.0607 26.898 41.0106 26.898C41.0106 26.898 40.109 27.5491 36.9534 27.5491C33.7978 27.5491 32.8961 26.898 32.8961 26.898C31.9444 26.4472 31.1931 25.796 30.6922 24.9946H22.4775C22.6779 25.6958 22.9283 26.2969 23.2289 26.898C23.2289 26.898 26.7852 32.8085 36.9534 32.8085C47.0715 32.9087 50.0768 26.948 50.0768 26.948Z" fill="#C12A21"/>
	<path d="M61.3476 26.2969V2.50439H53.6338V32.8586H72.3172V26.2969H61.3476Z" fill="#456091"/>
	<path d="M12.1594 40.3222C12.1594 40.5726 12.1093 40.773 12.0592 40.9733C11.959 41.1737 11.8588 41.3741 11.7587 41.4742C11.6084 41.6245 11.4581 41.7247 11.2578 41.8249C11.0574 41.925 10.857 41.9751 10.6066 41.9751C10.3562 41.9751 10.1558 41.925 9.95544 41.8249C9.75508 41.7247 9.55472 41.6245 9.45454 41.4742C9.30427 41.324 9.20409 41.1737 9.15401 40.9733C9.05383 40.773 9.05383 40.5726 9.05383 40.3222C9.05383 40.0717 9.10392 39.8714 9.15401 39.671C9.25418 39.4707 9.35436 39.2703 9.45454 39.1701C9.60481 39.0199 9.75508 38.9197 9.95544 38.8195C10.1558 38.7193 10.3562 38.6692 10.6066 38.6692C10.857 38.6692 11.0574 38.7193 11.2578 38.8195C11.4581 38.9197 11.6585 39.0199 11.7587 39.1701C11.9089 39.3204 12.0091 39.4707 12.0592 39.671C12.1093 39.8714 12.1594 40.0717 12.1594 40.3222ZM11.5082 40.3222C11.5082 40.1719 11.4581 40.0216 11.408 39.8714C11.3579 39.7211 11.3079 39.6209 11.2077 39.5208C11.1075 39.4206 11.0073 39.3705 10.9071 39.3204C10.7569 39.2703 10.6567 39.2202 10.4563 39.2202C10.3061 39.2202 10.1558 39.2703 10.0055 39.3204C9.85526 39.3705 9.75508 39.4707 9.70499 39.5208C9.60481 39.6209 9.55472 39.7211 9.50463 39.8714C9.45454 40.0216 9.40445 40.1719 9.40445 40.3222C9.40445 40.4725 9.45454 40.6227 9.50463 40.773C9.55472 40.9233 9.60481 41.0234 9.70499 41.1236C9.80517 41.2238 9.90535 41.2739 10.0055 41.324C10.1558 41.3741 10.256 41.4241 10.4563 41.4241C10.6066 41.4241 10.7569 41.3741 10.9071 41.324C11.0574 41.2739 11.1075 41.1737 11.2077 41.1236C11.3079 41.0234 11.3579 40.9233 11.408 40.773C11.5082 40.6728 11.5082 40.4725 11.5082 40.3222ZM14.764 40.6728V41.925H14.1629V38.7193H15.1146C15.315 38.7193 15.5154 38.7694 15.6656 38.7694C15.8159 38.8195 15.9161 38.8696 16.0663 38.9698C16.1665 39.0699 16.2166 39.1701 16.2667 39.2703C16.3168 39.3705 16.3669 39.5207 16.3669 39.671C16.3669 39.7712 16.3168 39.8714 16.3168 39.9716C16.2667 40.0717 16.2166 40.1719 16.1665 40.222C16.1164 40.3222 16.0163 40.3723 15.9662 40.4224L15.6656 40.5726C15.7658 40.6227 15.8159 40.6728 15.866 40.773L16.6674 41.925H15.9662L15.2148 40.773L15.1146 40.6728C15.0646 40.6227 15.0145 40.6227 14.9644 40.6227H14.764V40.6728ZM14.764 40.2721H15.1647C15.2649 40.2721 15.3651 40.222 15.4653 40.222C15.5655 40.1719 15.6155 40.1719 15.6656 40.1218C15.7157 40.0717 15.7658 40.0216 15.7658 39.9716C15.8159 39.8714 15.8159 39.8213 15.8159 39.7712C15.8159 39.6209 15.7658 39.4707 15.6656 39.3705C15.5655 39.2703 15.4152 39.2202 15.1647 39.2202H14.764V40.2721ZM24.9823 38.7193V39.1701H23.5798V40.0717H24.6817V40.5726H23.5798V41.4742H24.9823V41.925H22.9787V38.7193H24.9823ZM29.891 40.3222C29.891 40.5726 29.8409 40.773 29.7909 40.9733C29.6907 41.1737 29.5905 41.324 29.4903 41.4742C29.34 41.6245 29.1898 41.7247 28.9894 41.7748C28.7891 41.875 28.5887 41.875 28.3383 41.875H27.1361V38.6692H28.3383C28.5887 38.6692 28.7891 38.7193 28.9894 38.7694C29.1898 38.8696 29.3901 38.9698 29.4903 39.0699C29.6406 39.2202 29.7408 39.3705 29.7909 39.5708C29.8409 39.8714 29.891 40.0717 29.891 40.3222ZM29.29 40.3222C29.29 40.1719 29.2399 40.0216 29.1898 39.8714C29.1397 39.7211 29.0896 39.6209 28.9894 39.5208C28.8892 39.4206 28.7891 39.3705 28.6889 39.3204C28.5386 39.2703 28.4384 39.2202 28.2381 39.2202H27.637V41.4742H28.2381C28.3883 41.4742 28.5386 41.4241 28.6889 41.3741C28.8392 41.324 28.8892 41.2238 28.9894 41.1737C29.0896 41.0735 29.1397 40.9733 29.1898 40.8231C29.2399 40.6728 29.29 40.4725 29.29 40.3222ZM34.9501 40.3222C34.9501 40.5726 34.9 40.773 34.8499 40.9733C34.7497 41.1737 34.6495 41.3741 34.5494 41.4742C34.3991 41.6245 34.2488 41.7247 34.0485 41.8249C33.8481 41.925 33.6477 41.9751 33.3973 41.9751C33.1468 41.9751 32.9465 41.925 32.7461 41.8249C32.5458 41.7247 32.3454 41.6245 32.2452 41.4742C32.095 41.324 31.9948 41.1737 31.9447 40.9733C31.8445 40.773 31.8445 40.5726 31.8445 40.3222C31.8445 40.0717 31.8946 39.8714 31.9447 39.671C31.9948 39.4707 32.1451 39.2703 32.2452 39.1701C32.3955 39.0199 32.5458 38.9197 32.7461 38.8195C32.9465 38.7193 33.1468 38.6692 33.3973 38.6692C33.6477 38.6692 33.8481 38.7193 34.0485 38.8195C34.2488 38.9197 34.4492 39.0199 34.5494 39.1701C34.6996 39.3204 34.7998 39.4707 34.8499 39.671C34.9 39.8714 34.9501 40.0717 34.9501 40.3222ZM34.349 40.3222C34.349 40.1719 34.2989 40.0216 34.2488 39.8714C34.1987 39.7211 34.1486 39.6209 34.0485 39.5208C33.9483 39.4206 33.8481 39.3705 33.7479 39.3204C33.5977 39.2703 33.4975 39.2202 33.2971 39.2202C33.1469 39.2202 32.9966 39.2703 32.8964 39.3204C32.7461 39.3705 32.646 39.4707 32.5959 39.5208C32.4957 39.6209 32.4456 39.7211 32.3955 39.8714C32.3454 40.0216 32.2953 40.1719 32.2953 40.3222C32.2953 40.4725 32.3454 40.6227 32.3955 40.773C32.4456 40.9233 32.4957 41.0234 32.5959 41.1236C32.696 41.2238 32.7962 41.2739 32.8964 41.324C33.0467 41.3741 33.1469 41.4241 33.2971 41.4241C33.4474 41.4241 33.5977 41.3741 33.7479 41.324C33.8982 41.2739 33.9483 41.1737 34.0485 41.1236C34.1486 41.0234 34.1987 40.9233 34.2488 40.773C34.2989 40.6728 34.349 40.4725 34.349 40.3222ZM44.2166 41.925H43.6155L43.315 41.1236H42.0127L41.6621 41.925H41.061L42.3132 38.7193H42.9143L44.2166 41.925ZM42.1129 40.7229H43.1647L42.764 39.671C42.7139 39.6209 42.7139 39.5708 42.7139 39.5208C42.7139 39.4707 42.6638 39.3705 42.6638 39.2703C42.6138 39.3705 42.6138 39.4206 42.6138 39.4707C42.5637 39.5208 42.5637 39.5708 42.5637 39.6209L42.1129 40.7229ZM51.2792 40.3222C51.2792 40.5726 51.2291 40.773 51.179 40.9733C51.0789 41.1737 50.9787 41.324 50.8785 41.4742C50.7282 41.6245 50.578 41.7247 50.3776 41.7748C50.1773 41.875 49.9769 41.875 49.7265 41.875H48.5243V38.6692H49.6764C49.9268 38.6692 50.1272 38.7193 50.3275 38.7694C50.5279 38.8696 50.7282 38.9698 50.8284 39.0699C50.9787 39.2202 51.0789 39.3705 51.129 39.5708C51.2291 39.8714 51.2792 40.0717 51.2792 40.3222ZM50.6782 40.3222C50.6782 40.1719 50.6281 40.0216 50.578 39.8714C50.5279 39.7211 50.4778 39.6209 50.3776 39.5208C50.2774 39.4206 50.1773 39.3705 50.0771 39.3204C49.9268 39.2703 49.8266 39.2202 49.6263 39.2202H49.0252V41.4742H49.6263C49.7765 41.4742 49.9268 41.4241 50.0771 41.3741C50.2273 41.324 50.2774 41.2238 50.3776 41.1737C50.4778 41.0735 50.5279 40.9733 50.578 40.8231C50.6281 40.6728 50.6782 40.4725 50.6782 40.3222ZM55.2864 38.7193V39.1701H53.8839V40.0717H54.9858V40.5726H53.8839V41.4742H55.2864V41.925H53.2828V38.7193H55.2864ZM65.6549 38.7193V39.1701H64.2524V40.0717H65.3544V40.5726H64.2524V41.4742H65.6549V41.925H63.6513V38.7193H65.6549ZM73.7193 41.4241C73.8195 41.4241 73.9197 41.3741 74.0198 41.3741C74.12 41.324 74.1701 41.2739 74.2202 41.2238C74.2703 41.1236 74.3204 41.0735 74.3705 40.9733C74.4205 40.8732 74.4205 40.773 74.4205 40.6728V38.7694H75.0216V40.6728C75.0216 40.8732 74.9715 41.0234 74.9214 41.1737C74.8713 41.324 74.7712 41.4742 74.671 41.5744C74.5708 41.6746 74.4205 41.7748 74.2703 41.8249C74.12 41.875 73.9197 41.925 73.7193 41.925C73.5189 41.925 73.3186 41.875 73.1683 41.8249C73.018 41.7748 72.8678 41.6746 72.7676 41.5744C72.6674 41.4742 72.5672 41.324 72.5172 41.1737C72.4671 41.0234 72.417 40.8732 72.417 40.6728V38.7694H73.018V40.6728C73.018 40.8231 73.0681 40.9233 73.0681 40.9733C73.1182 41.0735 73.1683 41.1737 73.2184 41.2238C73.2685 41.324 73.3687 41.3741 73.4188 41.3741C73.5189 41.4241 73.6191 41.4241 73.7193 41.4241ZM84.5887 40.3222C84.5887 40.5726 84.5386 40.773 84.4885 40.9733C84.3883 41.1737 84.2882 41.3741 84.188 41.4742C84.0377 41.6245 83.8874 41.7247 83.6871 41.8249C83.4867 41.925 83.2864 41.9751 83.0359 41.9751C82.7855 41.9751 82.5851 41.925 82.3848 41.8249C82.1844 41.7247 81.9841 41.6245 81.8839 41.4742C81.7336 41.324 81.6334 41.1737 81.5833 40.9733C81.4832 40.773 81.4832 40.5726 81.4832 40.3222C81.4832 40.0717 81.5332 39.8714 81.5833 39.671C81.6334 39.4707 81.7837 39.2703 81.8839 39.1701C82.0341 39.0199 82.1844 38.9197 82.3848 38.8195C82.5851 38.7193 82.7855 38.6692 83.0359 38.6692C83.2864 38.6692 83.4867 38.7193 83.6871 38.8195C83.8874 38.9197 84.0878 39.0199 84.188 39.1701C84.3382 39.3204 84.4384 39.4707 84.4885 39.671C84.5386 39.8714 84.5887 40.0717 84.5887 40.3222ZM83.9375 40.3222C83.9375 40.1719 83.8875 40.0216 83.8374 39.8714C83.7873 39.7211 83.7372 39.6209 83.637 39.5208C83.5368 39.4206 83.4366 39.3705 83.3365 39.3204C83.1862 39.2703 83.086 39.2202 82.8857 39.2202C82.7354 39.2202 82.5851 39.2703 82.4349 39.3204C82.2846 39.3705 82.1844 39.4707 82.1343 39.5208C82.0341 39.6209 81.984 39.7211 81.934 39.8714C81.8839 40.0216 81.8338 40.1719 81.8338 40.3222C81.8338 40.4725 81.8839 40.6227 81.934 40.773C81.984 40.9233 82.0341 41.0234 82.1343 41.1236C82.2345 41.2238 82.3347 41.2739 82.4349 41.324C82.5851 41.3741 82.6853 41.4241 82.8857 41.4241C83.0359 41.4241 83.1862 41.3741 83.3365 41.324C83.4867 41.2739 83.5368 41.1737 83.637 41.1236C83.7372 41.0234 83.7873 40.9233 83.8374 40.773C83.9375 40.6728 83.9375 40.4725 83.9375 40.3222ZM6.64953 41.1737C6.59944 41.2238 6.54935 41.2739 6.49926 41.2739C6.44917 41.324 6.39909 41.324 6.349 41.3741C6.29891 41.4241 6.24882 41.4241 6.14864 41.4241H5.94828C5.79801 41.4241 5.69783 41.3741 5.54756 41.324C5.44739 41.2739 5.34721 41.1737 5.24703 41.1236C5.14685 41.0234 5.09676 40.9233 5.04667 40.773C4.99658 40.6227 4.94649 40.4725 4.94649 40.2721C4.94649 40.1218 4.99658 39.9716 5.04667 39.8213C5.09676 39.671 5.14685 39.5708 5.24703 39.4707C5.34721 39.3705 5.44739 39.3204 5.54756 39.2703C5.69783 39.2202 5.79801 39.1701 5.94828 39.1701C6.09855 39.1701 6.19873 39.1701 6.24882 39.2202C6.349 39.2703 6.39909 39.2703 6.44917 39.3204C6.49926 39.3705 6.54935 39.3705 6.59944 39.4206L6.74971 39.5208L7.05025 39.12C6.89998 38.9698 6.7998 38.9197 6.59944 38.8195C6.39909 38.7193 6.19873 38.7193 5.99837 38.7193C5.79801 38.7193 5.54756 38.7694 5.29712 38.8195C5.09676 38.9197 4.8964 39.0199 4.79622 39.12C4.64595 39.2703 4.54578 39.4206 4.49569 39.6209C4.39551 39.8213 4.39551 40.0216 4.39551 40.2721C4.39551 40.5225 4.4456 40.7229 4.49569 40.9233C4.59587 41.1236 4.64595 41.324 4.79622 41.4241C4.94649 41.5744 5.09676 41.6746 5.29712 41.7247C5.49748 41.8249 5.69783 41.875 5.94828 41.875C6.19873 41.875 6.44917 41.8249 6.64953 41.7247C6.84989 41.6245 7.00016 41.5243 7.15043 41.324L6.84989 40.9733L6.64953 41.1737ZM19.1719 40.6728V41.925H18.5708V38.7193H19.5225C19.7229 38.7193 19.9232 38.7694 20.0735 38.7694C20.2238 38.8195 20.3239 38.8696 20.4742 38.9698C20.5744 39.0699 20.6245 39.1701 20.6746 39.2703C20.7247 39.3705 20.7748 39.5207 20.7748 39.671C20.7748 39.7712 20.7247 39.8714 20.7247 39.9716C20.6746 40.0717 20.6245 40.1719 20.5744 40.222C20.5243 40.3222 20.4241 40.3723 20.374 40.4224L20.0735 40.5726C20.1737 40.6227 20.2238 40.6728 20.2739 40.773L21.0753 41.925H20.374L19.6227 40.773L19.5225 40.6728C19.4724 40.6227 19.4223 40.6227 19.3723 40.6227H19.1719V40.6728ZM19.1719 40.2721H19.5726C19.6728 40.2721 19.773 40.222 19.8731 40.222C19.9733 40.1719 20.0234 40.1719 20.0735 40.1218C20.1236 40.0717 20.1737 40.0216 20.1737 39.9716C20.2238 39.8714 20.2238 39.8213 20.2238 39.7712C20.2238 39.6209 20.1737 39.4707 20.0735 39.3705C19.9733 39.2703 19.8231 39.2202 19.5726 39.2202H19.1719V40.2721ZM37.5547 40.6728V41.925H36.9536V38.7193H37.9053C38.1057 38.7193 38.3061 38.7694 38.4563 38.7694C38.6066 38.8195 38.7068 38.8696 38.857 38.9698C38.9572 39.0699 39.0073 39.1701 39.0574 39.2703C39.1075 39.3705 39.1576 39.5207 39.1576 39.671C39.1576 39.7712 39.1075 39.8714 39.1075 39.9716C39.0574 40.0717 39.0073 40.1719 38.9572 40.222C38.9071 40.3222 38.807 40.3723 38.7569 40.4224L38.4563 40.5726C38.5565 40.6227 38.6066 40.6728 38.6567 40.773L39.4581 41.925H38.7569L38.0055 40.773L37.9053 40.6728C37.8553 40.6227 37.8052 40.6227 37.7551 40.6227H37.5547V40.6728ZM37.5547 40.2721H37.9554C38.0556 40.2721 38.1558 40.222 38.256 40.222C38.3561 40.1719 38.4062 40.1719 38.4563 40.1218C38.5064 40.0717 38.5565 40.0216 38.5565 39.9716C38.6066 39.8714 38.6066 39.8213 38.6066 39.7712C38.6066 39.6209 38.5565 39.4707 38.4563 39.3705C38.3562 39.2703 38.2059 39.2202 37.9554 39.2202H37.5547V40.2721ZM77.8266 40.6728V41.925H77.2256V38.7193H78.1773C78.3776 38.7193 78.578 38.7694 78.7282 38.7694C78.8785 38.8195 78.9787 38.8696 79.129 38.9698C79.2291 39.0699 79.2792 39.1701 79.3293 39.2703C79.3794 39.3705 79.4295 39.5207 79.4295 39.671C79.4295 39.7712 79.3794 39.8714 79.3794 39.9716C79.3293 40.0717 79.2792 40.1719 79.2291 40.222C79.179 40.3222 79.0789 40.3723 79.0288 40.4224L78.7282 40.5726C78.8284 40.6227 78.8785 40.6728 78.9286 40.773L79.73 41.925H79.0288L78.2774 40.773L78.1773 40.6728C78.1272 40.6227 78.0771 40.6227 78.027 40.6227H77.8266V40.6728ZM77.8266 40.2721H78.2273C78.3275 40.2721 78.4277 40.222 78.5279 40.222C78.6281 40.1719 78.6781 40.1719 78.7282 40.1218C78.7783 40.0717 78.8284 40.0216 78.8284 39.9716C78.8785 39.8714 78.8785 39.8213 78.8785 39.7712C78.8785 39.6209 78.8284 39.4707 78.7282 39.3705C78.6281 39.2703 78.4778 39.2202 78.2273 39.2202H77.8266V40.2721ZM69.2613 40.3222V40.773H69.7622V41.324C69.662 41.3741 69.5619 41.4241 69.5118 41.4241C69.4116 41.4742 69.3114 41.4742 69.1611 41.4742C69.0109 41.4742 68.8606 41.4241 68.7604 41.3741C68.6102 41.324 68.51 41.2238 68.4599 41.1737C68.3597 41.0735 68.3096 40.9733 68.2596 40.8231C68.2095 40.6728 68.1594 40.5225 68.1594 40.3222C68.1594 40.1719 68.2095 40.0216 68.2596 39.8714C68.3096 39.7211 68.3597 39.6209 68.4599 39.5208C68.5601 39.4206 68.6603 39.3705 68.7604 39.3204C68.9107 39.2703 69.0109 39.2202 69.2112 39.2202C69.3114 39.2202 69.4116 39.2202 69.4617 39.2703C69.5619 39.3204 69.612 39.3204 69.662 39.3204C69.7121 39.3204 69.7622 39.3705 69.8123 39.4206C69.8624 39.4707 69.9125 39.4707 69.9626 39.5208L70.1129 39.6209L70.3633 39.1701C70.213 39.0199 70.0628 38.9698 69.8624 38.8696C69.662 38.7694 69.4617 38.7694 69.1611 38.7694C68.9107 38.7694 68.6603 38.8195 68.4599 38.8696C68.2595 38.9698 68.0592 39.0699 67.959 39.1701C67.8588 39.2703 67.7086 39.4707 67.6585 39.671C67.5583 39.8714 67.5583 40.0717 67.5583 40.3222C67.5583 40.5726 67.6084 40.773 67.6585 40.9733C67.7587 41.1737 67.8588 41.3741 67.959 41.4742C68.1093 41.6245 68.2595 41.7247 68.4599 41.7748C68.6603 41.875 68.8606 41.925 69.1111 41.925C69.2613 41.925 69.3615 41.925 69.5118 41.875C69.612 41.875 69.7121 41.8249 69.8123 41.8249C69.9125 41.7748 70.0127 41.7748 70.0628 41.7247C70.1129 41.6746 70.213 41.6245 70.3132 41.5744V40.2721L69.2613 40.3222ZM61.5977 40.5726C61.5476 40.4725 61.4975 40.4224 61.4474 40.3222C61.3472 40.2721 61.2971 40.222 61.1969 40.1719C61.0968 40.1218 60.9966 40.0717 60.9465 40.0717C60.8463 40.0216 60.7461 40.0216 60.696 39.9716C60.646 39.9215 60.5458 39.9215 60.4456 39.8714C60.3454 39.8213 60.2953 39.7712 60.2953 39.7211C60.2452 39.671 60.2452 39.6209 60.2452 39.5208C60.2452 39.4707 60.2452 39.4206 60.2953 39.3705C60.3454 39.3204 60.3454 39.2703 60.3955 39.2202C60.4456 39.1701 60.4957 39.1701 60.5458 39.12C60.5959 39.0699 60.696 39.0699 60.7461 39.0699C60.7962 39.0699 60.8964 39.0699 60.9966 39.12C61.0467 39.1701 61.1468 39.1701 61.1468 39.2202C61.1969 39.2703 61.247 39.2703 61.2971 39.3204H61.3472L61.4975 39.4206L61.6978 38.9698C61.5977 38.8696 61.4474 38.7694 61.2971 38.7193C61.1468 38.6692 60.9966 38.6191 60.7962 38.6191C60.646 38.6191 60.4957 38.6692 60.3454 38.7193C60.1951 38.7694 60.095 38.8195 60.0449 38.9197C59.9447 39.0199 59.8946 39.12 59.8445 39.2202C59.7944 39.3204 59.7443 39.4206 59.7443 39.5208C59.7443 39.671 59.7944 39.7712 59.7944 39.9215C59.8445 40.0216 59.8946 40.1218 59.9447 40.1719C60.0449 40.222 60.095 40.2721 60.1951 40.3222C60.2953 40.3723 60.3955 40.4224 60.4456 40.4224C60.5458 40.4724 60.646 40.4725 60.696 40.5225C60.7962 40.5726 60.8463 40.5726 60.9465 40.6227C61.0467 40.6728 61.0968 40.7229 61.0968 40.773C61.1469 40.8231 61.1468 40.8732 61.1468 40.9733C61.1468 41.1236 61.0968 41.2238 60.9966 41.324C60.8964 41.4242 60.7962 41.4241 60.5959 41.4241C60.4957 41.4241 60.3955 41.3741 60.3454 41.3741C60.2452 41.324 60.1951 41.324 60.1451 41.2739C60.095 41.2238 60.0449 41.1737 59.9948 41.1737H59.9447L59.6943 41.0735L59.4438 41.5243C59.4939 41.5744 59.5941 41.6245 59.6442 41.6746C59.7443 41.7247 59.7944 41.7748 59.8946 41.8249C59.9948 41.875 60.095 41.875 60.1451 41.925C60.2452 41.9751 60.3454 41.9751 60.4456 41.9751C60.646 41.9751 60.7461 41.925 60.8964 41.875C61.0467 41.8249 61.1468 41.7247 61.247 41.6746C61.3472 41.5744 61.3973 41.4742 61.4474 41.3741C61.4975 41.2238 61.5476 41.1236 61.5476 40.9733C61.6477 40.773 61.6477 40.6728 61.5977 40.5726ZM88.3955 40.5726C88.3454 40.4725 88.2953 40.4224 88.2452 40.3222C88.1451 40.2721 88.095 40.222 87.9948 40.1719C87.8946 40.1218 87.7944 40.0717 87.7443 40.0717C87.6442 40.0216 87.544 40.0216 87.4939 39.9716C87.4438 39.9215 87.3436 39.9215 87.2434 39.8714C87.1433 39.8213 87.0932 39.7712 87.0932 39.7211C87.0431 39.671 87.0431 39.6209 87.0431 39.5208C87.0431 39.4707 87.0431 39.4206 87.0932 39.3705C87.1433 39.3204 87.1433 39.2703 87.1934 39.2202C87.2434 39.1701 87.2935 39.1701 87.3436 39.12C87.3937 39.0699 87.4939 39.0699 87.544 39.0699C87.5941 39.0699 87.6943 39.0699 87.7944 39.12C87.8445 39.1701 87.9447 39.1701 87.9447 39.2202C87.9948 39.2703 88.0449 39.2703 88.095 39.3204H88.1451L88.2953 39.4206L88.4957 38.9698C88.3955 38.8696 88.2452 38.7694 88.095 38.7193C87.9447 38.6692 87.7944 38.6191 87.5941 38.6191C87.4438 38.6191 87.2935 38.6692 87.1433 38.7193C86.993 38.7694 86.8928 38.8195 86.8427 38.9197C86.7425 39.0199 86.6925 39.12 86.6424 39.2202C86.5923 39.3204 86.5422 39.4206 86.5422 39.5208C86.5422 39.671 86.5923 39.7712 86.5923 39.9215C86.6424 40.0216 86.6925 40.1218 86.7425 40.1719C86.8427 40.222 86.8928 40.2721 86.993 40.3222C87.0932 40.3723 87.1934 40.4224 87.2434 40.4224C87.3436 40.4724 87.4438 40.4725 87.4939 40.5225C87.544 40.5726 87.6442 40.5726 87.7443 40.6227C87.8445 40.6728 87.8946 40.7229 87.8946 40.773C87.9447 40.8231 87.9447 40.8732 87.9447 40.9733C87.9447 41.1236 87.8946 41.2238 87.7944 41.324C87.6943 41.4242 87.5941 41.4241 87.3937 41.4241C87.2935 41.4241 87.1934 41.3741 87.1433 41.3741C87.0431 41.324 86.993 41.324 86.9429 41.2739C86.8928 41.2238 86.8427 41.1737 86.7926 41.1737H86.7425L86.5923 41.0735L86.3418 41.5243C86.3919 41.5744 86.4921 41.6245 86.5422 41.6746C86.6424 41.7247 86.6925 41.7748 86.7926 41.8249C86.8928 41.875 86.993 41.875 87.0431 41.925C87.1433 41.9751 87.2434 41.9751 87.3436 41.9751C87.544 41.9751 87.6442 41.925 87.7944 41.875C87.9447 41.8249 88.0449 41.7247 88.1451 41.6746C88.2452 41.5744 88.2953 41.4742 88.3454 41.3741C88.3955 41.2238 88.4456 41.1236 88.4456 40.9733C88.4456 40.773 88.4456 40.6728 88.3955 40.5726Z" fill="black"/>
</svg>
