<svg width="91" height="56" viewBox="0 0 91 56" fill="none" xmlns="http://www.w3.org/2000/svg">
<path d="M4.39648 44.1787H88.4466V44.4793H4.39648V44.1787ZM6.09953 52.9444H8.85444V54.3469H4.39648V46.7333H6.09953V52.9444ZM17.2194 46.7333H15.4663L12.6112 54.3469H14.3643L14.9153 52.6438H17.7203L18.2713 54.3469H20.0244L17.2194 46.7333ZM15.316 51.4417L16.0172 49.388L16.1675 48.9372L16.3178 48.3361C16.3679 48.5365 16.418 48.7369 16.468 48.8871C16.5181 49.0875 16.5682 49.1877 16.6183 49.3379L17.3196 51.4417H15.316ZM40.3106 46.7333H38.5575L35.7024 54.3469H37.5056L38.0566 52.6438H40.8616L41.3124 53.9462C41.3124 53.9962 41.3625 53.9962 41.3625 53.9962L41.4627 54.2968H43.2158L40.3106 46.7333ZM38.4573 51.4417L39.1586 49.388L39.3088 48.9372L39.4591 48.3361C39.5092 48.5365 39.5593 48.7369 39.6094 48.8871C39.6595 49.0875 39.7095 49.1877 39.7596 49.3379L40.4609 51.4417H38.4573ZM64.3535 46.7333H62.6004L59.7453 54.3469H61.4984L62.0494 52.6438H64.8544L65.4054 54.3469H67.1586L64.3535 46.7333ZM62.5002 51.4417L63.2015 49.388L63.3518 48.9372L63.502 48.3361C63.5521 48.5365 63.6022 48.7369 63.6523 48.8871C63.7024 49.0875 63.7525 49.1877 63.8026 49.3379L64.5038 51.4417H62.5002ZM85.6416 46.7333H83.8884L81.0333 54.3469H82.7865L83.3374 52.6438H86.1425L86.6934 54.3469H88.4466L85.6416 46.7333ZM83.7382 51.4417L84.4394 49.388L84.5897 48.9372L84.7399 48.3361C84.79 48.5365 84.8401 48.7369 84.8902 48.8871C84.9403 49.0875 84.9904 49.1877 85.0405 49.3379L85.7417 51.4417H83.7382ZM31.0942 52.2431L30.8437 52.4435L30.7936 52.4936C30.6934 52.5937 30.5933 52.6438 30.4931 52.6939L30.1925 52.8442C30.0924 52.8943 29.9922 52.8943 29.8419 52.9444C29.6917 52.9945 29.5915 52.9945 29.3911 52.9945C29.1407 52.9945 28.8902 52.9444 28.6398 52.8442C28.3893 52.744 28.189 52.5937 28.0387 52.3934C27.8383 52.193 27.7382 51.9426 27.638 51.642C27.5378 51.3415 27.4877 50.9909 27.4877 50.5902C27.4877 50.1894 27.5378 49.8889 27.638 49.5884C27.7382 49.2878 27.8884 49.0374 28.0888 48.837C28.2892 48.6367 28.4895 48.4363 28.74 48.3361C28.9904 48.236 29.2909 48.1859 29.5915 48.1859C29.7918 48.1859 29.892 48.236 30.0423 48.236C30.1925 48.286 30.2927 48.286 30.3929 48.3361C30.4931 48.3862 30.5933 48.4363 30.6434 48.4864C30.7435 48.5365 30.7936 48.5866 30.8437 48.6367C30.8938 48.6367 30.8938 48.6868 30.8938 48.6868L31.2444 48.9873L31.4949 48.5866L32.0459 47.7852C31.8956 47.6349 31.7453 47.4846 31.545 47.3844C31.3446 47.2342 31.1442 47.1841 30.9439 47.0839C30.7435 46.9837 30.4931 46.9336 30.2426 46.8835C29.9922 46.8335 29.7417 46.7834 29.4412 46.7834C28.8902 46.7834 28.3392 46.8835 27.8884 47.0839C27.4376 47.2843 27.0369 47.5347 26.6863 47.8853C26.3357 48.236 26.0852 48.6367 25.8849 49.0875C25.6845 49.5884 25.6344 50.0893 25.6344 50.6402C25.6344 51.1912 25.7346 51.7422 25.8849 52.193C26.0351 52.6939 26.2856 53.0946 26.5861 53.3952C26.8866 53.7458 27.2874 53.9962 27.7382 54.1966C28.189 54.397 28.6899 54.4971 29.2408 54.4971C29.8419 54.4971 30.3929 54.397 30.8437 54.1966C31.2945 53.9962 31.6451 53.7458 31.8956 53.3451L31.9457 53.295L31.0942 52.2431ZM54.6863 46.7333H53.8348L53.6845 47.0839L51.8312 50.8406C51.7811 50.9909 51.6809 51.0911 51.6308 51.2914C51.5807 51.4417 51.4806 51.592 51.4305 51.7422C51.3804 51.592 51.3303 51.4417 51.2301 51.2914C51.18 51.1411 51.0798 51.041 51.0298 50.8907L49.2265 47.0839L49.0763 46.7834H47.273V54.397H48.7757V49.7386C48.7757 49.6385 48.7256 49.4882 48.7256 49.388L50.6791 53.295L50.8795 53.6456H51.9815L52.1818 53.2449L52.5324 52.5437L52.6326 52.3433L54.1353 49.388C54.0852 49.6385 54.0852 49.8889 54.0852 50.0893V54.447H55.5879V46.7333H54.6863ZM75.824 51.6921C75.7238 51.5419 75.6738 51.4417 75.5736 51.3916C75.4734 51.2914 75.3732 51.2413 75.273 51.1912C75.5235 51.0911 75.7238 50.9909 75.8741 50.8406C76.0745 50.6903 76.2247 50.5401 76.3249 50.3397C76.4752 50.1394 76.5253 49.939 76.6255 49.7386C76.6756 49.5383 76.7256 49.2878 76.7256 49.0374C76.7256 48.7369 76.6755 48.4363 76.5754 48.1358C76.4752 47.8352 76.3249 47.6349 76.0745 47.4345C75.824 47.2342 75.5235 47.0839 75.1729 46.9837C74.7721 46.8835 74.3213 46.8335 73.8204 46.8335H71.4162V54.447H73.1192V51.5919H73.57C73.7203 51.5919 73.8204 51.642 73.8705 51.642C73.9707 51.6921 74.0208 51.7422 74.0709 51.8424L74.7221 52.9945V53.0445L75.273 54.0463C75.273 54.0964 75.3231 54.0964 75.3231 54.0964L75.4734 54.3469H77.4269L75.824 51.6921ZM73.7203 50.3397H73.019V48.0857H73.7203C74.1711 48.0857 74.4716 48.1859 74.672 48.3361C74.8723 48.5365 74.9725 48.7869 74.9725 49.1376C74.9725 49.2878 74.9224 49.4381 74.8723 49.5884C74.8222 49.7386 74.7221 49.8388 74.672 49.9891C74.5718 50.0893 74.4215 50.1894 74.2713 50.2395C74.1711 50.2896 73.9707 50.3397 73.7203 50.3397Z" fill="white"/>
<path d="M20.5754 32.8084V26.0964C15.8169 25.1447 12.3106 21.4381 12.3106 17.5812C12.3106 13.9748 15.7167 10.168 20.5754 9.26639V2.60449C10.4573 3.55619 4.39648 10.6689 4.39648 17.6814C4.39648 24.9945 10.858 31.8066 20.5754 32.8084Z" fill="#C12A21"/>
<path d="M88.4452 32.8084V26.0964C83.6867 25.1447 80.1804 21.4381 80.1804 17.5812C80.1804 13.9748 83.5865 10.168 88.4452 9.26639V2.60449C78.3271 3.55619 72.3164 10.719 72.3164 17.6814C72.3164 24.9945 78.7779 31.8066 88.4452 32.8084Z" fill="#456091"/>
<path d="M50.0778 26.948C50.6288 25.8461 50.8792 24.6439 50.8792 23.3917C50.8792 21.6386 50.3282 20.1359 49.1762 18.6833C48.0241 17.2808 46.6717 16.279 45.0188 15.6278C43.3658 15.0268 40.7612 14.3756 37.2048 13.7745C35.1011 13.4239 33.6986 12.9731 33.0975 12.4722C32.4964 11.9713 32.1959 11.3702 32.1959 10.669C32.1959 8.86575 33.7987 7.96414 37.0045 7.96414C38.9579 7.96414 40.5107 8.46504 41.6127 9.51692H49.8774C47.974 4.8586 43.5662 2.50439 36.754 2.50439C32.9472 2.50439 29.8918 3.406 27.6377 5.25931C25.3837 7.11262 24.2817 9.36665 24.2817 12.0214C24.2817 14.626 25.2334 16.6296 27.0867 17.982C28.9901 19.3344 32.1458 20.4364 36.5536 21.1878C38.9579 21.6386 40.5107 22.0393 41.3622 22.5402C42.2138 23.0411 42.6145 23.6922 42.6145 24.5938C42.6145 25.4454 42.1637 26.1967 41.212 26.7978C41.1619 26.8479 41.0617 26.898 41.0116 26.898C41.0116 26.898 40.11 27.5491 36.9544 27.5491C33.7987 27.5491 32.8971 26.898 32.8971 26.898C31.9454 26.4472 31.1941 25.796 30.6932 24.9946H22.4785C22.6789 25.6958 22.9293 26.2969 23.2299 26.898C23.2299 26.898 26.7862 32.8085 36.9544 32.8085C47.0724 32.9087 50.0778 26.948 50.0778 26.948Z" fill="#C12A21"/>
<path d="M61.3466 26.2969V2.50439H53.6328V32.8586H72.3162V26.2969H61.3466Z" fill="#456091"/>
<path d="M12.1603 40.3222C12.1603 40.5726 12.1103 40.773 12.0602 40.9733C11.96 41.1737 11.8598 41.3741 11.7596 41.4742C11.6094 41.6245 11.4591 41.7247 11.2587 41.8249C11.0584 41.925 10.858 41.9751 10.6076 41.9751C10.3571 41.9751 10.1568 41.925 9.95641 41.8249C9.75605 41.7247 9.5557 41.6245 9.45552 41.4742C9.30525 41.324 9.20507 41.1737 9.15498 40.9733C9.0548 40.773 9.0548 40.5726 9.0548 40.3222C9.0548 40.0717 9.10489 39.8714 9.15498 39.671C9.25516 39.4707 9.35534 39.2703 9.45552 39.1701C9.60579 39.0199 9.75605 38.9197 9.95641 38.8195C10.1568 38.7193 10.3571 38.6692 10.6076 38.6692C10.858 38.6692 11.0584 38.7193 11.2587 38.8195C11.4591 38.9197 11.6595 39.0199 11.7596 39.1701C11.9099 39.3204 12.0101 39.4707 12.0602 39.671C12.1103 39.8714 12.1603 40.0717 12.1603 40.3222ZM11.5092 40.3222C11.5092 40.1719 11.4591 40.0216 11.409 39.8714C11.3589 39.7211 11.3088 39.6209 11.2086 39.5208C11.1085 39.4206 11.0083 39.3705 10.9081 39.3204C10.7578 39.2703 10.6577 39.2202 10.4573 39.2202C10.307 39.2202 10.1568 39.2703 10.0065 39.3204C9.85623 39.3705 9.75605 39.4707 9.70597 39.5208C9.60579 39.6209 9.5557 39.7211 9.50561 39.8714C9.45552 40.0216 9.40543 40.1719 9.40543 40.3222C9.40543 40.4725 9.45552 40.6227 9.50561 40.773C9.5557 40.9233 9.60579 41.0234 9.70597 41.1236C9.80614 41.2238 9.90632 41.2739 10.0065 41.324C10.1568 41.3741 10.2569 41.4241 10.4573 41.4241C10.6076 41.4241 10.7578 41.3741 10.9081 41.324C11.0584 41.2739 11.1085 41.1737 11.2086 41.1236C11.3088 41.0234 11.3589 40.9233 11.409 40.773C11.5092 40.6728 11.5092 40.4725 11.5092 40.3222ZM14.765 40.6728V41.925H14.1639V38.7193H15.1156C15.316 38.7193 15.5163 38.7694 15.6666 38.7694C15.8169 38.8195 15.9171 38.8696 16.0673 38.9698C16.1675 39.0699 16.2176 39.1701 16.2677 39.2703C16.3178 39.3705 16.3679 39.5207 16.3679 39.671C16.3679 39.7712 16.3178 39.8714 16.3178 39.9716C16.2677 40.0717 16.2176 40.1719 16.1675 40.222C16.1174 40.3222 16.0172 40.3723 15.9671 40.4224L15.6666 40.5726C15.7668 40.6227 15.8169 40.6728 15.867 40.773L16.6684 41.925H15.9671L15.2158 40.773L15.1156 40.6728C15.0655 40.6227 15.0154 40.6227 14.9654 40.6227H14.765V40.6728ZM14.765 40.2721H15.1657C15.2659 40.2721 15.3661 40.222 15.4663 40.222C15.5664 40.1719 15.6165 40.1719 15.6666 40.1218C15.7167 40.0717 15.7668 40.0216 15.7668 39.9716C15.8169 39.8714 15.8169 39.8213 15.8169 39.7712C15.8169 39.6209 15.7668 39.4707 15.6666 39.3705C15.5664 39.2703 15.4162 39.2202 15.1657 39.2202H14.765V40.2721ZM24.9832 38.7193V39.1701H23.5807V40.0717H24.6827V40.5726H23.5807V41.4742H24.9832V41.925H22.9797V38.7193H24.9832ZM29.892 40.3222C29.892 40.5726 29.8419 40.773 29.7918 40.9733C29.6917 41.1737 29.5915 41.324 29.4913 41.4742C29.341 41.6245 29.1908 41.7247 28.9904 41.7748C28.79 41.875 28.5897 41.875 28.3392 41.875H27.1371V38.6692H28.3392C28.5897 38.6692 28.79 38.7193 28.9904 38.7694C29.1908 38.8696 29.3911 38.9698 29.4913 39.0699C29.6416 39.2202 29.7417 39.3705 29.7918 39.5708C29.8419 39.8714 29.892 40.0717 29.892 40.3222ZM29.2909 40.3222C29.2909 40.1719 29.2408 40.0216 29.1908 39.8714C29.1407 39.7211 29.0906 39.6209 28.9904 39.5208C28.8902 39.4206 28.79 39.3705 28.6899 39.3204C28.5396 39.2703 28.4394 39.2202 28.2391 39.2202H27.638V41.4742H28.2391C28.3893 41.4742 28.5396 41.4241 28.6899 41.3741C28.8401 41.324 28.8902 41.2238 28.9904 41.1737C29.0906 41.0735 29.1407 40.9733 29.1908 40.8231C29.2408 40.6728 29.2909 40.4725 29.2909 40.3222ZM34.951 40.3222C34.951 40.5726 34.901 40.773 34.8509 40.9733C34.7507 41.1737 34.6505 41.3741 34.5503 41.4742C34.4001 41.6245 34.2498 41.7247 34.0494 41.8249C33.8491 41.925 33.6487 41.9751 33.3983 41.9751C33.1478 41.9751 32.9475 41.925 32.7471 41.8249C32.5468 41.7247 32.3464 41.6245 32.2462 41.4742C32.0959 41.324 31.9958 41.1737 31.9457 40.9733C31.8455 40.773 31.8455 40.5726 31.8455 40.3222C31.8455 40.0717 31.8956 39.8714 31.9457 39.671C31.9958 39.4707 32.146 39.2703 32.2462 39.1701C32.3965 39.0199 32.5468 38.9197 32.7471 38.8195C32.9475 38.7193 33.1478 38.6692 33.3983 38.6692C33.6487 38.6692 33.8491 38.7193 34.0494 38.8195C34.2498 38.9197 34.4502 39.0199 34.5503 39.1701C34.7006 39.3204 34.8008 39.4707 34.8509 39.671C34.901 39.8714 34.951 40.0717 34.951 40.3222ZM34.35 40.3222C34.35 40.1719 34.2999 40.0216 34.2498 39.8714C34.1997 39.7211 34.1496 39.6209 34.0494 39.5208C33.9493 39.4206 33.8491 39.3705 33.7489 39.3204C33.5986 39.2703 33.4985 39.2202 33.2981 39.2202C33.1478 39.2202 32.9976 39.2703 32.8974 39.3204C32.7471 39.3705 32.6469 39.4707 32.5968 39.5208C32.4967 39.6209 32.4466 39.7211 32.3965 39.8714C32.3464 40.0216 32.2963 40.1719 32.2963 40.3222C32.2963 40.4725 32.3464 40.6227 32.3965 40.773C32.4466 40.9233 32.4967 41.0234 32.5968 41.1236C32.697 41.2238 32.7972 41.2739 32.8974 41.324C33.0476 41.3741 33.1478 41.4241 33.2981 41.4241C33.4484 41.4241 33.5986 41.3741 33.7489 41.324C33.8992 41.2739 33.9493 41.1737 34.0494 41.1236C34.1496 41.0234 34.1997 40.9233 34.2498 40.773C34.2999 40.6728 34.35 40.4725 34.35 40.3222ZM44.2176 41.925H43.6165L43.316 41.1236H42.0137L41.663 41.925H41.062L42.3142 38.7193H42.9153L44.2176 41.925ZM42.1138 40.7229H43.1657L42.765 39.671C42.7149 39.6209 42.7149 39.5708 42.7149 39.5208C42.7149 39.4707 42.6648 39.3705 42.6648 39.2703C42.6147 39.3705 42.6147 39.4206 42.6147 39.4707C42.5646 39.5208 42.5646 39.5708 42.5646 39.6209L42.1138 40.7229ZM51.2802 40.3222C51.2802 40.5726 51.2301 40.773 51.18 40.9733C51.0798 41.1737 50.9797 41.324 50.8795 41.4742C50.7292 41.6245 50.579 41.7247 50.3786 41.7748C50.1782 41.875 49.9779 41.875 49.7274 41.875H48.5253V38.6692H49.6773C49.9278 38.6692 50.1281 38.7193 50.3285 38.7694C50.5289 38.8696 50.7292 38.9698 50.8294 39.0699C50.9797 39.2202 51.0798 39.3705 51.1299 39.5708C51.2301 39.8714 51.2802 40.0717 51.2802 40.3222ZM50.6791 40.3222C50.6791 40.1719 50.629 40.0216 50.579 39.8714C50.5289 39.7211 50.4788 39.6209 50.3786 39.5208C50.2784 39.4206 50.1782 39.3705 50.0781 39.3204C49.9278 39.2703 49.8276 39.2202 49.6273 39.2202H49.0262V41.4742H49.6273C49.7775 41.4742 49.9278 41.4241 50.0781 41.3741C50.2283 41.324 50.2784 41.2238 50.3786 41.1737C50.4788 41.0735 50.5289 40.9733 50.579 40.8231C50.629 40.6728 50.6791 40.4725 50.6791 40.3222ZM55.2874 38.7193V39.1701H53.8849V40.0717H54.9868V40.5726H53.8849V41.4742H55.2874V41.925H53.2838V38.7193H55.2874ZM65.6559 38.7193V39.1701H64.2534V40.0717H65.3553V40.5726H64.2534V41.4742H65.6559V41.925H63.6523V38.7193H65.6559ZM73.7203 41.4241C73.8204 41.4241 73.9206 41.3741 74.0208 41.3741C74.121 41.324 74.1711 41.2739 74.2212 41.2238C74.2713 41.1236 74.3213 41.0735 74.3714 40.9733C74.4215 40.8732 74.4215 40.773 74.4215 40.6728V38.7694H75.0226V40.6728C75.0226 40.8732 74.9725 41.0234 74.9224 41.1737C74.8723 41.324 74.7721 41.4742 74.672 41.5744C74.5718 41.6746 74.4215 41.7748 74.2713 41.8249C74.121 41.875 73.9206 41.925 73.7203 41.925C73.5199 41.925 73.3195 41.875 73.1693 41.8249C73.019 41.7748 72.8688 41.6746 72.7686 41.5744C72.6684 41.4742 72.5682 41.324 72.5181 41.1737C72.468 41.0234 72.4179 40.8732 72.4179 40.6728V38.7694H73.019V40.6728C73.019 40.8231 73.0691 40.9233 73.0691 40.9733C73.1192 41.0735 73.1693 41.1737 73.2194 41.2238C73.2695 41.324 73.3696 41.3741 73.4197 41.3741C73.5199 41.4241 73.6201 41.4241 73.7203 41.4241ZM84.5897 40.3222C84.5897 40.5726 84.5396 40.773 84.4895 40.9733C84.3893 41.1737 84.2891 41.3741 84.189 41.4742C84.0387 41.6245 83.8884 41.7247 83.6881 41.8249C83.4877 41.925 83.2874 41.9751 83.0369 41.9751C82.7865 41.9751 82.5861 41.925 82.3857 41.8249C82.1854 41.7247 81.985 41.6245 81.8848 41.4742C81.7346 41.324 81.6344 41.1737 81.5843 40.9733C81.4841 40.773 81.4841 40.5726 81.4841 40.3222C81.4841 40.0717 81.5342 39.8714 81.5843 39.671C81.6344 39.4707 81.7847 39.2703 81.8848 39.1701C82.0351 39.0199 82.1854 38.9197 82.3857 38.8195C82.5861 38.7193 82.7865 38.6692 83.0369 38.6692C83.2874 38.6692 83.4877 38.7193 83.6881 38.8195C83.8884 38.9197 84.0888 39.0199 84.189 39.1701C84.3392 39.3204 84.4394 39.4707 84.4895 39.671C84.5396 39.8714 84.5897 40.0717 84.5897 40.3222ZM83.9385 40.3222C83.9385 40.1719 83.8884 40.0216 83.8383 39.8714C83.7882 39.7211 83.7382 39.6209 83.638 39.5208C83.5378 39.4206 83.4376 39.3705 83.3374 39.3204C83.1872 39.2703 83.087 39.2202 82.8866 39.2202C82.7364 39.2202 82.5861 39.2703 82.4358 39.3204C82.2856 39.3705 82.1854 39.4707 82.1353 39.5208C82.0351 39.6209 81.985 39.7211 81.9349 39.8714C81.8848 40.0216 81.8348 40.1719 81.8348 40.3222C81.8348 40.4725 81.8848 40.6227 81.9349 40.773C81.985 40.9233 82.0351 41.0234 82.1353 41.1236C82.2355 41.2238 82.3356 41.2739 82.4358 41.324C82.5861 41.3741 82.6863 41.4241 82.8866 41.4241C83.0369 41.4241 83.1872 41.3741 83.3374 41.324C83.4877 41.2739 83.5378 41.1737 83.638 41.1236C83.7382 41.0234 83.7882 40.9233 83.8383 40.773C83.9385 40.6728 83.9385 40.4725 83.9385 40.3222ZM6.65051 41.1737C6.60042 41.2238 6.55033 41.2739 6.50024 41.2739C6.45015 41.324 6.40006 41.324 6.34997 41.3741C6.29988 41.4241 6.24979 41.4241 6.14961 41.4241H5.94926C5.79899 41.4241 5.69881 41.3741 5.54854 41.324C5.44836 41.2739 5.34818 41.1737 5.248 41.1236C5.14783 41.0234 5.09774 40.9233 5.04765 40.773C4.99756 40.6227 4.94747 40.4725 4.94747 40.2721C4.94747 40.1218 4.99756 39.9716 5.04765 39.8213C5.09774 39.671 5.14783 39.5708 5.248 39.4707C5.34818 39.3705 5.44836 39.3204 5.54854 39.2703C5.69881 39.2202 5.79899 39.1701 5.94926 39.1701C6.09953 39.1701 6.1997 39.1701 6.24979 39.2202C6.34997 39.2703 6.40006 39.2703 6.45015 39.3204C6.50024 39.3705 6.55033 39.3705 6.60042 39.4206L6.75069 39.5208L7.05122 39.12C6.90096 38.9698 6.80078 38.9197 6.60042 38.8195C6.40006 38.7193 6.1997 38.7193 5.99935 38.7193C5.79899 38.7193 5.54854 38.7694 5.29809 38.8195C5.09774 38.9197 4.89738 39.0199 4.7972 39.12C4.64693 39.2703 4.54675 39.4206 4.49666 39.6209C4.39648 39.8213 4.39648 40.0216 4.39648 40.2721C4.39648 40.5225 4.44657 40.7229 4.49666 40.9233C4.59684 41.1236 4.64693 41.324 4.7972 41.4241C4.94747 41.5744 5.09774 41.6746 5.29809 41.7247C5.49845 41.8249 5.69881 41.875 5.94926 41.875C6.1997 41.875 6.45015 41.8249 6.65051 41.7247C6.85087 41.6245 7.00114 41.5243 7.1514 41.324L6.85087 40.9733L6.65051 41.1737ZM19.1729 40.6728V41.925H18.5718V38.7193H19.5235C19.7239 38.7193 19.9242 38.7694 20.0745 38.7694C20.2247 38.8195 20.3249 38.8696 20.4752 38.9698C20.5754 39.0699 20.6255 39.1701 20.6756 39.2703C20.7256 39.3705 20.7757 39.5207 20.7757 39.671C20.7757 39.7712 20.7256 39.8714 20.7256 39.9716C20.6756 40.0717 20.6255 40.1719 20.5754 40.222C20.5253 40.3222 20.4251 40.3723 20.375 40.4224L20.0745 40.5726C20.1747 40.6227 20.2247 40.6728 20.2748 40.773L21.0763 41.925H20.375L19.6237 40.773L19.5235 40.6728C19.4734 40.6227 19.4233 40.6227 19.3732 40.6227H19.1729V40.6728ZM19.1729 40.2721H19.5736C19.6738 40.2721 19.7739 40.222 19.8741 40.222C19.9743 40.1719 20.0244 40.1719 20.0745 40.1218C20.1246 40.0717 20.1747 40.0216 20.1747 39.9716C20.2247 39.8714 20.2247 39.8213 20.2247 39.7712C20.2247 39.6209 20.1747 39.4707 20.0745 39.3705C19.9743 39.2703 19.824 39.2202 19.5736 39.2202H19.1729V40.2721ZM37.5557 40.6728V41.925H36.9546V38.7193H37.9063C38.1067 38.7193 38.307 38.7694 38.4573 38.7694C38.6076 38.8195 38.7078 38.8696 38.858 38.9698C38.9582 39.0699 39.0083 39.1701 39.0584 39.2703C39.1085 39.3705 39.1586 39.5207 39.1586 39.671C39.1586 39.7712 39.1085 39.8714 39.1085 39.9716C39.0584 40.0717 39.0083 40.1719 38.9582 40.222C38.9081 40.3222 38.8079 40.3723 38.7578 40.4224L38.4573 40.5726C38.5575 40.6227 38.6076 40.6728 38.6577 40.773L39.4591 41.925H38.7578L38.0065 40.773L37.9063 40.6728C37.8562 40.6227 37.8061 40.6227 37.7561 40.6227H37.5557V40.6728ZM37.5557 40.2721H37.9564C38.0566 40.2721 38.1568 40.222 38.2569 40.222C38.3571 40.1719 38.4072 40.1719 38.4573 40.1218C38.5074 40.0717 38.5575 40.0216 38.5575 39.9716C38.6076 39.8714 38.6076 39.8213 38.6076 39.7712C38.6076 39.6209 38.5575 39.4707 38.4573 39.3705C38.3571 39.2703 38.2069 39.2202 37.9564 39.2202H37.5557V40.2721ZM77.8276 40.6728V41.925H77.2265V38.7193H78.1782C78.3786 38.7193 78.5789 38.7694 78.7292 38.7694C78.8795 38.8195 78.9797 38.8696 79.1299 38.9698C79.2301 39.0699 79.2802 39.1701 79.3303 39.2703C79.3804 39.3705 79.4305 39.5207 79.4305 39.671C79.4305 39.7712 79.3804 39.8714 79.3804 39.9716C79.3303 40.0717 79.2802 40.1719 79.2301 40.222C79.18 40.3222 79.0798 40.3723 79.0298 40.4224L78.7292 40.5726C78.8294 40.6227 78.8795 40.6728 78.9296 40.773L79.731 41.925H79.0298L78.2784 40.773L78.1782 40.6728C78.1281 40.6227 78.0781 40.6227 78.028 40.6227H77.8276V40.6728ZM77.8276 40.2721H78.2283C78.3285 40.2721 78.4287 40.222 78.5289 40.222C78.629 40.1719 78.6791 40.1719 78.7292 40.1218C78.7793 40.0717 78.8294 40.0216 78.8294 39.9716C78.8795 39.8714 78.8795 39.8213 78.8795 39.7712C78.8795 39.6209 78.8294 39.4707 78.7292 39.3705C78.629 39.2703 78.4788 39.2202 78.2283 39.2202H77.8276V40.2721ZM69.2623 40.3222V40.773H69.7632V41.324C69.663 41.3741 69.5629 41.4241 69.5128 41.4241C69.4126 41.4742 69.3124 41.4742 69.1621 41.4742C69.0119 41.4742 68.8616 41.4241 68.7614 41.3741C68.6112 41.324 68.511 41.2238 68.4609 41.1737C68.3607 41.0735 68.3106 40.9733 68.2605 40.8231C68.2104 40.6728 68.1603 40.5225 68.1603 40.3222C68.1603 40.1719 68.2104 40.0216 68.2605 39.8714C68.3106 39.7211 68.3607 39.6209 68.4609 39.5208C68.5611 39.4206 68.6612 39.3705 68.7614 39.3204C68.9117 39.2703 69.0119 39.2202 69.2122 39.2202C69.3124 39.2202 69.4126 39.2202 69.4627 39.2703C69.5628 39.3204 69.6129 39.3204 69.663 39.3204C69.7131 39.3204 69.7632 39.3705 69.8133 39.4206C69.8634 39.4707 69.9135 39.4707 69.9636 39.5208L70.1138 39.6209L70.3643 39.1701C70.214 39.0199 70.0637 38.9698 69.8634 38.8696C69.663 38.7694 69.4627 38.7694 69.1621 38.7694C68.9117 38.7694 68.6612 38.8195 68.4609 38.8696C68.2605 38.9698 68.0602 39.0699 67.96 39.1701C67.8598 39.2703 67.7095 39.4707 67.6594 39.671C67.5593 39.8714 67.5593 40.0717 67.5593 40.3222C67.5593 40.5726 67.6094 40.773 67.6594 40.9733C67.7596 41.1737 67.8598 41.3741 67.96 41.4742C68.1103 41.6245 68.2605 41.7247 68.4609 41.7748C68.6612 41.875 68.8616 41.925 69.112 41.925C69.2623 41.925 69.3625 41.925 69.5128 41.875C69.6129 41.875 69.7131 41.8249 69.8133 41.8249C69.9135 41.7748 70.0136 41.7748 70.0637 41.7247C70.1138 41.6746 70.214 41.6245 70.3142 41.5744V40.2721L69.2623 40.3222ZM61.5986 40.5726C61.5485 40.4725 61.4985 40.4224 61.4484 40.3222C61.3482 40.2721 61.2981 40.222 61.1979 40.1719C61.0977 40.1218 60.9976 40.0717 60.9475 40.0717C60.8473 40.0216 60.7471 40.0216 60.697 39.9716C60.6469 39.9215 60.5467 39.9215 60.4466 39.8714C60.3464 39.8213 60.2963 39.7712 60.2963 39.7211C60.2462 39.671 60.2462 39.6209 60.2462 39.5208C60.2462 39.4707 60.2462 39.4206 60.2963 39.3705C60.3464 39.3204 60.3464 39.2703 60.3965 39.2202C60.4466 39.1701 60.4967 39.1701 60.5467 39.12C60.5968 39.0699 60.697 39.0699 60.7471 39.0699C60.7972 39.0699 60.8974 39.0699 60.9976 39.12C61.0476 39.1701 61.1478 39.1701 61.1478 39.2202C61.1979 39.2703 61.248 39.2703 61.2981 39.3204H61.3482L61.4984 39.4206L61.6988 38.9698C61.5986 38.8696 61.4484 38.7694 61.2981 38.7193C61.1478 38.6692 60.9976 38.6191 60.7972 38.6191C60.6469 38.6191 60.4967 38.6692 60.3464 38.7193C60.1961 38.7694 60.0959 38.8195 60.0459 38.9197C59.9457 39.0199 59.8956 39.12 59.8455 39.2202C59.7954 39.3204 59.7453 39.4206 59.7453 39.5208C59.7453 39.671 59.7954 39.7712 59.7954 39.9215C59.8455 40.0216 59.8956 40.1218 59.9457 40.1719C60.0459 40.222 60.0959 40.2721 60.1961 40.3222C60.2963 40.3723 60.3965 40.4224 60.4466 40.4224C60.5467 40.4724 60.6469 40.4725 60.697 40.5225C60.7972 40.5726 60.8473 40.5726 60.9475 40.6227C61.0476 40.6728 61.0977 40.7229 61.0977 40.773C61.1478 40.8231 61.1478 40.8732 61.1478 40.9733C61.1478 41.1236 61.0977 41.2238 60.9976 41.324C60.8974 41.4242 60.7972 41.4241 60.5968 41.4241C60.4967 41.4241 60.3965 41.3741 60.3464 41.3741C60.2462 41.324 60.1961 41.324 60.146 41.2739C60.0959 41.2238 60.0459 41.1737 59.9958 41.1737H59.9457L59.6952 41.0735L59.4448 41.5243C59.4949 41.5744 59.5951 41.6245 59.6451 41.6746C59.7453 41.7247 59.7954 41.7748 59.8956 41.8249C59.9958 41.875 60.0959 41.875 60.146 41.925C60.2462 41.9751 60.3464 41.9751 60.4466 41.9751C60.6469 41.9751 60.7471 41.925 60.8974 41.875C61.0476 41.8249 61.1478 41.7247 61.248 41.6746C61.3482 41.5744 61.3983 41.4742 61.4484 41.3741C61.4985 41.2238 61.5485 41.1236 61.5485 40.9733C61.6487 40.773 61.6487 40.6728 61.5986 40.5726ZM88.3965 40.5726C88.3464 40.4725 88.2963 40.4224 88.2462 40.3222C88.146 40.2721 88.0959 40.222 87.9958 40.1719C87.8956 40.1218 87.7954 40.0717 87.7453 40.0717C87.6451 40.0216 87.545 40.0216 87.4949 39.9716C87.4448 39.9215 87.3446 39.9215 87.2444 39.8714C87.1442 39.8213 87.0941 39.7712 87.0941 39.7211C87.0441 39.671 87.0441 39.6209 87.0441 39.5208C87.0441 39.4707 87.0441 39.4206 87.0941 39.3705C87.1442 39.3204 87.1442 39.2703 87.1943 39.2202C87.2444 39.1701 87.2945 39.1701 87.3446 39.12C87.3947 39.0699 87.4949 39.0699 87.545 39.0699C87.595 39.0699 87.6952 39.0699 87.7954 39.12C87.8455 39.1701 87.9457 39.1701 87.9457 39.2202C87.9958 39.2703 88.0459 39.2703 88.0959 39.3204H88.146L88.2963 39.4206L88.4967 38.9698C88.3965 38.8696 88.2462 38.7694 88.0959 38.7193C87.9457 38.6692 87.7954 38.6191 87.595 38.6191C87.4448 38.6191 87.2945 38.6692 87.1442 38.7193C86.994 38.7694 86.8938 38.8195 86.8437 38.9197C86.7435 39.0199 86.6934 39.12 86.6433 39.2202C86.5933 39.3204 86.5432 39.4206 86.5432 39.5208C86.5432 39.671 86.5933 39.7712 86.5933 39.9215C86.6433 40.0216 86.6934 40.1218 86.7435 40.1719C86.8437 40.222 86.8938 40.2721 86.994 40.3222C87.0942 40.3723 87.1943 40.4224 87.2444 40.4224C87.3446 40.4724 87.4448 40.4725 87.4949 40.5225C87.545 40.5726 87.6451 40.5726 87.7453 40.6227C87.8455 40.6728 87.8956 40.7229 87.8956 40.773C87.9457 40.8231 87.9457 40.8732 87.9457 40.9733C87.9457 41.1236 87.8956 41.2238 87.7954 41.324C87.6952 41.4242 87.595 41.4241 87.3947 41.4241C87.2945 41.4241 87.1943 41.3741 87.1442 41.3741C87.0441 41.324 86.994 41.324 86.9439 41.2739C86.8938 41.2238 86.8437 41.1737 86.7936 41.1737H86.7435L86.5933 41.0735L86.3428 41.5243C86.3929 41.5744 86.4931 41.6245 86.5432 41.6746C86.6433 41.7247 86.6934 41.7748 86.7936 41.8249C86.8938 41.875 86.994 41.875 87.0441 41.925C87.1442 41.9751 87.2444 41.9751 87.3446 41.9751C87.545 41.9751 87.6451 41.925 87.7954 41.875C87.9457 41.8249 88.0459 41.7247 88.146 41.6746C88.2462 41.5744 88.2963 41.4742 88.3464 41.3741C88.3965 41.2238 88.4466 41.1236 88.4466 40.9733C88.4466 40.773 88.4466 40.6728 88.3965 40.5726Z" fill="white"/>
</svg>
