<svg width="47" height="36" viewBox="0 0 47 36" fill="none" xmlns="http://www.w3.org/2000/svg">
<path d="M21.5417 24H25.4583V28H21.5417V24ZM21.5417 8H25.4583V20H21.5417V8ZM23.5 0C18.8256 0 14.3426 1.89642 11.0372 5.27208C7.73191 8.64773 5.875 13.2261 5.875 18C5.875 22.7739 7.73191 27.3523 11.0372 30.7279C14.3426 34.1036 18.8256 36 23.5 36C28.1744 36 32.6574 34.1036 35.9628 30.7279C39.2681 27.3523 41.125 22.7739 41.125 18C41.125 13.2261 39.2681 8.64773 35.9628 5.27208C32.6574 1.89642 28.1744 0 23.5 0ZM23.5 32C15.9408 32 9.79167 25.72 9.79167 18C9.79167 10.28 15.9408 4 23.5 4C31.0592 4 37.2083 10.28 37.2083 18C37.2083 25.72 31.0592 32 23.5 32ZM40.1458 35C44.3758 30.62 47 24.62 47 18C47 11.38 44.3758 5.38 40.1458 1L38.0308 3.16C41.7517 7 44.0625 12.22 44.0625 18C44.0625 23.8 41.7517 29 38.0308 32.84L40.1458 35ZM8.96917 32.84C5.24833 29 2.9375 23.8 2.9375 18C2.9375 12.22 5.24833 7 8.96917 3.16L6.85417 1C2.62417 5.38 0 11.38 0 18C0 24.62 2.62417 30.62 6.85417 35L8.96917 32.84Z" fill="white"/>
</svg>
