<svg width="91" height="56" viewBox="0 0 91 56" fill="none"
    xmlns="http://www.w3.org/2000/svg">
    <path d="M4.39648 44.1789H88.4466V44.4794H4.39648V44.1789ZM6.09953 52.9445H8.85444V54.3471H4.39648V46.7335H6.09953V52.9445ZM17.2194 46.7335H15.4663L12.6112 54.3471H14.3643L14.9153 52.644H17.7203L18.2713 54.3471H20.0244L17.2194 46.7335ZM15.316 51.4419L16.0172 49.3882L16.1675 48.9374L16.3178 48.3363C16.3679 48.5367 16.418 48.737 16.468 48.8873C16.5181 49.0877 16.5682 49.1878 16.6183 49.3381L17.3196 51.4419H15.316ZM40.3106 46.7335H38.5575L35.7024 54.3471H37.5056L38.0566 52.644H40.8616L41.3124 53.9463C41.3124 53.9964 41.3625 53.9964 41.3625 53.9964L41.4627 54.297H43.2158L40.3106 46.7335ZM38.4573 51.4419L39.1586 49.3882L39.3088 48.9374L39.4591 48.3363C39.5092 48.5367 39.5593 48.737 39.6094 48.8873C39.6595 49.0877 39.7095 49.1878 39.7596 49.3381L40.4609 51.4419H38.4573ZM64.3535 46.7335H62.6004L59.7453 54.3471H61.4984L62.0494 52.644H64.8544L65.4054 54.3471H67.1586L64.3535 46.7335ZM62.5002 51.4419L63.2015 49.3882L63.3518 48.9374L63.502 48.3363C63.5521 48.5367 63.6022 48.737 63.6523 48.8873C63.7024 49.0877 63.7525 49.1878 63.8026 49.3381L64.5038 51.4419H62.5002ZM85.6416 46.7335H83.8884L81.0333 54.3471H82.7865L83.3374 52.644H86.1425L86.6934 54.3471H88.4466L85.6416 46.7335ZM83.7382 51.4419L84.4394 49.3882L84.5897 48.9374L84.7399 48.3363C84.79 48.5367 84.8401 48.737 84.8902 48.8873C84.9403 49.0877 84.9904 49.1878 85.0405 49.3381L85.7417 51.4419H83.7382ZM31.0942 52.2433L30.8437 52.4437L30.7936 52.4937C30.6934 52.5939 30.5933 52.644 30.4931 52.6941L30.1925 52.8444C30.0924 52.8945 29.9922 52.8945 29.8419 52.9445C29.6917 52.9946 29.5915 52.9946 29.3911 52.9946C29.1407 52.9946 28.8902 52.9445 28.6398 52.8444C28.3893 52.7442 28.189 52.5939 28.0387 52.3936C27.8383 52.1932 27.7382 51.9428 27.638 51.6422C27.5378 51.3417 27.4877 50.9911 27.4877 50.5903C27.4877 50.1896 27.5378 49.8891 27.638 49.5886C27.7382 49.288 27.8884 49.0376 28.0888 48.8372C28.2892 48.6369 28.4895 48.4365 28.74 48.3363C28.9904 48.2361 29.2909 48.186 29.5915 48.186C29.7918 48.186 29.892 48.2361 30.0423 48.2361C30.1925 48.2862 30.2927 48.2862 30.3929 48.3363C30.4931 48.3864 30.5933 48.4365 30.6434 48.4866C30.7435 48.5367 30.7936 48.5868 30.8437 48.6369C30.8938 48.6369 30.8938 48.6869 30.8938 48.6869L31.2444 48.9875L31.4949 48.5868L32.0459 47.7853C31.8956 47.6351 31.7453 47.4848 31.545 47.3846C31.3446 47.2344 31.1442 47.1843 30.9439 47.0841C30.7435 46.9839 30.4931 46.9338 30.2426 46.8837C29.9922 46.8336 29.7417 46.7835 29.4412 46.7835C28.8902 46.7835 28.3392 46.8837 27.8884 47.0841C27.4376 47.2844 27.0369 47.5349 26.6863 47.8855C26.3357 48.2361 26.0852 48.6369 25.8849 49.0877C25.6845 49.5886 25.6344 50.0894 25.6344 50.6404C25.6344 51.1914 25.7346 51.7424 25.8849 52.1932C26.0351 52.6941 26.2856 53.0948 26.5861 53.3954C26.8866 53.746 27.2874 53.9964 27.7382 54.1968C28.189 54.3971 28.6899 54.4973 29.2408 54.4973C29.8419 54.4973 30.3929 54.3971 30.8437 54.1968C31.2945 53.9964 31.6451 53.746 31.8956 53.3453L31.9457 53.2952L31.0942 52.2433ZM54.6863 46.7335H53.8348L53.6845 47.0841L51.8312 50.8408C51.7811 50.9911 51.6809 51.0912 51.6308 51.2916C51.5807 51.4419 51.4806 51.5921 51.4305 51.7424C51.3804 51.5921 51.3303 51.4419 51.2301 51.2916C51.18 51.1413 51.0798 51.0411 51.0298 50.8909L49.2265 47.0841L49.0763 46.7835H47.273V54.3971H48.7757V49.7388C48.7757 49.6386 48.7256 49.4884 48.7256 49.3882L50.6791 53.2952L50.8795 53.6458H51.9815L52.1818 53.2451L52.5324 52.5438L52.6326 52.3435L54.1353 49.3882C54.0852 49.6386 54.0852 49.8891 54.0852 50.0894V54.4472H55.5879V46.7335H54.6863ZM75.824 51.6923C75.7238 51.542 75.6738 51.4419 75.5736 51.3918C75.4734 51.2916 75.3732 51.2415 75.273 51.1914C75.5235 51.0912 75.7238 50.9911 75.8741 50.8408C76.0745 50.6905 76.2247 50.5403 76.3249 50.3399C76.4752 50.1395 76.5253 49.9392 76.6255 49.7388C76.6756 49.5385 76.7256 49.288 76.7256 49.0376C76.7256 48.737 76.6755 48.4365 76.5754 48.136C76.4752 47.8354 76.3249 47.6351 76.0745 47.4347C75.824 47.2343 75.5235 47.0841 75.1729 46.9839C74.7721 46.8837 74.3213 46.8336 73.8204 46.8336H71.4162V54.4472H73.1192V51.5921H73.57C73.7203 51.5921 73.8204 51.6422 73.8705 51.6422C73.9707 51.6923 74.0208 51.7424 74.0709 51.8426L74.7221 52.9946V53.0447L75.273 54.0465C75.273 54.0966 75.3231 54.0966 75.3231 54.0966L75.4734 54.3471H77.4269L75.824 51.6923ZM73.7203 50.3399H73.019V48.0859H73.7203C74.1711 48.0859 74.4716 48.1861 74.672 48.3363C74.8723 48.5367 74.9725 48.7871 74.9725 49.1377C74.9725 49.288 74.9224 49.4383 74.8723 49.5886C74.8222 49.7388 74.7221 49.839 74.672 49.9893C74.5718 50.0895 74.4215 50.1896 74.2713 50.2397C74.1711 50.2898 73.9707 50.3399 73.7203 50.3399Z" fill="#EBEFF4"/>
    <path d="M20.5754 32.8086V26.0966C15.8169 25.1449 12.3106 21.4383 12.3106 17.5814C12.3106 13.9749 15.7167 10.1682 20.5754 9.26654V2.60464C10.4573 3.55634 4.39648 10.669 4.39648 17.6816C4.39648 24.9946 10.858 31.8068 20.5754 32.8086Z" fill="#C12A21"/>
    <path d="M88.4452 32.8086V26.0966C83.6867 25.1449 80.1804 21.4383 80.1804 17.5814C80.1804 13.9749 83.5865 10.1682 88.4452 9.26654V2.60464C78.3271 3.55634 72.3164 10.7191 72.3164 17.6816C72.3164 24.9946 78.7779 31.8068 88.4452 32.8086Z" fill="#456091"/>
    <path d="M50.0778 26.9481C50.6288 25.8462 50.8792 24.644 50.8792 23.3918C50.8792 21.6387 50.3282 20.136 49.1762 18.6834C48.0241 17.2809 46.6717 16.2791 45.0188 15.6279C43.3658 15.0268 40.7612 14.3757 37.2048 13.7746C35.1011 13.424 33.6986 12.9732 33.0975 12.4723C32.4964 11.9714 32.1959 11.3703 32.1959 10.6691C32.1959 8.86585 33.7987 7.96424 37.0045 7.96424C38.9579 7.96424 40.5107 8.46513 41.6127 9.51701H49.8774C47.974 4.85869 43.5662 2.50449 36.754 2.50449C32.9472 2.50449 29.8918 3.4061 27.6377 5.25941C25.3837 7.11272 24.2817 9.36674 24.2817 12.0215C24.2817 14.6261 25.2334 16.6297 27.0867 17.9821C28.9901 19.3345 32.1458 20.4365 36.5536 21.1879C38.9579 21.6387 40.5107 22.0394 41.3622 22.5403C42.2138 23.0412 42.6145 23.6923 42.6145 24.5939C42.6145 25.4455 42.1637 26.1968 41.212 26.7979C41.1619 26.848 41.0617 26.898 41.0116 26.898C41.0116 26.898 40.11 27.5492 36.9544 27.5492C33.7987 27.5492 32.8971 26.898 32.8971 26.898C31.9454 26.4472 31.1941 25.7961 30.6932 24.9946H22.4785C22.6789 25.6959 22.9293 26.297 23.2299 26.898C23.2299 26.898 26.7862 32.8086 36.9544 32.8086C47.0724 32.9088 50.0778 26.9481 50.0778 26.9481Z" fill="#C12A21"/>
    <path d="M61.3466 26.297V2.50449H53.6328V32.8587H72.3162V26.297H61.3466Z" fill="#456091"/>
    <path d="M12.1603 40.322C12.1603 40.5724 12.1103 40.7728 12.0602 40.9732C11.96 41.1735 11.8598 41.3739 11.7596 41.4741C11.6094 41.6243 11.4591 41.7245 11.2587 41.8247C11.0584 41.9249 10.858 41.975 10.6076 41.975C10.3571 41.975 10.1568 41.9249 9.95641 41.8247C9.75605 41.7245 9.5557 41.6243 9.45552 41.4741C9.30525 41.3238 9.20507 41.1735 9.15498 40.9732C9.0548 40.7728 9.0548 40.5724 9.0548 40.322C9.0548 40.0716 9.10489 39.8712 9.15498 39.6708C9.25516 39.4705 9.35534 39.2701 9.45552 39.1699C9.60579 39.0197 9.75605 38.9195 9.95641 38.8193C10.1568 38.7191 10.3571 38.669 10.6076 38.669C10.858 38.669 11.0584 38.7191 11.2587 38.8193C11.4591 38.9195 11.6595 39.0197 11.7596 39.1699C11.9099 39.3202 12.0101 39.4705 12.0602 39.6708C12.1103 39.8712 12.1603 40.0716 12.1603 40.322ZM11.5092 40.322C11.5092 40.1717 11.4591 40.0215 11.409 39.8712C11.3589 39.7209 11.3088 39.6207 11.2086 39.5206C11.1085 39.4204 11.0083 39.3703 10.9081 39.3202C10.7578 39.2701 10.6577 39.22 10.4573 39.22C10.307 39.22 10.1568 39.2701 10.0065 39.3202C9.85623 39.3703 9.75605 39.4705 9.70597 39.5206C9.60579 39.6207 9.5557 39.7209 9.50561 39.8712C9.45552 40.0215 9.40543 40.1717 9.40543 40.322C9.40543 40.4723 9.45552 40.6225 9.50561 40.7728C9.5557 40.9231 9.60579 41.0233 9.70597 41.1234C9.80614 41.2236 9.90632 41.2737 10.0065 41.3238C10.1568 41.3739 10.2569 41.424 10.4573 41.424C10.6076 41.424 10.7578 41.3739 10.9081 41.3238C11.0584 41.2737 11.1085 41.1735 11.2086 41.1234C11.3088 41.0233 11.3589 40.9231 11.409 40.7728C11.5092 40.6726 11.5092 40.4723 11.5092 40.322ZM14.765 40.6726V41.9249H14.1639V38.7191H15.1156C15.316 38.7191 15.5163 38.7692 15.6666 38.7692C15.8169 38.8193 15.9171 38.8694 16.0673 38.9696C16.1675 39.0698 16.2176 39.1699 16.2677 39.2701C16.3178 39.3703 16.3679 39.5206 16.3679 39.6708C16.3679 39.771 16.3178 39.8712 16.3178 39.9714C16.2677 40.0716 16.2176 40.1717 16.1675 40.2218C16.1174 40.322 16.0172 40.3721 15.9671 40.4222L15.6666 40.5724C15.7668 40.6225 15.8169 40.6726 15.867 40.7728L16.6684 41.9249H15.9671L15.2158 40.7728L15.1156 40.6726C15.0655 40.6225 15.0154 40.6225 14.9654 40.6225H14.765V40.6726ZM14.765 40.2719H15.1657C15.2659 40.2719 15.3661 40.2218 15.4663 40.2218C15.5664 40.1717 15.6165 40.1717 15.6666 40.1216C15.7167 40.0716 15.7668 40.0215 15.7668 39.9714C15.8169 39.8712 15.8169 39.8211 15.8169 39.771C15.8169 39.6207 15.7668 39.4705 15.6666 39.3703C15.5664 39.2701 15.4162 39.22 15.1657 39.22H14.765V40.2719ZM24.9832 38.7191V39.1699H23.5807V40.0716H24.6827V40.5724H23.5807V41.4741H24.9832V41.9249H22.9797V38.7191H24.9832ZM29.892 40.322C29.892 40.5724 29.8419 40.7728 29.7918 40.9732C29.6917 41.1735 29.5915 41.3238 29.4913 41.4741C29.341 41.6243 29.1908 41.7245 28.9904 41.7746C28.79 41.8748 28.5897 41.8748 28.3392 41.8748H27.1371V38.669H28.3392C28.5897 38.669 28.79 38.7191 28.9904 38.7692C29.1908 38.8694 29.3911 38.9696 29.4913 39.0698C29.6416 39.22 29.7417 39.3703 29.7918 39.5707C29.8419 39.8712 29.892 40.0716 29.892 40.322ZM29.2909 40.322C29.2909 40.1717 29.2408 40.0215 29.1908 39.8712C29.1407 39.7209 29.0906 39.6207 28.9904 39.5206C28.8902 39.4204 28.79 39.3703 28.6899 39.3202C28.5396 39.2701 28.4394 39.22 28.2391 39.22H27.638V41.4741H28.2391C28.3893 41.4741 28.5396 41.424 28.6899 41.3739C28.8401 41.3238 28.8902 41.2236 28.9904 41.1735C29.0906 41.0733 29.1407 40.9732 29.1908 40.8229C29.2408 40.6726 29.2909 40.4723 29.2909 40.322ZM34.951 40.322C34.951 40.5724 34.901 40.7728 34.8509 40.9732C34.7507 41.1735 34.6505 41.3739 34.5503 41.4741C34.4001 41.6243 34.2498 41.7245 34.0494 41.8247C33.8491 41.9249 33.6487 41.975 33.3983 41.975C33.1478 41.975 32.9475 41.9249 32.7471 41.8247C32.5468 41.7245 32.3464 41.6243 32.2462 41.4741C32.0959 41.3238 31.9958 41.1735 31.9457 40.9732C31.8455 40.7728 31.8455 40.5724 31.8455 40.322C31.8455 40.0716 31.8956 39.8712 31.9457 39.6708C31.9958 39.4705 32.146 39.2701 32.2462 39.1699C32.3965 39.0197 32.5468 38.9195 32.7471 38.8193C32.9475 38.7191 33.1478 38.669 33.3983 38.669C33.6487 38.669 33.8491 38.7191 34.0494 38.8193C34.2498 38.9195 34.4502 39.0197 34.5503 39.1699C34.7006 39.3202 34.8008 39.4705 34.8509 39.6708C34.901 39.8712 34.951 40.0716 34.951 40.322ZM34.35 40.322C34.35 40.1717 34.2999 40.0215 34.2498 39.8712C34.1997 39.7209 34.1496 39.6207 34.0494 39.5206C33.9493 39.4204 33.8491 39.3703 33.7489 39.3202C33.5986 39.2701 33.4985 39.22 33.2981 39.22C33.1478 39.22 32.9976 39.2701 32.8974 39.3202C32.7471 39.3703 32.6469 39.4705 32.5968 39.5206C32.4967 39.6207 32.4466 39.7209 32.3965 39.8712C32.3464 40.0215 32.2963 40.1717 32.2963 40.322C32.2963 40.4723 32.3464 40.6225 32.3965 40.7728C32.4466 40.9231 32.4967 41.0233 32.5968 41.1234C32.697 41.2236 32.7972 41.2737 32.8974 41.3238C33.0476 41.3739 33.1478 41.424 33.2981 41.424C33.4484 41.424 33.5986 41.3739 33.7489 41.3238C33.8992 41.2737 33.9493 41.1735 34.0494 41.1234C34.1496 41.0233 34.1997 40.9231 34.2498 40.7728C34.2999 40.6726 34.35 40.4723 34.35 40.322ZM44.2176 41.9249H43.6165L43.316 41.1234H42.0137L41.663 41.9249H41.062L42.3142 38.7191H42.9153L44.2176 41.9249ZM42.1138 40.7227H43.1657L42.765 39.6708C42.7149 39.6207 42.7149 39.5707 42.7149 39.5206C42.7149 39.4705 42.6648 39.3703 42.6648 39.2701C42.6147 39.3703 42.6147 39.4204 42.6147 39.4705C42.5646 39.5206 42.5646 39.5707 42.5646 39.6207L42.1138 40.7227ZM51.2802 40.322C51.2802 40.5724 51.2301 40.7728 51.18 40.9732C51.0798 41.1735 50.9797 41.3238 50.8795 41.4741C50.7292 41.6243 50.579 41.7245 50.3786 41.7746C50.1782 41.8748 49.9779 41.8748 49.7274 41.8748H48.5253V38.669H49.6773C49.9278 38.669 50.1281 38.7191 50.3285 38.7692C50.5289 38.8694 50.7292 38.9696 50.8294 39.0698C50.9797 39.22 51.0798 39.3703 51.1299 39.5707C51.2301 39.8712 51.2802 40.0716 51.2802 40.322ZM50.6791 40.322C50.6791 40.1717 50.629 40.0215 50.579 39.8712C50.5289 39.7209 50.4788 39.6207 50.3786 39.5206C50.2784 39.4204 50.1782 39.3703 50.0781 39.3202C49.9278 39.2701 49.8276 39.22 49.6273 39.22H49.0262V41.4741H49.6273C49.7775 41.4741 49.9278 41.424 50.0781 41.3739C50.2283 41.3238 50.2784 41.2236 50.3786 41.1735C50.4788 41.0733 50.5289 40.9732 50.579 40.8229C50.629 40.6726 50.6791 40.4723 50.6791 40.322ZM55.2874 38.7191V39.1699H53.8849V40.0716H54.9868V40.5724H53.8849V41.4741H55.2874V41.9249H53.2838V38.7191H55.2874ZM65.6559 38.7191V39.1699H64.2534V40.0716H65.3553V40.5724H64.2534V41.4741H65.6559V41.9249H63.6523V38.7191H65.6559ZM73.7203 41.424C73.8204 41.424 73.9206 41.3739 74.0208 41.3739C74.121 41.3238 74.1711 41.2737 74.2212 41.2236C74.2713 41.1234 74.3213 41.0733 74.3714 40.9732C74.4215 40.873 74.4215 40.7728 74.4215 40.6726V38.7692H75.0226V40.6726C75.0226 40.873 74.9725 41.0233 74.9224 41.1735C74.8723 41.3238 74.7721 41.4741 74.672 41.5742C74.5718 41.6744 74.4215 41.7746 74.2713 41.8247C74.121 41.8748 73.9206 41.9249 73.7203 41.9249C73.5199 41.9249 73.3195 41.8748 73.1693 41.8247C73.019 41.7746 72.8688 41.6744 72.7686 41.5742C72.6684 41.4741 72.5682 41.3238 72.5181 41.1735C72.468 41.0233 72.4179 40.873 72.4179 40.6726V38.7692H73.019V40.6726C73.019 40.8229 73.0691 40.9231 73.0691 40.9732C73.1192 41.0733 73.1693 41.1735 73.2194 41.2236C73.2695 41.3238 73.3696 41.3739 73.4197 41.3739C73.5199 41.424 73.6201 41.424 73.7203 41.424ZM84.5897 40.322C84.5897 40.5724 84.5396 40.7728 84.4895 40.9732C84.3893 41.1735 84.2891 41.3739 84.189 41.4741C84.0387 41.6243 83.8884 41.7245 83.6881 41.8247C83.4877 41.9249 83.2874 41.975 83.0369 41.975C82.7865 41.975 82.5861 41.9249 82.3857 41.8247C82.1854 41.7245 81.985 41.6243 81.8848 41.4741C81.7346 41.3238 81.6344 41.1735 81.5843 40.9732C81.4841 40.7728 81.4841 40.5724 81.4841 40.322C81.4841 40.0716 81.5342 39.8712 81.5843 39.6708C81.6344 39.4705 81.7847 39.2701 81.8848 39.1699C82.0351 39.0197 82.1854 38.9195 82.3857 38.8193C82.5861 38.7191 82.7865 38.669 83.0369 38.669C83.2874 38.669 83.4877 38.7191 83.6881 38.8193C83.8884 38.9195 84.0888 39.0197 84.189 39.1699C84.3392 39.3202 84.4394 39.4705 84.4895 39.6708C84.5396 39.8712 84.5897 40.0716 84.5897 40.322ZM83.9385 40.322C83.9385 40.1717 83.8884 40.0215 83.8383 39.8712C83.7882 39.7209 83.7382 39.6207 83.638 39.5206C83.5378 39.4204 83.4376 39.3703 83.3374 39.3202C83.1872 39.2701 83.087 39.22 82.8866 39.22C82.7364 39.22 82.5861 39.2701 82.4358 39.3202C82.2856 39.3703 82.1854 39.4705 82.1353 39.5206C82.0351 39.6207 81.985 39.7209 81.9349 39.8712C81.8848 40.0215 81.8348 40.1717 81.8348 40.322C81.8348 40.4723 81.8848 40.6225 81.9349 40.7728C81.985 40.9231 82.0351 41.0233 82.1353 41.1234C82.2355 41.2236 82.3356 41.2737 82.4358 41.3238C82.5861 41.3739 82.6863 41.424 82.8866 41.424C83.0369 41.424 83.1872 41.3739 83.3374 41.3238C83.4877 41.2737 83.5378 41.1735 83.638 41.1234C83.7382 41.0233 83.7882 40.9231 83.8383 40.7728C83.9385 40.6726 83.9385 40.4723 83.9385 40.322ZM6.65051 41.1735C6.60042 41.2236 6.55033 41.2737 6.50024 41.2737C6.45015 41.3238 6.40006 41.3238 6.34997 41.3739C6.29988 41.424 6.24979 41.424 6.14961 41.424H5.94926C5.79899 41.424 5.69881 41.3739 5.54854 41.3238C5.44836 41.2737 5.34818 41.1735 5.248 41.1234C5.14783 41.0233 5.09774 40.9231 5.04765 40.7728C4.99756 40.6225 4.94747 40.4723 4.94747 40.2719C4.94747 40.1216 4.99756 39.9714 5.04765 39.8211C5.09774 39.6708 5.14783 39.5707 5.248 39.4705C5.34818 39.3703 5.44836 39.3202 5.54854 39.2701C5.69881 39.22 5.79899 39.1699 5.94926 39.1699C6.09953 39.1699 6.1997 39.1699 6.24979 39.22C6.34997 39.2701 6.40006 39.2701 6.45015 39.3202C6.50024 39.3703 6.55033 39.3703 6.60042 39.4204L6.75069 39.5206L7.05122 39.1199C6.90096 38.9696 6.80078 38.9195 6.60042 38.8193C6.40006 38.7191 6.1997 38.7191 5.99935 38.7191C5.79899 38.7191 5.54854 38.7692 5.29809 38.8193C5.09774 38.9195 4.89738 39.0197 4.7972 39.1199C4.64693 39.2701 4.54675 39.4204 4.49666 39.6207C4.39648 39.8211 4.39648 40.0215 4.39648 40.2719C4.39648 40.5224 4.44657 40.7227 4.49666 40.9231C4.59684 41.1234 4.64693 41.3238 4.7972 41.424C4.94747 41.5742 5.09774 41.6744 5.29809 41.7245C5.49845 41.8247 5.69881 41.8748 5.94926 41.8748C6.1997 41.8748 6.45015 41.8247 6.65051 41.7245C6.85087 41.6243 7.00114 41.5241 7.1514 41.3238L6.85087 40.9732L6.65051 41.1735ZM19.1729 40.6726V41.9249H18.5718V38.7191H19.5235C19.7239 38.7191 19.9242 38.7692 20.0745 38.7692C20.2247 38.8193 20.3249 38.8694 20.4752 38.9696C20.5754 39.0698 20.6255 39.1699 20.6756 39.2701C20.7256 39.3703 20.7757 39.5206 20.7757 39.6708C20.7757 39.771 20.7256 39.8712 20.7256 39.9714C20.6756 40.0716 20.6255 40.1717 20.5754 40.2218C20.5253 40.322 20.4251 40.3721 20.375 40.4222L20.0745 40.5724C20.1747 40.6225 20.2247 40.6726 20.2748 40.7728L21.0763 41.9249H20.375L19.6237 40.7728L19.5235 40.6726C19.4734 40.6225 19.4233 40.6225 19.3732 40.6225H19.1729V40.6726ZM19.1729 40.2719H19.5736C19.6738 40.2719 19.7739 40.2218 19.8741 40.2218C19.9743 40.1717 20.0244 40.1717 20.0745 40.1216C20.1246 40.0716 20.1747 40.0215 20.1747 39.9714C20.2247 39.8712 20.2247 39.8211 20.2247 39.771C20.2247 39.6207 20.1747 39.4705 20.0745 39.3703C19.9743 39.2701 19.824 39.22 19.5736 39.22H19.1729V40.2719ZM37.5557 40.6726V41.9249H36.9546V38.7191H37.9063C38.1067 38.7191 38.307 38.7692 38.4573 38.7692C38.6076 38.8193 38.7078 38.8694 38.858 38.9696C38.9582 39.0698 39.0083 39.1699 39.0584 39.2701C39.1085 39.3703 39.1586 39.5206 39.1586 39.6708C39.1586 39.771 39.1085 39.8712 39.1085 39.9714C39.0584 40.0716 39.0083 40.1717 38.9582 40.2218C38.9081 40.322 38.8079 40.3721 38.7578 40.4222L38.4573 40.5724C38.5575 40.6225 38.6076 40.6726 38.6577 40.7728L39.4591 41.9249H38.7578L38.0065 40.7728L37.9063 40.6726C37.8562 40.6225 37.8061 40.6225 37.7561 40.6225H37.5557V40.6726ZM37.5557 40.2719H37.9564C38.0566 40.2719 38.1568 40.2218 38.2569 40.2218C38.3571 40.1717 38.4072 40.1717 38.4573 40.1216C38.5074 40.0716 38.5575 40.0215 38.5575 39.9714C38.6076 39.8712 38.6076 39.8211 38.6076 39.771C38.6076 39.6207 38.5575 39.4705 38.4573 39.3703C38.3571 39.2701 38.2069 39.22 37.9564 39.22H37.5557V40.2719ZM77.8276 40.6726V41.9249H77.2265V38.7191H78.1782C78.3786 38.7191 78.5789 38.7692 78.7292 38.7692C78.8795 38.8193 78.9797 38.8694 79.1299 38.9696C79.2301 39.0698 79.2802 39.1699 79.3303 39.2701C79.3804 39.3703 79.4305 39.5206 79.4305 39.6708C79.4305 39.771 79.3804 39.8712 79.3804 39.9714C79.3303 40.0716 79.2802 40.1717 79.2301 40.2218C79.18 40.322 79.0798 40.3721 79.0298 40.4222L78.7292 40.5724C78.8294 40.6225 78.8795 40.6726 78.9296 40.7728L79.731 41.9249H79.0298L78.2784 40.7728L78.1782 40.6726C78.1281 40.6225 78.0781 40.6225 78.028 40.6225H77.8276V40.6726ZM77.8276 40.2719H78.2283C78.3285 40.2719 78.4287 40.2218 78.5289 40.2218C78.629 40.1717 78.6791 40.1717 78.7292 40.1216C78.7793 40.0716 78.8294 40.0215 78.8294 39.9714C78.8795 39.8712 78.8795 39.8211 78.8795 39.771C78.8795 39.6207 78.8294 39.4705 78.7292 39.3703C78.629 39.2701 78.4788 39.22 78.2283 39.22H77.8276V40.2719ZM69.2623 40.322V40.7728H69.7632V41.3238C69.663 41.3739 69.5629 41.424 69.5128 41.424C69.4126 41.4741 69.3124 41.4741 69.1621 41.4741C69.0119 41.4741 68.8616 41.424 68.7614 41.3739C68.6112 41.3238 68.511 41.2236 68.4609 41.1735C68.3607 41.0733 68.3106 40.9732 68.2605 40.8229C68.2104 40.6726 68.1603 40.5224 68.1603 40.322C68.1603 40.1717 68.2104 40.0215 68.2605 39.8712C68.3106 39.7209 68.3607 39.6207 68.4609 39.5206C68.5611 39.4204 68.6612 39.3703 68.7614 39.3202C68.9117 39.2701 69.0119 39.22 69.2122 39.22C69.3124 39.22 69.4126 39.22 69.4627 39.2701C69.5628 39.3202 69.6129 39.3202 69.663 39.3202C69.7131 39.3202 69.7632 39.3703 69.8133 39.4204C69.8634 39.4705 69.9135 39.4705 69.9636 39.5206L70.1138 39.6207L70.3643 39.1699C70.214 39.0197 70.0637 38.9696 69.8634 38.8694C69.663 38.7692 69.4627 38.7692 69.1621 38.7692C68.9117 38.7692 68.6612 38.8193 68.4609 38.8694C68.2605 38.9696 68.0602 39.0698 67.96 39.1699C67.8598 39.2701 67.7095 39.4705 67.6594 39.6708C67.5593 39.8712 67.5593 40.0716 67.5593 40.322C67.5593 40.5724 67.6094 40.7728 67.6594 40.9732C67.7596 41.1735 67.8598 41.3739 67.96 41.4741C68.1103 41.6243 68.2605 41.7245 68.4609 41.7746C68.6612 41.8748 68.8616 41.9249 69.112 41.9249C69.2623 41.9249 69.3625 41.9249 69.5128 41.8748C69.6129 41.8748 69.7131 41.8247 69.8133 41.8247C69.9135 41.7746 70.0136 41.7746 70.0637 41.7245C70.1138 41.6744 70.214 41.6243 70.3142 41.5742V40.2719L69.2623 40.322ZM61.5986 40.5724C61.5485 40.4723 61.4985 40.4222 61.4484 40.322C61.3482 40.2719 61.2981 40.2218 61.1979 40.1717C61.0977 40.1216 60.9976 40.0716 60.9475 40.0716C60.8473 40.0215 60.7471 40.0215 60.697 39.9714C60.6469 39.9213 60.5467 39.9213 60.4466 39.8712C60.3464 39.8211 60.2963 39.771 60.2963 39.7209C60.2462 39.6708 60.2462 39.6207 60.2462 39.5206C60.2462 39.4705 60.2462 39.4204 60.2963 39.3703C60.3464 39.3202 60.3464 39.2701 60.3965 39.22C60.4466 39.1699 60.4967 39.1699 60.5467 39.1199C60.5968 39.0698 60.697 39.0698 60.7471 39.0698C60.7972 39.0698 60.8974 39.0698 60.9976 39.1199C61.0476 39.1699 61.1478 39.1699 61.1478 39.22C61.1979 39.2701 61.248 39.2701 61.2981 39.3202H61.3482L61.4984 39.4204L61.6988 38.9696C61.5986 38.8694 61.4484 38.7692 61.2981 38.7191C61.1478 38.669 60.9976 38.619 60.7972 38.619C60.6469 38.619 60.4967 38.669 60.3464 38.7191C60.1961 38.7692 60.0959 38.8193 60.0459 38.9195C59.9457 39.0197 59.8956 39.1199 59.8455 39.22C59.7954 39.3202 59.7453 39.4204 59.7453 39.5206C59.7453 39.6708 59.7954 39.771 59.7954 39.9213C59.8455 40.0215 59.8956 40.1216 59.9457 40.1717C60.0459 40.2218 60.0959 40.2719 60.1961 40.322C60.2963 40.3721 60.3965 40.4222 60.4466 40.4222C60.5467 40.4723 60.6469 40.4723 60.697 40.5224C60.7972 40.5724 60.8473 40.5724 60.9475 40.6225C61.0476 40.6726 61.0977 40.7227 61.0977 40.7728C61.1478 40.8229 61.1478 40.873 61.1478 40.9732C61.1478 41.1234 61.0977 41.2236 60.9976 41.3238C60.8974 41.424 60.7972 41.424 60.5968 41.424C60.4967 41.424 60.3965 41.3739 60.3464 41.3739C60.2462 41.3238 60.1961 41.3238 60.146 41.2737C60.0959 41.2236 60.0459 41.1735 59.9958 41.1735H59.9457L59.6952 41.0733L59.4448 41.5241C59.4949 41.5742 59.5951 41.6243 59.6451 41.6744C59.7453 41.7245 59.7954 41.7746 59.8956 41.8247C59.9958 41.8748 60.0959 41.8748 60.146 41.9249C60.2462 41.9749 60.3464 41.975 60.4466 41.975C60.6469 41.975 60.7471 41.9249 60.8974 41.8748C61.0476 41.8247 61.1478 41.7245 61.248 41.6744C61.3482 41.5742 61.3983 41.4741 61.4484 41.3739C61.4985 41.2236 61.5485 41.1234 61.5485 40.9732C61.6487 40.7728 61.6487 40.6726 61.5986 40.5724ZM88.3965 40.5724C88.3464 40.4723 88.2963 40.4222 88.2462 40.322C88.146 40.2719 88.0959 40.2218 87.9958 40.1717C87.8956 40.1216 87.7954 40.0716 87.7453 40.0716C87.6451 40.0215 87.545 40.0215 87.4949 39.9714C87.4448 39.9213 87.3446 39.9213 87.2444 39.8712C87.1442 39.8211 87.0941 39.771 87.0941 39.7209C87.0441 39.6708 87.0441 39.6207 87.0441 39.5206C87.0441 39.4705 87.0441 39.4204 87.0941 39.3703C87.1442 39.3202 87.1442 39.2701 87.1943 39.22C87.2444 39.1699 87.2945 39.1699 87.3446 39.1199C87.3947 39.0698 87.4949 39.0698 87.545 39.0698C87.595 39.0698 87.6952 39.0698 87.7954 39.1199C87.8455 39.1699 87.9457 39.1699 87.9457 39.22C87.9958 39.2701 88.0459 39.2701 88.0959 39.3202H88.146L88.2963 39.4204L88.4967 38.9696C88.3965 38.8694 88.2462 38.7692 88.0959 38.7191C87.9457 38.669 87.7954 38.619 87.595 38.619C87.4448 38.619 87.2945 38.669 87.1442 38.7191C86.994 38.7692 86.8938 38.8193 86.8437 38.9195C86.7435 39.0197 86.6934 39.1199 86.6433 39.22C86.5933 39.3202 86.5432 39.4204 86.5432 39.5206C86.5432 39.6708 86.5933 39.771 86.5933 39.9213C86.6433 40.0215 86.6934 40.1216 86.7435 40.1717C86.8437 40.2218 86.8938 40.2719 86.994 40.322C87.0942 40.3721 87.1943 40.4222 87.2444 40.4222C87.3446 40.4723 87.4448 40.4723 87.4949 40.5224C87.545 40.5724 87.6451 40.5724 87.7453 40.6225C87.8455 40.6726 87.8956 40.7227 87.8956 40.7728C87.9457 40.8229 87.9457 40.873 87.9457 40.9732C87.9457 41.1234 87.8956 41.2236 87.7954 41.3238C87.6952 41.424 87.595 41.424 87.3947 41.424C87.2945 41.424 87.1943 41.3739 87.1442 41.3739C87.0441 41.3238 86.994 41.3238 86.9439 41.2737C86.8938 41.2236 86.8437 41.1735 86.7936 41.1735H86.7435L86.5933 41.0733L86.3428 41.5241C86.3929 41.5742 86.4931 41.6243 86.5432 41.6744C86.6433 41.7245 86.6934 41.7746 86.7936 41.8247C86.8938 41.8748 86.994 41.8748 87.0441 41.9249C87.1442 41.9749 87.2444 41.975 87.3446 41.975C87.545 41.975 87.6451 41.9249 87.7954 41.8748C87.9457 41.8247 88.0459 41.7245 88.146 41.6744C88.2462 41.5742 88.2963 41.4741 88.3464 41.3739C88.3965 41.2236 88.4466 41.1234 88.4466 40.9732C88.4466 40.7728 88.4466 40.6726 88.3965 40.5724Z" fill="#EBEFF4"/>
</svg>
