<svg width="201" height="56" viewBox="0 0 201 56" fill="none"
    xmlns="http://www.w3.org/2000/svg">
    <g clip-path="url(#clip0_557_7576)">
        <mask id="mask0_557_7576" style="mask-type:luminance" maskUnits="userSpaceOnUse" x="0" y="0" width="36" height="36">
            <path d="M0.695312 0H35.7636V35.0683H0.695312V0Z" fill="white"/>
        </mask>
        <g mask="url(#mask0_557_7576)">
            <path d="M0.695312 0H35.7636V35.0683H0.695312V0Z" fill="url(#paint0_linear_557_7576)"/>
        </g>
        <mask id="mask1_557_7576" style="mask-type:luminance" maskUnits="userSpaceOnUse" x="1" y="0" width="35" height="34">
            <path d="M3.43287 0.618347C2.77505 0.618347 2.308 1.19065 2.20275 1.99319C2.20275 1.99319 1.32786 6.59791 1.32786 16.3731C1.28771 21.7778 1.57989 27.1799 2.20275 32.5488C2.28827 33.325 2.75532 33.9302 3.43287 33.9302H33.7911C33.9641 33.9246 34.134 33.8838 34.2907 33.8105C34.4474 33.7371 34.5875 33.6326 34.7026 33.5034C34.8176 33.3742 34.9052 33.223 34.96 33.0589C35.0148 32.8948 35.0356 32.7212 35.0213 32.5488C35.0213 32.5488 34.6792 25.0563 34.6792 17.7611C34.6792 10.4659 35.0213 1.97345 35.0213 1.97345C35.0322 1.63209 34.91 1.29984 34.6804 1.04696C34.4509 0.794074 34.132 0.640371 33.7911 0.618347H3.43287Z" fill="white"/>
        </mask>
        <g mask="url(#mask1_557_7576)">
            <path d="M1.32812 0.618347H35.0347V33.9302H1.32812V0.618347Z" fill="url(#paint1_linear_557_7576)"/>
        </g>
        <mask id="mask2_557_7576" style="mask-type:luminance" maskUnits="userSpaceOnUse" x="17" y="3" width="15" height="13">
            <path d="M20.4836 4.13768C21.4374 4.53895 25.2856 6.61765 25.7461 7.28205C23.0687 7.69894 20.4543 8.45034 17.9641 9.51863L17.8457 9.76202C20.352 9.28991 22.8889 8.99753 25.4369 8.88712C24.6646 9.99342 23.7998 11.0321 22.8517 11.992L22.7399 12.2551C25.0883 10.8408 25.7527 10.7422 27.9235 9.47258C28.7392 10.683 28.9365 13.4721 28.9694 15.689C29.6733 14.2812 30.5284 8.99237 30.1732 8.03854C31.6138 7.05181 31.8112 6.25585 31.8112 6.25585C30.8801 6.27982 29.9542 6.40108 29.0483 6.61765C26.4143 5.21625 23.5521 4.29412 20.5954 3.89429L20.4836 4.13768Z" fill="white"/>
        </mask>
        <g mask="url(#mask2_557_7576)">
            <path d="M17.8594 3.89429H31.8117V15.689H17.8594V3.89429Z" fill="url(#paint2_linear_557_7576)"/>
        </g>
        <mask id="mask3_557_7576" style="mask-type:luminance" maskUnits="userSpaceOnUse" x="4" y="20" width="9" height="11">
            <path d="M6.11592 20.5699C5.89196 22.0371 5.89196 23.5298 6.11592 24.997C5.46819 25.113 4.82874 25.2712 4.20167 25.4707L4.08984 25.7075C4.95619 26.2582 5.85706 26.7526 6.7869 27.1876C7.27428 28.2817 7.97158 29.2695 8.83929 30.0951L8.95111 29.8517C8.72525 29.2193 8.62253 28.5494 8.64852 27.8783C9.76703 28.2184 10.9267 28.4043 12.0955 28.4309L12.2073 28.1809C11.0345 27.8406 9.941 27.2703 8.99058 26.5035C9.27621 25.6982 9.67251 24.9366 10.1681 24.2406L10.2799 23.9972C9.29318 24.1419 8.39197 24.5103 7.53681 24.655C6.87899 23.4709 6.60271 21.8461 6.26064 20.3002L6.11592 20.5699Z" fill="white"/>
        </mask>
        <g mask="url(#mask3_557_7576)">
            <path d="M4.07617 20.32H12.1871V30.0951H4.07617V20.32Z" fill="url(#paint3_linear_557_7576)"/>
        </g>
        <mask id="mask4_557_7576" style="mask-type:luminance" maskUnits="userSpaceOnUse" x="6" y="10" width="15" height="10">
            <path d="M11.9909 12.4985C11.3341 12.4533 10.6754 12.4423 10.0175 12.4656C8.89734 12.4889 7.78138 12.6099 6.68233 12.8274L6.57708 13.0708C7.76773 13.1235 9.40569 13.4392 10.0306 14.0707C8.53857 15.5997 7.31934 17.373 6.42578 19.3135C6.42578 19.3135 9.71487 16.2547 11.0963 15.4982C11.0963 15.4982 11.833 17.9584 12.3461 19.1885L12.458 18.9451C12.6715 17.4914 13.0398 16.0646 13.5565 14.6891C13.9614 14.5516 14.3854 14.4783 14.813 14.472C16.5941 14.3377 18.3854 14.4529 20.1347 14.814L20.2465 14.5772C18.3966 13.6502 16.4081 13.0303 14.3591 12.7419H14.4446C14.6711 12.0824 14.9505 11.4423 15.28 10.8277C14.0839 11.1811 12.9672 11.7618 11.9909 12.538" fill="white"/>
        </mask>
        <g mask="url(#mask4_557_7576)">
            <path d="M6.42578 10.8145H20.2465V19.3069H6.42578V10.8145Z" fill="url(#paint4_linear_557_7576)"/>
        </g>
        <mask id="mask5_557_7576" style="mask-type:luminance" maskUnits="userSpaceOnUse" x="14" y="25" width="8" height="6">
            <path d="M18.8114 27.6283C18.772 27.1481 18.7391 26.7403 18.7128 26.2074C18.1869 26.9248 17.6294 27.6184 17.0419 28.2861C16.3512 28.4385 15.6431 28.496 14.9369 28.4572H14.1607L14.0488 28.7006C14.662 29.0088 15.3151 29.2302 15.9894 29.3584C15.4249 29.806 14.8291 30.2126 14.2067 30.5753L14.0949 30.8187C15.3557 30.5334 16.571 30.0752 17.7063 29.4571C18.1947 29.4834 18.6846 29.4547 19.1666 29.3715L19.2851 29.1281C19.2127 28.8782 18.9956 28.7269 18.9298 28.3848C19.8349 27.6655 20.6899 26.8853 21.4887 26.0496L21.6072 25.7996C20.724 26.4806 19.7892 27.092 18.8114 27.6283Z" fill="white"/>
        </mask>
        <g mask="url(#mask5_557_7576)">
            <path d="M14.0488 25.7996H21.6269V30.8253H14.0488V25.7996Z" fill="url(#paint5_linear_557_7576)"/>
        </g>
        <path d="M28.0682 9.20946C25.904 10.479 25.2396 10.5909 22.8846 11.9986C23.8831 10.9594 24.7858 9.83211 25.5817 8.63058C23.0381 8.74168 20.5056 9.03405 18.0036 9.50547C20.5081 8.31776 23.1644 7.48103 25.8974 7.01892C25.4172 6.36111 21.569 4.2824 20.6349 3.88113C23.6806 4.11795 27.4038 5.25597 29.1865 6.35453C30.0963 6.14984 31.0238 6.03308 31.9559 6.00588C31.6222 6.76759 31.0402 7.39369 30.3048 7.78199C30.6666 8.7424 29.8049 14.0247 29.101 15.4258C29.101 13.2156 28.8773 10.4264 28.0551 9.20946M12.1951 28.1809C11.0258 27.7765 9.95926 27.1208 9.07046 26.2601C9.36152 25.4572 9.75745 24.6963 10.248 23.9972C9.23491 24.1485 8.49158 24.2603 7.61668 24.4248C6.9362 23.1401 6.46751 21.754 6.22869 20.32C6.00806 21.7897 6.00806 23.284 6.22869 24.7537C5.53072 24.9345 4.8487 25.1721 4.18945 25.4641C5.05591 26.0225 5.95671 26.5256 6.8865 26.9705C7.37389 28.0627 8.07125 29.0484 8.9389 29.8715C8.71828 29.1455 8.65548 28.3806 8.75471 27.6283C9.87117 27.9667 11.0287 28.1504 12.1951 28.1743M15.4316 10.604C15.0205 11.1852 14.697 11.8235 14.4711 12.4985C16.5126 12.8115 18.4741 13.5174 20.2468 14.5772C18.4947 14.2035 16.698 14.0838 14.9119 14.222C14.4846 14.2313 14.0611 14.3045 13.6554 14.4391C13.099 15.8953 12.6955 17.4054 12.4516 18.9452C11.9385 17.715 11.2018 15.2482 11.2018 15.2482C9.80064 16.0047 6.55102 19.0767 6.55102 19.0767C7.44323 17.1468 8.66036 15.3846 10.1493 13.8668C9.52435 13.209 7.88639 12.9195 6.68916 12.8669C7.80627 12.5134 8.9654 12.3099 10.1361 12.2617C10.794 12.2342 11.453 12.2451 12.1096 12.2946C13.1029 11.5298 14.2324 10.9605 15.4381 10.6172M18.8588 25.9641C18.3337 26.6835 17.7716 27.3751 17.1748 28.0362C16.205 28.3202 15.1987 28.4599 14.1883 28.4506C14.8007 28.7608 15.4541 28.9823 16.1288 29.1084C15.5428 29.6515 14.9087 30.1402 14.2343 30.5688C15.4956 30.2882 16.7112 29.8321 17.8457 29.2137C18.3366 29.2349 18.8283 29.204 19.3127 29.1216C19.2108 28.7959 19.1295 28.4642 19.0693 28.1283C19.9865 27.4111 20.8505 26.6285 21.6545 25.7865C20.8028 26.3932 19.8979 26.9216 18.9509 27.3652C18.8588 26.9047 18.8588 26.4969 18.8588 25.9641Z" fill="white"/>
        <path d="M4.62317 46.705C4.53766 45.9551 4.34689 45.2184 3.26149 45.2184C2.60367 45.2184 2.01164 45.5473 2.01164 46.2972C2.01164 48.0733 6.02432 48.0601 6.02432 50.6059C6.02432 52.2307 4.89946 53.0464 3.26149 53.0464C2.72978 53.0515 2.20309 52.9433 1.71648 52.7289C1.22988 52.5145 0.79454 52.1989 0.439453 51.8031L1.09727 50.7769C1.37438 51.0936 1.71489 51.3486 2.09676 51.5253C2.47863 51.7021 2.89336 51.7968 3.31412 51.8031C4.08376 51.8031 4.62975 51.5005 4.62975 50.7638C4.63633 49.1784 0.636798 49.0995 0.636798 46.4024C0.636798 44.7513 1.8735 43.9751 3.26807 43.9751C3.61109 43.95 3.95555 43.9973 4.2791 44.114C4.60266 44.2306 4.89807 44.414 5.14618 44.6522C5.3943 44.8904 5.58956 45.1781 5.71931 45.4966C5.84906 45.8151 5.9104 46.1574 5.89934 46.5011L4.62317 46.705ZM8.6227 49.9415C8.68191 51.4742 9.28052 51.915 10.2475 51.915C10.8819 51.8872 11.4906 51.6566 11.9841 51.2571L12.1947 52.3228C11.5449 52.7857 10.7689 53.0382 9.97123 53.0464C8.32011 53.0464 7.19524 52.0597 7.19524 49.5665C7.19524 47.0734 8.18196 46.0801 9.88571 46.0801C11.5895 46.0801 12.2802 47.2116 12.2802 48.8758V49.9415H8.6227ZM10.9645 48.8758C10.9645 47.751 10.6356 47.2247 9.85282 47.2247C9.07002 47.2247 8.68848 47.7115 8.62928 48.8758H10.9645ZM18.9504 47.4747L18.0361 47.4286C18.2839 47.7812 18.4003 48.2095 18.365 48.639C18.3902 48.9688 18.3455 49.3002 18.2338 49.6114C18.1221 49.9227 17.9459 50.2069 17.7167 50.4454C17.4876 50.6838 17.2106 50.8712 16.9041 50.9952C16.5975 51.1193 16.2681 51.1771 15.9376 51.165C15.7155 51.176 15.4931 51.1493 15.2798 51.0861C15.0298 51.2637 14.8654 51.3755 14.8654 51.5992C14.8654 52.3031 18.8912 51.4742 18.8912 53.8621C18.8912 55.3027 17.3783 56 15.7403 56C14.1023 56 13.0038 55.4014 13.0038 54.3357C13.0253 53.9928 13.1436 53.6631 13.3451 53.3848C13.5465 53.1065 13.8228 52.8911 14.1418 52.7635C13.9686 52.6793 13.8243 52.5456 13.7271 52.3793C13.6299 52.213 13.5842 52.0217 13.5958 51.8294C13.6208 51.5827 13.7065 51.3459 13.8455 51.1404C13.9844 50.9349 14.1721 50.7671 14.3918 50.6519C14.0904 50.4081 13.8514 50.0959 13.6947 49.7412C13.538 49.3866 13.468 48.9998 13.4906 48.6127C13.4638 48.2798 13.5086 47.9451 13.6218 47.6309C13.7351 47.3167 13.9142 47.0304 14.1472 46.7912C14.3802 46.552 14.6617 46.3653 14.9728 46.2438C15.2839 46.1223 15.6173 46.0687 15.9508 46.0867C16.2758 46.0864 16.5985 46.1421 16.9046 46.2511H18.9504V47.4747ZM14.3062 54.191C14.3062 54.7896 15.0167 54.9409 15.7929 54.9409C16.5691 54.9409 17.5427 54.5988 17.5427 54.0265C17.5427 53.2108 16.4244 53.224 15.3982 53.0859C14.8588 53.3358 14.2997 53.7437 14.2997 54.191M15.9311 47.1918C15.2075 47.1918 14.7601 47.5997 14.7601 48.6259C14.7601 49.6521 15.2075 50.0665 15.9311 50.0665C16.6547 50.0665 17.1085 49.6521 17.1085 48.6259C17.1085 47.5997 16.6612 47.1918 15.9311 47.1918ZM21.2133 46.2511V50.8032C21.1949 50.9548 21.2114 51.1086 21.2617 51.2528C21.3119 51.3969 21.3945 51.5277 21.5031 51.635C21.6117 51.7424 21.7434 51.8234 21.8881 51.8719C22.0329 51.9204 22.1869 51.9352 22.3382 51.915C22.4895 51.9352 22.6435 51.9204 22.7883 51.8719C22.933 51.8234 23.0647 51.7424 23.1733 51.635C23.2819 51.5277 23.3645 51.3969 23.4147 51.2528C23.4649 51.1086 23.4815 50.9548 23.4631 50.8032V46.2511H24.8247V50.7638C24.8247 52.3162 23.7722 53.053 22.3382 53.053C20.9042 53.053 19.8516 52.3162 19.8516 50.7638V46.2511H21.2133ZM27.8441 46.2511V46.909C28.0496 46.6598 28.3064 46.4579 28.597 46.3171C28.8877 46.1764 29.2053 46.1 29.5281 46.0933C30.5149 46.0933 30.7056 46.9945 30.7056 47.968L29.5413 48.1062C29.5413 47.7049 29.4953 47.4484 29.1203 47.4484C28.6671 47.5304 28.2611 47.7791 27.9823 48.1457V52.8885H26.6206V46.2511H27.8441ZM36.6786 49.5994C36.6786 51.9018 35.7248 53.053 33.9421 53.053C32.1594 53.053 31.1924 52.0531 31.1924 49.5797C31.1924 47.1063 32.1528 46.0867 33.9421 46.0867C35.7314 46.0867 36.6786 47.0932 36.6786 49.5994ZM32.5936 49.5994C32.5936 51.3953 33.0409 51.9347 33.9092 51.9347C34.7775 51.9347 35.2248 51.3953 35.2248 49.6192C35.2248 47.8431 34.7907 47.2444 33.9092 47.2444C33.0277 47.2444 32.5936 47.7707 32.5936 49.5994ZM41.0597 48.2509C41.0136 47.6655 40.7505 47.2247 40.0335 47.2247C39.5138 47.2247 39.1125 47.4549 39.1125 47.9549C39.1125 49.2113 42.2109 49.0995 42.2109 51.1124C42.2109 52.3162 41.3623 53.0859 39.9348 53.0859C39.0728 53.1058 38.2363 52.7924 37.5996 52.211L38.0469 51.2111C38.5567 51.6716 39.2215 51.9229 39.9085 51.915C40.4282 51.915 40.8689 51.7176 40.8689 51.1914C40.8689 50.1388 37.8035 50.152 37.8035 48.0404C37.8035 46.8629 38.6455 46.067 40.0335 46.067C41.5662 46.067 42.2043 46.955 42.2043 48.0404L41.0597 48.2509ZM48.4601 52.7372V55.4606L47.1445 55.7632V46.2511H48.368V46.8498C48.9123 46.3657 49.6132 46.0947 50.3415 46.0867C51.4664 46.0867 52.5583 46.7445 52.5583 49.5008C52.5583 52.0794 51.3808 53.053 49.8415 53.053C49.3859 53.04 48.9378 52.9325 48.5259 52.7372M48.5259 51.54C48.874 51.7761 49.2829 51.9063 49.7034 51.915C50.4336 51.915 51.0914 51.3098 51.0914 49.5008C51.0914 47.6918 50.4796 47.3168 49.8415 47.3168C49.3663 47.3328 48.9074 47.4934 48.5259 47.7773V51.54ZM57.0512 48.0996C57.0512 47.4418 56.6368 47.2247 56.0777 47.2247C55.9372 47.2114 55.7954 47.2284 55.6621 47.2745C55.5287 47.3206 55.4068 47.3948 55.3045 47.4921C55.2023 47.5894 55.1221 47.7074 55.0693 47.8383C55.0166 47.9692 54.9926 48.1099 54.9988 48.2509L53.8016 48.1259C53.8411 46.8103 54.9133 46.0867 56.1632 46.0867C57.538 46.0867 58.4129 46.7906 58.4129 47.9746V51.4413C58.4129 51.7505 58.5576 51.8886 58.7747 51.8886C59.0167 51.8745 59.2476 51.7822 59.4325 51.6255L59.5115 52.6254C59.1994 52.916 58.7866 53.074 58.3603 53.0661C58.226 53.0806 58.0901 53.0679 57.9608 53.0288C57.8315 52.9896 57.7113 52.9248 57.6076 52.8383C57.5039 52.7517 57.4186 52.6452 57.3569 52.525C57.2952 52.4048 57.2584 52.2734 57.2486 52.1386C57.0212 52.4272 56.7315 52.6605 56.4011 52.8211C56.0707 52.9818 55.7083 53.0655 55.3409 53.0661C55.1002 53.0867 54.8579 53.0539 54.6313 52.9702C54.4047 52.8865 54.1993 52.7539 54.0298 52.5818C53.8602 52.4098 53.7306 52.2024 53.6503 51.9746C53.5699 51.7468 53.5407 51.5041 53.5648 51.2637C53.5648 49.5665 55.1896 48.8627 57.0512 48.8758V48.0996ZM57.0512 49.8889C55.8869 49.8494 54.9133 50.277 54.9133 51.1256C54.9133 51.6387 55.137 51.915 55.6632 51.915C55.9322 51.8915 56.1936 51.8142 56.4321 51.6876C56.6705 51.561 56.8811 51.3878 57.0512 51.1782V49.8889ZM61.6165 46.2511V46.909C61.8232 46.6596 62.0812 46.4577 62.3729 46.317C62.6646 46.1762 62.9832 46.0999 63.3071 46.0933C64.2938 46.0933 64.478 46.9945 64.478 47.968L63.3202 48.1062C63.3202 47.7049 63.2676 47.4484 62.8926 47.4484C62.4395 47.5304 62.0335 47.7791 61.7546 48.1457V52.8885H60.4193V46.2511H61.6165ZM68.6025 48.0996C68.6025 47.4418 68.1947 47.2247 67.6289 47.2247C67.489 47.2124 67.348 47.2301 67.2154 47.2767C67.0828 47.3233 66.9617 47.3976 66.8602 47.4948C66.7587 47.5919 66.6791 47.7097 66.6268 47.8401C66.5744 47.9705 66.5505 48.1105 66.5567 48.2509L65.3529 48.1259C65.3923 46.8103 66.4646 46.0867 67.7144 46.0867C69.0893 46.0867 69.9642 46.7906 69.9642 47.9746V51.4413C69.9642 51.7505 70.1155 51.8886 70.326 51.8886C70.5682 51.8755 70.7993 51.783 70.9838 51.6255L71.0693 52.6122C70.7593 52.9018 70.3489 53.0598 69.9247 53.053C69.7902 53.0684 69.654 53.0564 69.5243 53.0176C69.3946 52.9788 69.2741 52.9141 69.1702 52.8274C69.0662 52.7406 68.981 52.6337 68.9196 52.5131C68.8582 52.3924 68.8219 52.2605 68.813 52.1255C68.5822 52.4168 68.2881 52.6517 67.953 52.8124C67.618 52.9731 67.2506 53.0554 66.879 53.053C66.6383 53.0735 66.396 53.0407 66.1694 52.957C65.9428 52.8733 65.7374 52.7407 65.5679 52.5687C65.3983 52.3966 65.2688 52.1893 65.1884 51.9615C65.108 51.7337 65.0788 51.4909 65.1029 51.2506C65.1029 49.5534 66.7277 48.8495 68.5893 48.8627L68.6025 48.0996ZM68.6025 49.8889C67.4447 49.8494 66.4646 50.277 66.4646 51.1256C66.4646 51.6387 66.6948 51.915 67.2145 51.915C67.4834 51.8915 67.7449 51.8142 67.9834 51.6876C68.2218 51.561 68.4324 51.3878 68.6025 51.1782V49.8889ZM76.5226 46.2511V50.8032C76.5226 51.1016 76.6411 51.3877 76.8521 51.5986C77.063 51.8096 77.3492 51.9281 77.6475 51.9281C77.9458 51.9281 78.2319 51.8096 78.4429 51.5986C78.6538 51.3877 78.7724 51.1016 78.7724 50.8032V46.2511H80.134V50.7638C80.134 52.3162 79.0815 53.053 77.6475 53.053C76.2134 53.053 75.1609 52.3162 75.1609 50.7638V46.2511H76.5226ZM83.1534 46.8498C83.7375 46.3721 84.4646 46.1034 85.219 46.0867C86.4162 46.0867 87.1924 46.7445 87.1924 48.2049V52.8885H85.8307V48.4746C85.8307 47.6655 85.5545 47.376 84.7914 47.376C84.2648 47.3998 83.755 47.5682 83.3179 47.8628V52.8885H81.9562V46.2511H83.1797L83.1534 46.8498ZM93.5469 46.8498C94.1028 46.385 94.7965 46.1167 95.5204 46.0867C95.8258 46.0584 96.133 46.1161 96.4074 46.2533C96.6817 46.3905 96.9122 46.6016 97.0728 46.8629C97.6855 46.3984 98.4233 46.128 99.191 46.0867C100.382 46.0867 101.053 46.7445 101.053 48.2049V52.8885H99.691V48.4417C99.691 47.6128 99.3686 47.376 98.6911 47.376C98.1985 47.4171 97.7249 47.5848 97.3162 47.8628C97.3434 48.0413 97.3566 48.2216 97.3557 48.4022V52.8885H96.0203V48.6259C96.0203 47.6918 95.8493 47.376 95.0204 47.376C94.5459 47.4162 94.0912 47.5845 93.7048 47.8628V52.8885H92.3431V46.2511H93.5667L93.5469 46.8498ZM104.092 46.2511V50.8032C104.092 51.1016 104.21 51.3877 104.421 51.5986C104.632 51.8096 104.918 51.9281 105.217 51.9281C105.515 51.9281 105.801 51.8096 106.012 51.5986C106.223 51.3877 106.341 51.1016 106.341 50.8032V46.2511H107.703V50.7638C107.703 52.3162 106.651 53.053 105.217 53.053C103.783 53.053 102.73 52.3162 102.73 50.7638V46.2511H104.092ZM110.723 46.8498C111.307 46.3721 112.034 46.1034 112.788 46.0867C113.985 46.0867 114.762 46.7445 114.762 48.2049V52.8885H113.4V48.4746C113.4 47.6655 113.124 47.376 112.361 47.376C111.834 47.3998 111.324 47.5682 110.887 47.8628V52.8885H109.525V46.2511H110.749L110.723 46.8498ZM120.281 52.0991C120.052 52.3898 119.762 52.6262 119.431 52.7911C119.1 52.9561 118.736 53.0455 118.366 53.053C117.294 53.053 116.097 52.2241 116.097 49.5863C116.097 46.9484 117.228 46.0867 118.458 46.0867C119.021 46.0955 119.573 46.2375 120.07 46.5011V43.7646L121.432 43.5146V51.4084C121.432 51.7176 121.577 51.8558 121.794 51.8558C122.036 51.8441 122.268 51.7514 122.451 51.5926L122.544 52.5793C122.231 52.8688 121.818 53.0266 121.392 53.0201C121.256 53.0356 121.119 53.0228 120.988 52.9823C120.857 52.9418 120.737 52.8745 120.633 52.7848C120.53 52.6951 120.446 52.5849 120.388 52.4612C120.33 52.3375 120.297 52.203 120.294 52.0662M120.083 47.5668C119.683 47.3327 119.231 47.2037 118.768 47.1918C118.11 47.1918 117.544 47.6062 117.544 49.4942C117.544 51.119 118.097 51.7702 118.695 51.7702C118.969 51.7537 119.236 51.6782 119.478 51.5487C119.72 51.4193 119.931 51.239 120.096 51.0203L120.083 47.5668ZM128.576 49.5994C128.576 51.9018 127.622 53.053 125.839 53.053C124.057 53.053 123.09 52.0531 123.09 49.5797C123.09 47.1063 124.05 46.0867 125.839 46.0867C127.628 46.0867 128.576 47.0932 128.576 49.5994ZM124.491 49.5994C124.491 51.3953 124.938 51.9347 125.806 51.9347C126.675 51.9347 127.122 51.3953 127.122 49.6192C127.122 47.8431 126.688 47.2444 125.806 47.2444C124.925 47.2444 124.491 47.7707 124.491 49.5994ZM134.397 49.9415C134.457 51.4742 135.055 51.915 136.022 51.915C136.655 51.8872 137.261 51.6565 137.752 51.2571L137.969 52.3228C137.32 52.7857 136.544 53.0382 135.746 53.0464C134.095 53.0464 132.97 52.0597 132.97 49.5665C132.97 47.0734 133.957 46.0801 135.654 46.0801C137.351 46.0801 138.055 47.205 138.055 48.8693V49.9349L134.397 49.9415ZM136.746 48.8758C136.746 47.751 136.417 47.2247 135.628 47.2247C134.838 47.2247 134.47 47.7115 134.404 48.8758H136.746ZM140.778 46.8498C141.36 46.373 142.085 46.1044 142.837 46.0867C144.041 46.0867 144.811 46.7445 144.811 48.2049V52.8885H143.449V48.4746C143.449 47.6655 143.173 47.376 142.41 47.376C141.883 47.3988 141.373 47.5673 140.936 47.8628V52.8885H139.574V46.2511H140.798L140.778 46.8498ZM150.922 49.9415C150.981 51.4742 151.58 51.915 152.547 51.915C153.181 51.8872 153.79 51.6566 154.283 51.2571L154.494 52.3228C153.844 52.7857 153.068 53.0382 152.27 53.0464C150.619 53.0464 149.494 52.0597 149.494 49.5665C149.494 47.0734 150.481 46.0801 152.185 46.0801C153.889 46.0801 154.579 47.205 154.579 48.8693V49.9349L150.922 49.9415ZM153.27 48.8758C153.27 47.751 152.941 47.2247 152.158 47.2247C151.376 47.2247 150.994 47.7115 150.935 48.8758H153.27ZM156.618 46.2511L158.276 51.3887L159.862 46.2511H161.23L159.013 52.8885H157.428L155.165 46.2511H156.618ZM167.295 49.5994C167.295 51.9018 166.348 53.053 164.558 53.053C162.769 53.053 161.815 52.0531 161.815 49.5797C161.815 47.1063 162.776 46.0867 164.558 46.0867C166.341 46.0867 167.295 47.0932 167.295 49.5994ZM163.21 49.5994C163.21 51.3953 163.664 51.9347 164.558 51.9347C165.453 51.9347 165.874 51.3953 165.874 49.6192C165.874 47.8431 165.433 47.2444 164.558 47.2444C163.683 47.2444 163.21 47.7707 163.21 49.5994ZM170.156 43.5146V51.3624C170.146 51.4275 170.151 51.4942 170.17 51.5572C170.19 51.6202 170.223 51.678 170.268 51.7262C170.313 51.7744 170.368 51.8117 170.43 51.8353C170.492 51.8589 170.558 51.8681 170.623 51.8623C170.912 51.8474 171.191 51.7566 171.433 51.5992L171.571 52.6517C171.152 52.9056 170.673 53.0441 170.183 53.053C169.071 53.053 168.795 52.2373 168.795 51.3624V43.7646L170.156 43.5146ZM173.669 46.2511V50.8032C173.669 51.1016 173.788 51.3877 173.999 51.5986C174.21 51.8096 174.496 51.9281 174.794 51.9281C175.092 51.9281 175.378 51.8096 175.589 51.5986C175.8 51.3877 175.919 51.1016 175.919 50.8032V46.2511H177.274V50.7638C177.274 52.3162 176.228 53.053 174.794 53.053C173.36 53.053 172.307 52.3162 172.307 50.7638V46.2511H173.669ZM182.313 48.4877C182.273 47.8299 181.997 47.2247 181.247 47.2247C180.497 47.2247 180.05 47.7049 180.05 49.5797C180.05 51.4545 180.616 51.915 181.602 51.915C182.21 51.9051 182.798 51.6946 183.273 51.3163L183.536 52.3294C182.896 52.8004 182.121 53.054 181.326 53.053C179.603 53.053 178.629 51.9676 178.629 49.5665C178.629 47.1655 179.464 46.0933 181.3 46.0933C182.898 46.0933 183.51 47.08 183.536 48.3627L182.313 48.4877ZM186.372 45.3894H185.01V43.8896H186.372V45.3894ZM186.372 52.9148H185.01V46.2511H186.372V52.9148ZM193.358 49.5994C193.358 51.9018 192.404 53.053 190.621 53.053C188.838 53.053 187.871 52.0531 187.871 49.5797C187.871 47.1063 188.832 46.0867 190.621 46.0867C192.41 46.0867 193.358 47.0932 193.358 49.5994ZM189.266 49.5994C189.266 51.3953 189.72 51.9347 190.621 51.9347C191.522 51.9347 191.937 51.3953 191.937 49.6192C191.937 47.8431 191.496 47.2444 190.621 47.2444C189.746 47.2444 189.266 47.7707 189.266 49.5994ZM192.555 43.5344L191.101 45.5078H189.944L191.167 43.5344H192.555ZM196.081 46.8498C196.662 46.3707 197.387 46.1019 198.14 46.0867C199.337 46.0867 200.113 46.7445 200.113 48.2049V52.8885H198.752V48.4746C198.752 47.6655 198.475 47.376 197.712 47.376C197.186 47.3998 196.676 47.5682 196.239 47.8628V52.8885H194.877V46.2511H196.107L196.081 46.8498ZM44.5132 4.84153C44.6053 6.06507 44.6645 9.12392 44.6645 10.2488C44.6645 11.3737 44.6645 14.7219 44.5001 16.2152V16.3336H49.8876C52.5189 16.3336 55.3212 15.4982 55.3212 13.1498C55.3212 11.6763 54.2555 10.5843 52.2623 9.99224C53.7227 9.59755 54.716 8.58451 54.716 7.4136C54.716 5.50593 52.5189 4.78233 50.4599 4.7297H44.5132V4.84153ZM48.6706 6.0256C50.9204 6.0256 51.7558 6.49265 51.7558 7.72277C51.7595 8.03468 51.6523 8.33777 51.4532 8.57793C51.1432 8.86629 50.7725 9.08155 50.3684 9.2079C49.9643 9.33425 49.537 9.36849 49.1179 9.30811H49.0653L48.4075 10.9395H49.0653C49.5923 10.8846 50.1249 10.9488 50.6236 11.1276C51.1224 11.3064 51.5745 11.5951 51.9466 11.9723C52.1989 12.2621 52.3369 12.6339 52.3347 13.0182C52.3347 14.3338 51.2098 14.9917 48.993 14.9917H47.6313C47.5523 13.2945 47.5523 10.979 47.5523 10.2948C47.5523 9.48572 47.5523 7.66357 47.6379 6.13743C47.9883 6.08477 48.3427 6.06276 48.6969 6.07165M67.7342 4.7297H65.1029L65.2147 7.64383C65.2608 9.09761 65.3068 10.5843 65.4055 12.0249C65.111 11.3716 64.7401 10.7555 64.3004 10.1896C64.3004 10.1435 61.5639 5.94666 60.6166 4.75601H57.5643V4.86127C57.6498 6.08481 57.7156 9.14366 57.7156 10.2685C57.7156 11.2947 57.7156 14.7483 57.5446 16.2349V16.3599H60.2482V16.2415C60.0903 13.3997 60.0903 10.5448 60.0903 7.78198C60.2314 8.2413 60.4543 8.6714 60.7482 9.05156C60.7942 9.12392 65.4384 15.9126 65.6752 16.3204V16.3665H67.8526V16.2415C67.6881 14.7483 67.6816 11.3013 67.6816 10.2751C67.6816 9.15024 67.7473 6.09138 67.8329 4.86784V4.7297H67.7342ZM70.8785 4.83495C70.9641 6.06507 71.0298 9.11734 71.0298 10.2422C71.0298 11.2684 71.0298 14.7154 70.8588 16.2086V16.327H74.0755V16.2086C73.9637 15.143 73.9242 13.1037 73.9111 11.5315H74.957C79.2065 11.5315 81.2655 10.3935 81.2655 8.03852C81.2655 5.34805 78.3711 4.74944 75.9503 4.67708H70.8917L70.8785 4.83495ZM74.8255 6.15059C76.3319 6.15059 77.3975 6.44003 77.904 7.06495C78.1391 7.36714 78.2622 7.74135 78.2527 8.12404C78.2527 9.80148 76.3779 10.1567 74.7991 10.1567H74.1413L73.8848 10.1172V8.65029C73.8848 7.90696 73.8848 7.05838 73.9242 6.24926C74.2204 6.203 74.5192 6.17663 74.8189 6.17032M87.4029 4.83495C87.495 6.06507 87.5542 9.11734 87.5542 10.2422C87.5542 11.2684 87.5542 14.7154 87.3832 16.2086V16.327H90.6131V16.2086C90.5078 15.143 90.4618 13.1037 90.4486 11.5315H91.4945C95.7375 11.5315 97.8096 10.3935 97.8096 8.03852C97.8096 5.34805 94.9152 4.74944 92.4878 4.67708H87.4292L87.4029 4.83495ZM91.3498 6.15059C92.8562 6.15059 93.9219 6.44003 94.435 7.06495C94.6653 7.36926 94.7858 7.74252 94.7771 8.12404C94.7771 9.80148 92.9023 10.1567 91.3235 10.1567H90.6657L90.4157 10.1172V8.64372C90.4157 7.90038 90.4157 7.05838 90.4552 6.24926C90.7513 6.20331 91.0502 6.17694 91.3498 6.17032M102.092 4.7297H102.033V4.79548C101.434 6.44003 97.5794 14.8798 96.9807 16.1757L96.9018 16.3336H99.6646V16.2678C99.908 15.4784 100.217 14.5772 100.579 13.6037L102.862 13.5708H105.157C105.657 14.8206 106.026 15.7679 106.19 16.2415V16.3007H109.394L104.25 4.7297H102.092ZM102.875 8.15035C103.131 8.68976 103.796 10.2488 104.539 12.0973H101.178C101.776 10.6237 102.368 9.29496 102.875 8.15035ZM110.69 4.83495C110.769 6.05849 110.841 9.11734 110.841 10.2422C110.841 11.2684 110.841 14.7219 110.663 16.2086V16.3336H113.893V16.2086C113.729 14.7154 113.722 11.2684 113.722 10.2422C113.722 9.43968 113.755 7.61094 113.814 6.19006C114.077 6.15717 114.439 6.13085 114.683 6.12428C116.189 6.09138 117.255 6.41371 117.761 7.03864C117.997 7.33775 118.121 7.71029 118.11 8.09115C118.11 9.40678 116.853 10.1041 115.683 10.1699C115.463 10.1802 115.242 10.1691 115.025 10.137L114.808 10.0975L114.946 10.3014C116.077 11.9789 117.794 14.9061 118.518 16.2876V16.3336H121.971L121.866 16.1626C121.748 15.9718 119.485 12.6498 118.524 11.2289L118.458 11.1434C120.215 10.6106 121.09 9.61071 121.09 8.09115C121.09 5.40068 118.195 4.80206 115.768 4.7297H110.709L110.69 4.83495ZM126.523 4.71655H123.451V4.82837C123.537 6.05849 123.603 9.11734 123.603 10.2422C123.603 11.2618 123.603 14.7088 123.432 16.202V16.3204H126.655V16.202C126.497 14.7088 126.484 11.2618 126.484 10.2422C126.484 9.11734 126.55 6.05849 126.635 4.82837V4.71655H126.523ZM129.536 4.84153C129.628 6.06507 129.687 9.12392 129.687 10.2488C129.687 11.3737 129.687 14.7219 129.516 16.2152V16.3336H134.897C137.529 16.3336 140.337 15.4982 140.337 13.1498C140.337 11.6763 139.272 10.5843 137.279 9.99224C138.739 9.59755 139.732 8.58451 139.732 7.4136C139.732 5.50593 137.542 4.78233 135.476 4.7297H129.556L129.536 4.84153ZM133.694 6.0256C135.943 6.0256 136.779 6.49265 136.779 7.72277C136.782 8.03468 136.675 8.33777 136.476 8.57793C136.165 8.86816 135.792 9.0845 135.385 9.21091C134.979 9.33732 134.549 9.37054 134.128 9.30811H134.068L133.457 10.9395H134.082C134.605 10.8876 135.134 10.9534 135.629 11.1321C136.124 11.3108 136.573 11.5978 136.943 11.9723C137.193 12.2636 137.331 12.6345 137.331 13.0182C137.331 14.3338 136.206 14.9917 133.996 14.9917H132.628C132.549 13.2945 132.549 10.979 132.549 10.2948C132.549 9.47914 132.549 7.66357 132.641 6.13743C132.989 6.08452 133.341 6.0625 133.694 6.07165M148.251 4.71655H146.08V4.78233C145.422 6.53212 141.364 15.4324 141.028 16.1691L140.949 16.3204H143.719V16.2547C143.955 15.4653 144.271 14.5641 144.633 13.5905L146.916 13.5576H149.211C149.711 14.814 150.08 15.7547 150.238 16.2284V16.2876H153.441L148.297 4.71655H148.251ZM146.935 8.1372C147.199 8.68319 147.85 10.2356 148.606 12.0841H146.935L145.245 12.0512C145.837 10.5777 146.429 9.25549 146.935 8.10431M154.369 7.72935C154.369 9.76858 156.421 10.5974 158.23 11.3342C159.638 11.8999 161.085 12.4919 161.085 13.4589C161.099 13.715 161.02 13.9675 160.861 14.1694C160.526 14.5707 159.835 14.7417 158.743 14.6891C157.481 14.582 156.25 14.2336 155.119 13.6629L154.553 13.4063V15.9389L154.915 16.0179L155.138 16.0639C156.213 16.3494 157.316 16.5084 158.427 16.5375C161.822 16.5375 163.854 15.1824 163.854 12.9327C163.854 10.8408 161.756 10.0054 159.908 9.26864C158.546 8.72265 157.132 8.15693 157.132 7.29519C157.132 7.03206 157.132 6.25584 158.881 6.25584C160.02 6.31507 161.136 6.59196 162.17 7.07153L162.828 7.34782V4.77575L162.17 4.65734C161.221 4.45217 160.254 4.33764 159.283 4.31528C156.342 4.31528 154.369 5.69012 154.369 7.72935ZM52.611 22.3987C51.9651 22.0043 51.2232 21.795 50.4665 21.7935C47.8352 21.7935 46.9537 23.859 46.9537 25.6286C46.9537 28.0822 48.4601 29.3189 50.4862 29.3189C51.634 29.2847 52.7255 28.8142 53.5385 28.0033V30.128C52.421 30.5798 51.2244 30.8034 50.0192 30.7859C46.3749 30.7859 44.0988 28.5164 44.0988 25.6286C44.0988 22.5894 46.5064 20.366 50.4862 20.366C51.401 20.3756 52.3111 20.4971 53.1964 20.7278L52.611 22.3987ZM61.4126 20.5305C61.8007 21.5633 65.1029 28.9177 65.8791 30.5819H63.1097C62.9518 30.1215 62.6164 29.2663 62.1888 28.2138H58.2419C57.9195 29.0558 57.663 29.832 57.4328 30.5819H54.9988C55.5711 29.3321 58.9457 22.0303 59.4786 20.5305H61.4126ZM61.6559 26.8916L60.2219 23.4907C59.7614 24.4642 59.2615 25.6154 58.7287 26.8916H61.6559ZM72.01 20.5305C74.1216 20.5305 76.6147 21.1225 76.6147 23.4446C76.6147 24.7602 75.8582 25.6286 74.3452 26.0759C75.2884 27.6284 76.3093 29.1323 77.4041 30.5819H74.4044C73.7466 29.3321 72.2534 26.8061 71.1614 25.1681C71.4166 25.2215 71.677 25.2458 71.9376 25.2405C72.8125 25.2405 74.0426 24.5826 74.0426 23.4446C74.0426 21.9974 72.2929 21.7343 71.4114 21.7343C71.0466 21.7342 70.6821 21.7539 70.3194 21.7935C70.2602 23.0433 70.2339 24.6089 70.2339 25.3128C70.2339 26.2009 70.2339 29.1742 70.3918 30.5753H67.596C67.7342 29.1808 67.7671 27.3849 67.7671 25.3128C67.7671 23.563 67.7671 21.4646 67.6224 20.5305H72.01ZM83.1732 20.5305C87.4095 20.5305 89.0277 22.7539 89.0277 25.543C89.0277 28.3322 87.449 30.5819 83.0153 30.5819H79.2855C79.4236 29.2334 79.4236 27.3784 79.4236 25.3194C79.4236 24.3458 79.4236 21.833 79.2855 20.5239L83.1732 20.5305ZM82.0088 21.7935C81.9496 22.4513 81.9365 24.1616 81.9365 25.326C81.9365 26.7929 81.9365 27.9572 81.9957 29.2729C82.2338 29.2985 82.4732 29.3117 82.7127 29.3123C85.14 29.3123 86.403 28.5493 86.403 25.4641C86.403 22.5237 85.0874 21.6882 82.6535 21.7474L82.0088 21.7935ZM94.1916 20.5305C94.1061 21.6948 94.0469 24.3327 94.0469 25.326C94.0469 26.2009 94.0469 29.1874 94.1916 30.5885H91.4025C91.5472 29.1939 91.5603 26.2074 91.5603 25.326C91.5603 24.4445 91.5011 21.6948 91.4353 20.5305H94.1916ZM104.842 20.5305V21.9843C104.052 21.9382 102.085 21.879 101.428 21.879C100.941 21.879 100.395 21.879 99.8357 21.9251C99.7896 22.5434 99.7765 23.3196 99.7765 23.9906V24.8655L103.283 24.8129V26.3719L99.7699 26.2338C99.7699 27.5099 99.7699 29.49 99.9278 30.5819H97.1386C97.3162 29.1874 97.3162 26.2009 97.3162 25.3194C97.3162 24.4379 97.2439 21.6882 97.1518 20.5239L104.842 20.5305Z" fill="#EBEFF4"/>
    </g>
    <defs>
        <linearGradient id="paint0_linear_557_7576" x1="18.0037" y1="-0.805827" x2="18.0037" y2="36.2096" gradientUnits="userSpaceOnUse">
            <stop stop-color="#43774F"/>
            <stop offset="0.6" stop-color="#9FC8AD"/>
            <stop offset="1" stop-color="#549462"/>
        </linearGradient>
        <linearGradient id="paint1_linear_557_7576" x1="18.5377" y1="-8.72924" x2="18.5377" y2="32.8711" gradientUnits="userSpaceOnUse">
            <stop stop-color="#549462"/>
            <stop offset="0.3" stop-color="#9FC8AD"/>
            <stop offset="0.55" stop-color="#549462"/>
            <stop offset="0.84" stop-color="#43774F"/>
            <stop offset="0.89" stop-color="#488057"/>
            <stop offset="0.98" stop-color="#56986E"/>
            <stop offset="1" stop-color="#599D73"/>
        </linearGradient>
        <linearGradient id="paint2_linear_557_7576" x1="24.9291" y1="30.5556" x2="24.9291" y2="3.63774" gradientUnits="userSpaceOnUse">
            <stop stop-color="#5EA77E"/>
            <stop offset="1" stop-color="#549462"/>
        </linearGradient>
        <linearGradient id="paint3_linear_557_7576" x1="8.38738" y1="30.5392" x2="8.38738" y2="3.6147" gradientUnits="userSpaceOnUse">
            <stop stop-color="#5EA77E"/>
            <stop offset="1" stop-color="#549462"/>
        </linearGradient>
        <linearGradient id="paint4_linear_557_7576" x1="13.2149" y1="30.5786" x2="13.2149" y2="3.66733" gradientUnits="userSpaceOnUse">
            <stop stop-color="#5EA77E"/>
            <stop offset="1" stop-color="#549462"/>
        </linearGradient>
        <linearGradient id="paint5_linear_557_7576" x1="17.9413" y1="30.5556" x2="17.9413" y2="3.63773" gradientUnits="userSpaceOnUse">
            <stop stop-color="#5EA77E"/>
            <stop offset="1" stop-color="#549462"/>
        </linearGradient>
        <clipPath id="clip0_557_7576">
            <rect width="199.648" height="56" fill="white" transform="translate(0.439453)"/>
        </clipPath>
    </defs>
</svg>
