<svg width="306" height="144" viewBox="0 0 306 144" fill="none" xmlns="http://www.w3.org/2000/svg">
<g filter="url(#filter0_d_246_12085)">
<rect x="40" y="32" width="226" height="64" rx="32" fill="white"/>
<g clip-path="url(#clip0_246_12085)">
<path d="M67.42 51.4209C68.2 52.2009 68.2 53.4609 67.42 54.2409L59.66 62.0009H90C91.1 62.0009 92 62.9009 92 64.0009C92 65.1009 91.1 66.0009 90 66.0009H59.64L67.4 73.7609C68.18 74.5409 68.18 75.8009 67.4 76.5809C66.62 77.3609 65.36 77.3609 64.58 76.5809L53.4 65.4009C52.62 64.6209 52.62 63.3609 53.4 62.5809L64.6 51.4209C65.36 50.6409 66.64 50.6409 67.42 51.4209Z" fill="#0076A9"/>
</g>
<g filter="url(#filter1_bi_246_12085)">
<circle cx="115" cy="64" r="11" transform="rotate(90 115 64)" fill="url(#paint0_radial_246_12085)"/>
<circle cx="115" cy="64" r="10.7" transform="rotate(90 115 64)" stroke="url(#paint1_radial_246_12085)" stroke-width="0.6"/>
</g>
<ellipse cx="115" cy="64" rx="6" ry="6" transform="rotate(90 115 64)" fill="#0076A9"/>
<g filter="url(#filter2_bi_246_12085)">
<circle cx="153" cy="64" r="11" transform="rotate(90 153 64)" fill="url(#paint2_radial_246_12085)"/>
<circle cx="153" cy="64" r="10.7" transform="rotate(90 153 64)" stroke="url(#paint3_radial_246_12085)" stroke-width="0.6"/>
</g>
<g filter="url(#filter3_bi_246_12085)">
<circle cx="191" cy="64" r="11" transform="rotate(90 191 64)" fill="url(#paint4_radial_246_12085)"/>
<circle cx="191" cy="64" r="10.7" transform="rotate(90 191 64)" stroke="url(#paint5_radial_246_12085)" stroke-width="0.6"/>
</g>
<g clip-path="url(#clip1_246_12085)">
<path d="M238.58 51.4209C237.8 52.2009 237.8 53.4609 238.58 54.2409L246.34 62.0009H216C214.9 62.0009 214 62.9009 214 64.0009C214 65.1009 214.9 66.0009 216 66.0009H246.36L238.6 73.7609C237.82 74.5409 237.82 75.8009 238.6 76.5809C239.38 77.3609 240.64 77.3609 241.42 76.5809L252.6 65.4009C253.38 64.6209 253.38 63.3609 252.6 62.5809L241.4 51.4209C240.64 50.6409 239.36 50.6409 238.58 51.4209Z" fill="#0076A9"/>
</g>
</g>
<defs>
<filter id="filter0_d_246_12085" x="0" y="0" width="306" height="144" filterUnits="userSpaceOnUse" color-interpolation-filters="sRGB">
<feFlood flood-opacity="0" result="BackgroundImageFix"/>
<feColorMatrix in="SourceAlpha" type="matrix" values="0 0 0 0 0 0 0 0 0 0 0 0 0 0 0 0 0 0 127 0" result="hardAlpha"/>
<feOffset dy="8"/>
<feGaussianBlur stdDeviation="20"/>
<feComposite in2="hardAlpha" operator="out"/>
<feColorMatrix type="matrix" values="0 0 0 0 0 0 0 0 0 0 0 0 0 0 0 0 0 0 0.16 0"/>
<feBlend mode="normal" in2="BackgroundImageFix" result="effect1_dropShadow_246_12085"/>
<feBlend mode="normal" in="SourceGraphic" in2="effect1_dropShadow_246_12085" result="shape"/>
</filter>
<filter id="filter1_bi_246_12085" x="90.25" y="39.25" width="49.5" height="49.5" filterUnits="userSpaceOnUse" color-interpolation-filters="sRGB">
<feFlood flood-opacity="0" result="BackgroundImageFix"/>
<feGaussianBlur in="BackgroundImageFix" stdDeviation="6.875"/>
<feComposite in2="SourceAlpha" operator="in" result="effect1_backgroundBlur_246_12085"/>
<feBlend mode="normal" in="SourceGraphic" in2="effect1_backgroundBlur_246_12085" result="shape"/>
<feColorMatrix in="SourceAlpha" type="matrix" values="0 0 0 0 0 0 0 0 0 0 0 0 0 0 0 0 0 0 127 0" result="hardAlpha"/>
<feOffset dy="2.75"/>
<feGaussianBlur stdDeviation="1.375"/>
<feComposite in2="hardAlpha" operator="arithmetic" k2="-1" k3="1"/>
<feColorMatrix type="matrix" values="0 0 0 0 0 0 0 0 0 0 0 0 0 0 0 0 0 0 0.25 0"/>
<feBlend mode="normal" in2="shape" result="effect2_innerShadow_246_12085"/>
</filter>
<filter id="filter2_bi_246_12085" x="128.25" y="39.25" width="49.5" height="49.5" filterUnits="userSpaceOnUse" color-interpolation-filters="sRGB">
<feFlood flood-opacity="0" result="BackgroundImageFix"/>
<feGaussianBlur in="BackgroundImageFix" stdDeviation="6.875"/>
<feComposite in2="SourceAlpha" operator="in" result="effect1_backgroundBlur_246_12085"/>
<feBlend mode="normal" in="SourceGraphic" in2="effect1_backgroundBlur_246_12085" result="shape"/>
<feColorMatrix in="SourceAlpha" type="matrix" values="0 0 0 0 0 0 0 0 0 0 0 0 0 0 0 0 0 0 127 0" result="hardAlpha"/>
<feOffset dy="2.75"/>
<feGaussianBlur stdDeviation="1.375"/>
<feComposite in2="hardAlpha" operator="arithmetic" k2="-1" k3="1"/>
<feColorMatrix type="matrix" values="0 0 0 0 0 0 0 0 0 0 0 0 0 0 0 0 0 0 0.25 0"/>
<feBlend mode="normal" in2="shape" result="effect2_innerShadow_246_12085"/>
</filter>
<filter id="filter3_bi_246_12085" x="166.25" y="39.25" width="49.5" height="49.5" filterUnits="userSpaceOnUse" color-interpolation-filters="sRGB">
<feFlood flood-opacity="0" result="BackgroundImageFix"/>
<feGaussianBlur in="BackgroundImageFix" stdDeviation="6.875"/>
<feComposite in2="SourceAlpha" operator="in" result="effect1_backgroundBlur_246_12085"/>
<feBlend mode="normal" in="SourceGraphic" in2="effect1_backgroundBlur_246_12085" result="shape"/>
<feColorMatrix in="SourceAlpha" type="matrix" values="0 0 0 0 0 0 0 0 0 0 0 0 0 0 0 0 0 0 127 0" result="hardAlpha"/>
<feOffset dy="2.75"/>
<feGaussianBlur stdDeviation="1.375"/>
<feComposite in2="hardAlpha" operator="arithmetic" k2="-1" k3="1"/>
<feColorMatrix type="matrix" values="0 0 0 0 0 0 0 0 0 0 0 0 0 0 0 0 0 0 0.25 0"/>
<feBlend mode="normal" in2="shape" result="effect2_innerShadow_246_12085"/>
</filter>
<radialGradient id="paint0_radial_246_12085" cx="0" cy="0" r="1" gradientUnits="userSpaceOnUse" gradientTransform="translate(103.765 52.7574) rotate(45.3719) scale(31.6514 30.8578)">
<stop stop-color="white" stop-opacity="0.6"/>
<stop offset="1" stop-color="white" stop-opacity="0.1"/>
</radialGradient>
<radialGradient id="paint1_radial_246_12085" cx="0" cy="0" r="1" gradientUnits="userSpaceOnUse" gradientTransform="translate(105.038 54.065) rotate(44.4979) scale(29.3887 28.629)">
<stop stop-color="white"/>
<stop offset="0.291883" stop-color="white" stop-opacity="0.4"/>
<stop offset="0.653519" stop-color="white" stop-opacity="0.4"/>
<stop offset="1" stop-color="white" stop-opacity="0.5"/>
</radialGradient>
<radialGradient id="paint2_radial_246_12085" cx="0" cy="0" r="1" gradientUnits="userSpaceOnUse" gradientTransform="translate(141.765 52.7574) rotate(45.3719) scale(31.6514 30.8578)">
<stop stop-color="white" stop-opacity="0.6"/>
<stop offset="1" stop-color="white" stop-opacity="0.1"/>
</radialGradient>
<radialGradient id="paint3_radial_246_12085" cx="0" cy="0" r="1" gradientUnits="userSpaceOnUse" gradientTransform="translate(143.038 54.065) rotate(44.4979) scale(29.3887 28.629)">
<stop stop-color="white"/>
<stop offset="0.291883" stop-color="white" stop-opacity="0.4"/>
<stop offset="0.653519" stop-color="white" stop-opacity="0.4"/>
<stop offset="1" stop-color="white" stop-opacity="0.5"/>
</radialGradient>
<radialGradient id="paint4_radial_246_12085" cx="0" cy="0" r="1" gradientUnits="userSpaceOnUse" gradientTransform="translate(179.765 52.7574) rotate(45.3719) scale(31.6514 30.8578)">
<stop stop-color="white" stop-opacity="0.6"/>
<stop offset="1" stop-color="white" stop-opacity="0.1"/>
</radialGradient>
<radialGradient id="paint5_radial_246_12085" cx="0" cy="0" r="1" gradientUnits="userSpaceOnUse" gradientTransform="translate(181.038 54.065) rotate(44.4979) scale(29.3887 28.629)">
<stop stop-color="white"/>
<stop offset="0.291883" stop-color="white" stop-opacity="0.4"/>
<stop offset="0.653519" stop-color="white" stop-opacity="0.4"/>
<stop offset="1" stop-color="white" stop-opacity="0.5"/>
</radialGradient>
<clipPath id="clip0_246_12085">
<rect width="48" height="48" fill="white" transform="matrix(-1 0 0 1 96 40)"/>
</clipPath>
<clipPath id="clip1_246_12085">
<rect width="48" height="48" fill="white" transform="translate(210 40)"/>
</clipPath>
</defs>
</svg>
