<svg width="1440" height="250" fill="none" xmlns="http://www.w3.org/2000/svg"><path fill="#F9BE00" d="M0 0h1440v360H0z"/><path d="M1260.79 290.501c15.98-66.377 128.48-82.804 194.86-66.826 66.38 15.978 90.73 70.51 74.76 136.887-15.98 66.377-62.06 102.062-128.43 86.084-66.38-15.978-157.16-89.768-141.19-156.145z" fill="#F97514"/><g filter="url(#filter0_i_0_1)"><path d="M1417.86 174.84c-9.5 14.869-6.21 35.201 5.12 55.861 11.2 20.418 29.37 39.362 46.06 50.024 16.34 10.435 31.97 12.516 45.92 8.377 14.09-4.179 27.24-14.939 37.91-31.646 10.67-16.704 14.74-32.897 12.48-47.168-2.24-14.145-10.82-27.262-27.22-37.735-16.53-10.56-41.91-18.075-65.85-18.641-24.21-.572-44.85 5.942-54.42 20.928z" stroke="#F9BE00" stroke-width="11.084"/></g><defs><filter id="filter0_i_0_1" x="1406.75" y="148.336" width="164.752" height="153.845" filterUnits="userSpaceOnUse" color-interpolation-filters="sRGB"><feFlood flood-opacity="0" result="BackgroundImageFix"/><feBlend in="SourceGraphic" in2="BackgroundImageFix" result="shape"/><feColorMatrix in="SourceAlpha" values="0 0 0 0 0 0 0 0 0 0 0 0 0 0 0 0 0 0 127 0" result="hardAlpha"/><feOffset dy="5.542"/><feGaussianBlur stdDeviation="2.771"/><feComposite in2="hardAlpha" operator="arithmetic" k2="-1" k3="1"/><feColorMatrix values="0 0 0 0 0.604167 0 0 0 0 0.467524 0 0 0 0 0.0251736 0 0 0 1 0"/><feBlend in2="shape" result="effect1_innerShadow_0_1"/></filter></defs></svg>