<svg width="375" height="603" fill="none" xmlns="http://www.w3.org/2000/svg"><path fill="#F9BE00" d="M0 0h375v603H0z"/><path d="M169.795 537.501c15.978-66.377 128.476-82.804 194.854-66.826 66.377 15.978 90.735 70.51 74.757 136.887-15.978 66.377-62.053 102.062-128.43 86.084-66.377-15.978-157.159-89.768-141.181-156.145z" fill="#F97514"/><g filter="url(#filter0_i_0_1)"><path d="M326.858 421.84c-9.497 14.869-6.205 35.201 5.125 55.861 11.199 20.418 29.363 39.362 46.056 50.024 16.338 10.435 31.974 12.516 45.924 8.377 14.089-4.179 27.239-14.939 37.91-31.646 10.669-16.704 14.738-32.897 12.48-47.168-2.238-14.145-10.825-27.262-27.221-37.735-16.533-10.56-41.915-18.075-65.851-18.641-24.206-.572-44.851 5.942-54.423 20.928z" stroke="#F9BE00" stroke-width="11.084"/></g><defs><filter id="filter0_i_0_1" x="315.747" y="395.336" width="164.752" height="153.845" filterUnits="userSpaceOnUse" color-interpolation-filters="sRGB"><feFlood flood-opacity="0" result="BackgroundImageFix"/><feBlend in="SourceGraphic" in2="BackgroundImageFix" result="shape"/><feColorMatrix in="SourceAlpha" values="0 0 0 0 0 0 0 0 0 0 0 0 0 0 0 0 0 0 127 0" result="hardAlpha"/><feOffset dy="5.542"/><feGaussianBlur stdDeviation="2.771"/><feComposite in2="hardAlpha" operator="arithmetic" k2="-1" k3="1"/><feColorMatrix values="0 0 0 0 0.604167 0 0 0 0 0.467524 0 0 0 0 0.0251736 0 0 0 1 0"/><feBlend in2="shape" result="effect1_innerShadow_0_1"/></filter></defs></svg>