<svg width="201" height="56" fill="none" xmlns="http://www.w3.org/2000/svg"><g clip-path="url(#clip0_46_9125)"><mask id="a" style="mask-type:luminance" maskUnits="userSpaceOnUse" x="0" y="0" width="36" height="36"><path d="M.697 0h35.069v35.068H.697V0z" fill="#fff"/></mask><g mask="url(#a)"><path d="M.697 0h35.069v35.068H.697V0z" fill="url(#paint0_linear_46_9125)"/></g><mask id="b" style="mask-type:luminance" maskUnits="userSpaceOnUse" x="1" y="0" width="35" height="34"><path d="M3.434.618c-.658 0-1.125.572-1.23 1.375 0 0-.875 4.605-.875 14.38a131.87 131.87 0 00.875 16.176c.085.776.552 1.381 1.23 1.381h30.358a1.277 1.277 0 001.23-1.381s-.342-7.493-.342-14.788.342-15.788.342-15.788a1.315 1.315 0 00-1.23-1.355H3.434z" fill="#fff"/></mask><g mask="url(#b)"><path d="M1.33.618h33.706V33.93H1.329V.618z" fill="url(#paint1_linear_46_9125)"/></g><mask id="c" style="mask-type:luminance" maskUnits="userSpaceOnUse" x="17" y="3" width="15" height="13"><path d="M20.485 4.137c.953.402 4.802 2.48 5.262 3.145a32.372 32.372 0 00-7.782 2.236l-.118.244a53.525 53.525 0 017.59-.875 23.828 23.828 0 01-2.584 3.105l-.112.263c2.348-1.414 3.013-1.513 5.183-2.783.816 1.21 1.014 4 1.046 6.217.704-1.408 1.56-6.697 1.204-7.65 1.44-.987 1.638-1.783 1.638-1.783a13.36 13.36 0 00-2.763.361 25.181 25.181 0 00-8.453-2.723l-.111.243z" fill="#fff"/></mask><g mask="url(#c)"><path d="M17.86 3.894h13.952v11.795H17.859V3.894z" fill="url(#paint2_linear_46_9125)"/></g><mask id="d" style="mask-type:luminance" maskUnits="userSpaceOnUse" x="4" y="20" width="9" height="11"><path d="M6.118 20.57a14.67 14.67 0 000 4.427c-.648.116-1.287.274-1.914.474l-.112.237a23.93 23.93 0 002.697 1.48 9.157 9.157 0 002.052 2.907l.112-.243a5.262 5.262 0 01-.303-1.974c1.119.34 2.279.526 3.447.553l.112-.25a9.208 9.208 0 01-3.216-1.678 9.21 9.21 0 011.177-2.262l.112-.244c-.987.145-1.888.513-2.743.658-.658-1.184-.934-2.809-1.276-4.355l-.145.27z" fill="#fff"/></mask><g mask="url(#d)"><path d="M4.08 20.32h8.11v9.775H4.08V20.32z" fill="url(#paint3_linear_46_9125)"/></g><mask id="e" style="mask-type:luminance" maskUnits="userSpaceOnUse" x="6" y="10" width="15" height="10"><path d="M11.992 12.498a18.94 18.94 0 00-1.974-.032 19.23 19.23 0 00-3.335.361l-.105.244c1.19.052 2.829.368 3.454 1a18.714 18.714 0 00-3.605 5.243s3.289-3.06 4.67-3.816c0 0 .737 2.46 1.25 3.69l.112-.243a20.64 20.64 0 011.098-4.256c.405-.137.83-.21 1.257-.217a19.189 19.189 0 015.322.342l.111-.237a19.077 19.077 0 00-5.887-1.835h.086c.226-.66.505-1.3.835-1.914a9.704 9.704 0 00-3.29 1.71" fill="#fff"/></mask><g mask="url(#e)"><path d="M6.427 10.815h13.82v8.492H6.427v-8.492z" fill="url(#paint4_linear_46_9125)"/></g><mask id="f" style="mask-type:luminance" maskUnits="userSpaceOnUse" x="14" y="25" width="8" height="6"><path d="M18.813 27.628c-.04-.48-.072-.887-.098-1.42a29.959 29.959 0 01-1.671 2.078 7.79 7.79 0 01-2.105.171h-.776l-.112.244c.613.308 1.266.53 1.94.658a15.13 15.13 0 01-1.782 1.217l-.112.243a14.023 14.023 0 003.611-1.362c.489.027.979-.002 1.46-.085l.119-.244c-.072-.25-.29-.4-.355-.743.905-.72 1.76-1.5 2.559-2.335l.118-.25a21.55 21.55 0 01-2.796 1.828z" fill="#fff"/></mask><g mask="url(#f)"><path d="M14.05 25.8h7.579v5.026H14.05V25.8z" fill="url(#paint5_linear_46_9125)"/></g><path d="M28.07 9.21c-2.165 1.27-2.83 1.381-5.184 2.789a23.953 23.953 0 002.697-3.368 53.544 53.544 0 00-7.578.875 30.155 30.155 0 017.893-2.487c-.48-.658-4.328-2.736-5.262-3.138 3.046.237 6.769 1.375 8.552 2.474a14.55 14.55 0 012.769-.349 3.677 3.677 0 01-1.651 1.776c.362.96-.5 6.243-1.204 7.644 0-2.21-.224-5-1.046-6.216m-15.86 18.97a8.473 8.473 0 01-3.125-1.92 9.69 9.69 0 011.178-2.264 67.238 67.238 0 00-2.631.428A13.512 13.512 0 016.23 20.32a14.91 14.91 0 000 4.434c-.698.18-1.38.418-2.04.71a24.5 24.5 0 002.697 1.507 9.123 9.123 0 002.053 2.9 5.321 5.321 0 01-.184-2.242c1.116.338 2.274.522 3.44.545m3.236-17.57a7.282 7.282 0 00-.96 1.895 15.97 15.97 0 015.776 2.079 18.67 18.67 0 00-5.335-.356c-.427.01-.85.083-1.257.217a22.472 22.472 0 00-1.203 4.506c-.513-1.23-1.25-3.697-1.25-3.697-1.401.757-4.651 3.829-4.651 3.829a18.563 18.563 0 013.598-5.21c-.625-.658-2.263-.947-3.46-1a13.229 13.229 0 013.447-.605 16.9 16.9 0 011.974.033 9.902 9.902 0 013.328-1.678m3.42 15.347a25.713 25.713 0 01-1.683 2.072c-.97.284-1.976.424-2.987.415.613.31 1.266.532 1.94.658a13.216 13.216 0 01-1.894 1.46 13.813 13.813 0 003.612-1.355c.49.021.982-.01 1.467-.092a8.13 8.13 0 01-.244-.994c.917-.717 1.781-1.5 2.585-2.341a17.331 17.331 0 01-2.703 1.578c-.092-.46-.092-.868-.092-1.4z" fill="#fff"/><path d="M4.624 46.705c-.085-.75-.276-1.486-1.362-1.486-.657 0-1.25.328-1.25 1.078 0 1.776 4.013 1.763 4.013 4.309 0 1.625-1.125 2.44-2.763 2.44A3.743 3.743 0 01.44 51.804l.658-1.026a3.006 3.006 0 002.217 1.026c.77 0 1.316-.302 1.316-1.04C4.637 49.18.638 49.1.638 46.404c0-1.651 1.236-2.428 2.631-2.428A2.456 2.456 0 015.9 46.501l-1.276.204zm4 3.237c.059 1.532.657 1.973 1.624 1.973a2.967 2.967 0 001.737-.658l.21 1.066a3.901 3.901 0 01-2.223.724c-1.65 0-2.776-.987-2.776-3.48s.987-3.487 2.69-3.487c1.704 0 2.395 1.132 2.395 2.796v1.066H8.624zm2.341-1.066c0-1.125-.328-1.651-1.111-1.651-.783 0-1.165.487-1.224 1.651h2.335zm7.986-1.401l-.914-.046c.248.352.364.78.329 1.21a2.35 2.35 0 01-2.427 2.526 1.974 1.974 0 01-.658-.079c-.25.178-.415.29-.415.513 0 .704 4.026-.125 4.026 2.263 0 1.44-1.513 2.138-3.15 2.138-1.639 0-2.737-.599-2.737-1.664a1.816 1.816 0 011.138-1.572.974.974 0 01-.546-.934 1.5 1.5 0 01.796-1.178 2.44 2.44 0 01-.902-2.04 2.342 2.342 0 012.46-2.525c.326 0 .648.055.955.164h2.045v1.224zm-4.644 6.716c0 .599.71.75 1.487.75.776 0 1.75-.342 1.75-.914 0-.816-1.119-.803-2.145-.941-.54.25-1.098.658-1.098 1.105m1.631-6.999c-.724 0-1.17.408-1.17 1.434s.446 1.44 1.17 1.44 1.178-.414 1.178-1.44-.448-1.434-1.178-1.434zm5.282-.94v4.551a1 1 0 001.125 1.112 1 1 0 001.125-1.112v-4.552h1.362v4.513c0 1.552-1.053 2.29-2.487 2.29-1.434 0-2.486-.738-2.486-2.29V46.25h1.361zm6.631 0v.657a2.243 2.243 0 011.684-.816c.987 0 1.178.902 1.178 1.875l-1.165.138c0-.4-.046-.657-.42-.657a1.84 1.84 0 00-1.139.697v4.743h-1.361V46.25h1.223zM36.68 49.6c0 2.302-.954 3.453-2.737 3.453-1.783 0-2.75-1-2.75-3.473 0-2.474.96-3.493 2.75-3.493s2.737 1.006 2.737 3.513zm-4.086 0c0 1.795.448 2.335 1.316 2.335.869 0 1.316-.54 1.316-2.316 0-1.776-.434-2.374-1.316-2.374-.881 0-1.316.526-1.316 2.355zm8.467-1.349c-.046-.585-.31-1.026-1.026-1.026-.52 0-.921.23-.921.73 0 1.257 3.098 1.145 3.098 3.158 0 1.203-.849 1.973-2.276 1.973a3.348 3.348 0 01-2.336-.875l.448-1a2.73 2.73 0 001.861.704c.52 0 .96-.197.96-.724 0-1.052-3.065-1.039-3.065-3.15 0-1.178.843-1.974 2.23-1.974 1.533 0 2.171.888 2.171 1.974l-1.144.21zm7.4 4.486v2.724l-1.316.302v-9.512h1.224v.599a3.02 3.02 0 011.974-.763c1.124 0 2.216.658 2.216 3.414 0 2.579-1.177 3.552-2.716 3.552a3.288 3.288 0 01-1.316-.316m0-1.197c.348.236.757.367 1.177.375.73 0 1.388-.605 1.388-2.414 0-1.81-.611-2.184-1.25-2.184a2.335 2.335 0 00-1.315.46v3.763zm8.525-3.44c0-.658-.414-.875-.973-.875a.985.985 0 00-1.08 1.026l-1.196-.125c.04-1.316 1.111-2.04 2.361-2.04 1.375 0 2.25.705 2.25 1.889v3.466c0 .31.145.448.362.448a1.12 1.12 0 00.657-.263l.08 1c-.313.29-.725.448-1.152.44a1.006 1.006 0 01-1.111-.927 2.434 2.434 0 01-1.908.927 1.645 1.645 0 01-1.776-1.802c0-1.697 1.625-2.401 3.486-2.388V48.1zm0 1.789c-1.164-.04-2.138.388-2.138 1.237 0 .513.224.79.75.79a2.016 2.016 0 001.388-.738V49.89zm4.566-3.638v.658a2.257 2.257 0 011.69-.816c.987 0 1.171.902 1.171 1.875l-1.158.138c0-.4-.052-.657-.427-.657-.454.082-.86.33-1.138.697v4.743H60.42V46.25h1.197zm6.985 1.849c0-.658-.407-.875-.973-.875a.986.986 0 00-1.072 1.026l-1.204-.125c.04-1.316 1.112-2.04 2.361-2.04 1.375 0 2.25.705 2.25 1.889v3.466c0 .31.151.448.362.448a1.11 1.11 0 00.658-.263l.085.986c-.31.29-.72.448-1.144.441a.998.998 0 01-1.112-.927 2.447 2.447 0 01-1.934.927 1.644 1.644 0 01-1.776-1.802c0-1.697 1.625-2.401 3.486-2.388l.013-.763zm0 1.789c-1.157-.04-2.137.388-2.137 1.237 0 .513.23.79.75.79a2.015 2.015 0 001.388-.738V49.89zm7.92-3.638v4.552a1.125 1.125 0 002.25 0v-4.552h1.362v4.513c0 1.552-1.053 2.29-2.487 2.29-1.434 0-2.486-.738-2.486-2.29V46.25h1.362zm6.631.599a3.382 3.382 0 012.066-.763c1.197 0 1.973.658 1.973 2.118v4.684h-1.361v-4.414c0-.81-.277-1.099-1.04-1.099a2.868 2.868 0 00-1.473.487v5.026h-1.362V46.25h1.224l-.027.599zm10.394 0a3.29 3.29 0 011.973-.763 1.645 1.645 0 011.553.776 3.848 3.848 0 012.118-.776c1.191 0 1.862.658 1.862 2.118v4.684h-1.362v-4.447c0-.829-.322-1.066-1-1.066a2.868 2.868 0 00-1.375.487c.027.178.04.359.04.54v4.486H96.02v-4.263c0-.934-.17-1.25-1-1.25a2.63 2.63 0 00-1.315.487v5.026h-1.362V46.25h1.224l-.02.599zm10.545-.599v4.552a1.124 1.124 0 102.249 0v-4.552h1.362v4.513c0 1.552-1.052 2.29-2.486 2.29-1.434 0-2.487-.738-2.487-2.29V46.25h1.362zm6.631.599a3.38 3.38 0 012.065-.763c1.197 0 1.974.658 1.974 2.118v4.684h-1.362v-4.414c0-.81-.276-1.099-1.04-1.099a2.868 2.868 0 00-1.473.487v5.026h-1.362V46.25h1.224l-.026.599zm9.558 5.25a2.504 2.504 0 01-1.915.953c-1.072 0-2.269-.829-2.269-3.467 0-2.637 1.131-3.5 2.361-3.5a3.56 3.56 0 011.612.415v-2.736l1.362-.25v7.894c0 .309.145.447.362.447.242-.012.474-.104.657-.263l.093.986a1.66 1.66 0 01-1.152.441.985.985 0 01-1.098-.954m-.211-4.5a2.74 2.74 0 00-1.315-.374c-.658 0-1.224.414-1.224 2.302 0 1.625.553 2.276 1.151 2.276a1.903 1.903 0 001.401-.75l-.013-3.453zm8.493 2.034c0 2.302-.954 3.453-2.737 3.453-1.783 0-2.75-1-2.75-3.473 0-2.474.961-3.493 2.75-3.493 1.789 0 2.737 1.006 2.737 3.513zm-4.085 0c0 1.795.447 2.335 1.315 2.335.869 0 1.316-.54 1.316-2.316 0-1.776-.434-2.374-1.316-2.374-.881 0-1.315.526-1.315 2.355zm9.906.342c.06 1.532.658 1.973 1.625 1.973a2.945 2.945 0 001.73-.658l.217 1.066a3.898 3.898 0 01-2.223.724c-1.651 0-2.776-.987-2.776-3.48s.987-3.487 2.684-3.487 2.401 1.125 2.401 2.79v1.065l-3.658.007zm2.349-1.066c0-1.125-.329-1.651-1.119-1.651-.789 0-1.157.487-1.223 1.651h2.342zm4.032-2.026a3.375 3.375 0 012.059-.763c1.204 0 1.974.658 1.974 2.118v4.684h-1.362v-4.414c0-.81-.276-1.099-1.039-1.099a2.85 2.85 0 00-1.474.487v5.026h-1.362V46.25h1.224l-.02.599zm10.144 3.092c.059 1.532.658 1.973 1.625 1.973a2.964 2.964 0 001.736-.658l.211 1.066a3.903 3.903 0 01-2.224.724c-1.651 0-2.776-.987-2.776-3.48s.987-3.487 2.691-3.487c1.704 0 2.394 1.125 2.394 2.79v1.065l-3.657.007zm2.348-1.066c0-1.125-.329-1.651-1.112-1.651-.782 0-1.164.487-1.223 1.651h2.335zm3.348-2.625l1.658 5.138 1.586-5.138h1.368l-2.217 6.638h-1.585l-2.263-6.638h1.453zm10.677 3.349c0 2.302-.947 3.453-2.737 3.453-1.789 0-2.743-1-2.743-3.473 0-2.474.961-3.493 2.743-3.493 1.783 0 2.737 1.006 2.737 3.513zm-4.085 0c0 1.795.454 2.335 1.348 2.335.895 0 1.316-.54 1.316-2.316 0-1.776-.441-2.374-1.316-2.374s-1.348.526-1.348 2.355zm6.946-6.085v7.847a.443.443 0 00.112.364.43.43 0 00.355.136 1.64 1.64 0 00.81-.263l.138 1.053a2.776 2.776 0 01-1.388.401c-1.112 0-1.388-.816-1.388-1.69v-7.598l1.361-.25zm3.513 2.736v4.552a1.125 1.125 0 002.25 0v-4.552h1.355v4.513c0 1.552-1.046 2.29-2.48 2.29s-2.487-.738-2.487-2.29V46.25h1.362zm8.644 2.237c-.04-.658-.316-1.263-1.066-1.263s-1.197.48-1.197 2.355.566 2.335 1.552 2.335a2.754 2.754 0 001.671-.599l.263 1.014a3.72 3.72 0 01-2.21.723c-1.723 0-2.697-1.085-2.697-3.486 0-2.401.835-3.474 2.671-3.474 1.598 0 2.21.987 2.236 2.27l-1.223.125zm4.059-3.098h-1.362v-1.5h1.362v1.5zm0 7.525h-1.362v-6.664h1.362v6.664zm6.986-3.315c0 2.302-.954 3.453-2.737 3.453-1.783 0-2.75-1-2.75-3.473 0-2.474.961-3.493 2.75-3.493 1.789 0 2.737 1.006 2.737 3.513zm-4.092 0c0 1.795.454 2.335 1.355 2.335s1.316-.54 1.316-2.316c0-1.776-.441-2.374-1.316-2.374s-1.355.526-1.355 2.355zm3.289-6.066l-1.454 1.974h-1.158l1.224-1.974h1.388zm3.526 3.316a3.342 3.342 0 012.059-.763c1.197 0 1.973.658 1.973 2.118v4.684h-1.361v-4.414c0-.81-.277-1.099-1.04-1.099a2.868 2.868 0 00-1.473.487v5.026h-1.362V46.25h1.23l-.026.599zM44.514 4.842c.092 1.223.151 4.282.151 5.407s0 4.473-.164 5.966v.119h5.388c2.63 0 5.433-.836 5.433-3.184 0-1.474-1.066-2.566-3.059-3.158 1.46-.394 2.454-1.407 2.454-2.578 0-1.908-2.197-2.632-4.256-2.684h-5.947v.112zm4.158 1.184c2.25 0 3.085.467 3.085 1.697.004.312-.104.615-.303.855a2.836 2.836 0 01-2.335.73h-.053l-.658 1.632h.658a3.531 3.531 0 012.881 1.032c.253.29.39.662.389 1.046 0 1.316-1.125 1.974-3.342 1.974h-1.362c-.079-1.697-.079-4.013-.079-4.697 0-.81 0-2.631.086-4.157.35-.053.705-.075 1.059-.066M67.735 4.73h-2.631l.112 2.914c.046 1.454.092 2.94.19 4.381a9.061 9.061 0 00-1.105-1.835c0-.046-2.736-4.243-3.683-5.434h-3.053v.105c.086 1.224.152 4.283.152 5.408 0 1.026 0 4.48-.171 5.966v.125h2.703v-.118c-.158-2.842-.158-5.697-.158-8.46.141.46.364.89.658 1.27.046.072 4.69 6.86 4.927 7.269v.046h2.178v-.125c-.165-1.494-.171-4.94-.171-5.967 0-1.125.065-4.183.15-5.407V4.73h-.098zm3.144.105c.086 1.23.152 4.282.152 5.407 0 1.027 0 4.473-.171 5.967v.118h3.216v-.118c-.111-1.066-.15-3.105-.164-4.677h1.046c4.25 0 6.308-1.138 6.308-3.493 0-2.69-2.894-3.29-5.315-3.362h-5.058l-.014.158zm3.947 1.316c1.507 0 2.573.29 3.079.914.235.302.358.676.349 1.06 0 1.677-1.875 2.032-3.454 2.032h-.658l-.256-.04V8.65c0-.743 0-1.591.04-2.4a6.71 6.71 0 01.894-.08m12.584-1.335c.092 1.23.151 4.282.151 5.407 0 1.027 0 4.473-.17 5.967v.118h3.23v-.118c-.106-1.066-.152-3.105-.165-4.677h1.046c4.242 0 6.315-1.138 6.315-3.493 0-2.69-2.895-3.29-5.322-3.362H87.43l-.026.158zm3.947 1.316c1.506 0 2.572.29 3.085.914.23.304.35.678.342 1.06 0 1.677-1.875 2.032-3.454 2.032h-.657l-.25-.04V8.644c0-.743 0-1.585.04-2.395.295-.046.594-.072.894-.079m10.742-1.44h-.059v.066c-.599 1.644-4.454 10.084-5.052 11.38l-.08.158h2.764v-.066c.243-.79.552-1.69.914-2.664l2.283-.033h2.295c.5 1.25.869 2.197 1.033 2.67v.06h3.204L104.251 4.73h-2.158zm.783 3.42c.256.54.921 2.099 1.664 3.947h-3.361c.598-1.473 1.19-2.802 1.697-3.946zm7.815-3.315c.079 1.224.151 4.282.151 5.407 0 1.027 0 4.48-.178 5.967v.125h3.23v-.125c-.164-1.493-.171-4.94-.171-5.967 0-.802.033-2.63.092-4.052.263-.033.625-.059.869-.066 1.506-.032 2.572.29 3.078.915.236.299.36.671.349 1.052 0 1.316-1.257 2.013-2.428 2.079-.219.01-.44 0-.657-.033l-.217-.04.138.205c1.131 1.677 2.848 4.604 3.572 5.986v.046h3.453l-.105-.171c-.118-.191-2.381-3.513-3.342-4.934l-.066-.085c1.757-.533 2.632-1.533 2.632-3.053 0-2.69-2.895-3.289-5.322-3.361h-5.059l-.019.105zm15.833-.118h-3.072v.112c.086 1.23.152 4.288.152 5.413 0 1.02 0 4.467-.171 5.96v.119h3.223v-.119c-.158-1.493-.171-4.94-.171-5.96 0-1.125.066-4.183.151-5.413v-.112h-.112zm3.013.125c.092 1.223.151 4.282.151 5.407s0 4.473-.171 5.966v.119h5.381c2.632 0 5.44-.836 5.44-3.184 0-1.474-1.065-2.566-3.058-3.158 1.46-.394 2.453-1.407 2.453-2.578 0-1.908-2.19-2.632-4.256-2.684h-5.92l-.02.112zm4.158 1.184c2.249 0 3.085.467 3.085 1.697a1.32 1.32 0 01-.303.855 2.829 2.829 0 01-2.348.73h-.06l-.611 1.632h.625a3.53 3.53 0 012.861 1.032c.25.292.388.663.388 1.046 0 1.316-1.125 1.974-3.335 1.974h-1.368c-.079-1.697-.079-4.013-.079-4.697 0-.816 0-2.631.092-4.157.348-.053.7-.075 1.053-.066m14.557-1.355h-2.171v.065c-.658 1.75-4.716 10.65-5.052 11.387l-.079.152h2.77v-.066c.236-.79.552-1.69.914-2.664l2.283-.033h2.295c.5 1.256.869 2.197 1.027 2.67v.06h3.203l-5.144-11.571h-.046zm-1.316 3.42c.264.546.915 2.099 1.671 3.947h-1.671l-1.69-.033c.592-1.473 1.184-2.795 1.69-3.947m7.434-.374c0 2.039 2.052 2.868 3.861 3.604 1.408.566 2.855 1.158 2.855 2.125a1.06 1.06 0 01-.224.71c-.335.402-1.026.573-2.118.52a9.899 9.899 0 01-3.624-1.026l-.566-.257v2.533l.362.079.223.046a14.27 14.27 0 003.289.474c3.395 0 5.427-1.355 5.427-3.605 0-2.092-2.098-2.927-3.946-3.664-1.362-.546-2.776-1.112-2.776-1.974 0-.263 0-1.039 1.749-1.039a8.916 8.916 0 013.289.816l.658.276V4.776l-.658-.119a15.335 15.335 0 00-2.887-.342c-2.941 0-4.914 1.375-4.914 3.414zM52.612 22.398a4.131 4.131 0 00-2.145-.605c-2.63 0-3.512 2.065-3.512 3.835 0 2.453 1.506 3.69 3.532 3.69a4.513 4.513 0 003.052-1.316v2.125a9.04 9.04 0 01-3.519.658c-3.644 0-5.92-2.27-5.92-5.157 0-3.04 2.407-5.263 6.387-5.263.915.01 1.825.131 2.71.362l-.585 1.67zm8.801-1.868c.389 1.032 3.69 8.387 4.467 10.051h-2.77a56.47 56.47 0 00-.92-2.368h-3.947a36.355 36.355 0 00-.81 2.368H55c.572-1.25 3.947-8.552 4.48-10.051h1.934zm.244 6.36l-1.434-3.4c-.46.973-.96 2.125-1.493 3.4h2.927zm10.354-6.36c2.112 0 4.605.592 4.605 2.914 0 1.315-.757 2.184-2.27 2.631a53.997 53.997 0 003.06 4.506h-3c-.658-1.25-2.152-3.776-3.244-5.414.256.054.516.078.777.073.875 0 2.105-.658 2.105-1.796 0-1.447-1.75-1.71-2.632-1.71-.364 0-.729.02-1.092.059a88.746 88.746 0 00-.085 3.519c0 .888 0 3.861.158 5.263h-2.796c.138-1.395.171-3.19.171-5.263 0-1.75 0-3.848-.145-4.782h4.388zm11.163 0c4.236 0 5.855 2.223 5.855 5.012 0 2.79-1.58 5.04-6.013 5.04h-3.73c.139-1.35.139-3.204.139-5.263 0-.974 0-3.487-.139-4.796l3.888.007zm-1.164 1.263c-.06.657-.073 2.368-.073 3.532 0 1.467 0 2.631.06 3.947.238.026.477.039.717.04 2.427 0 3.69-.764 3.69-3.849 0-2.94-1.316-3.776-3.75-3.716l-.644.046zm12.183-1.263c-.086 1.164-.145 3.802-.145 4.795 0 .875 0 3.861.145 5.263h-2.79c.145-1.395.158-4.381.158-5.263 0-.881-.059-3.631-.125-4.795h2.757zm10.65 0v1.453a92.78 92.78 0 00-3.414-.105c-.487 0-1.033 0-1.592.046-.046.619-.06 1.395-.06 2.066v.875l3.507-.053v1.559l-3.513-.138c0 1.276 0 3.256.158 4.348h-2.79c.178-1.395.178-4.381.178-5.262 0-.882-.072-3.632-.164-4.796l7.69.007z" fill="#000"/></g><defs><linearGradient id="paint0_linear_46_9125" x1="18.006" y1="-.806" x2="18.006" y2="36.21" gradientUnits="userSpaceOnUse"><stop stop-color="#43774F"/><stop offset=".6" stop-color="#9FC8AD"/><stop offset="1" stop-color="#549462"/></linearGradient><linearGradient id="paint1_linear_46_9125" x1="18.539" y1="-8.729" x2="18.539" y2="32.871" gradientUnits="userSpaceOnUse"><stop stop-color="#549462"/><stop offset=".3" stop-color="#9FC8AD"/><stop offset=".55" stop-color="#549462"/><stop offset=".84" stop-color="#43774F"/><stop offset=".89" stop-color="#488057"/><stop offset=".98" stop-color="#56986E"/><stop offset="1" stop-color="#599D73"/></linearGradient><linearGradient id="paint2_linear_46_9125" x1="24.929" y1="30.555" x2="24.929" y2="3.637" gradientUnits="userSpaceOnUse"><stop stop-color="#5EA77E"/><stop offset="1" stop-color="#549462"/></linearGradient><linearGradient id="paint3_linear_46_9125" x1="8.39" y1="30.539" x2="8.39" y2="3.615" gradientUnits="userSpaceOnUse"><stop stop-color="#5EA77E"/><stop offset="1" stop-color="#549462"/></linearGradient><linearGradient id="paint4_linear_46_9125" x1="13.216" y1="30.579" x2="13.216" y2="3.667" gradientUnits="userSpaceOnUse"><stop stop-color="#5EA77E"/><stop offset="1" stop-color="#549462"/></linearGradient><linearGradient id="paint5_linear_46_9125" x1="17.943" y1="30.556" x2="17.943" y2="3.638" gradientUnits="userSpaceOnUse"><stop stop-color="#5EA77E"/><stop offset="1" stop-color="#549462"/></linearGradient><clipPath id="clip0_46_9125"><path fill="#fff" transform="translate(.44)" d="M0 0h199.648v56H0z"/></clipPath></defs></svg>