<svg width="91" height="56" fill="none" xmlns="http://www.w3.org/2000/svg"><path d="M4.396 44.179h84.05v.3H4.397v-.3zM6.1 52.944h2.754v1.403H4.396v-7.614H6.1v6.212zm11.12-6.21h-1.754l-2.855 7.613h1.753l.551-1.703h2.805l.551 1.703h1.753l-2.805-7.614zm-1.904 4.708l.701-2.054.15-.45.15-.602c.05.2.101.401.151.551.05.2.1.3.15.451l.702 2.104h-2.004zm24.995-4.709h-1.754l-2.855 7.614h1.804l.55-1.703h2.806l.45 1.302c0 .05.05.05.05.05l.1.301h1.754l-2.905-7.563zm-1.854 4.709l.702-2.054.15-.45.15-.602c.05.2.1.401.15.551.05.2.1.3.15.451l.702 2.104h-2.004zm25.896-4.709H62.6l-2.855 7.614h1.753l.551-1.703h2.805l.551 1.703h1.754l-2.806-7.614zM62.5 51.442l.702-2.054.15-.45.15-.602c.05.2.1.401.15.551.05.2.1.3.15.451l.702 2.104H62.5zm23.142-4.709h-1.754l-2.855 7.614h1.754l.55-1.703h2.805l.551 1.703h1.754l-2.805-7.614zm-1.904 4.709l.701-2.054.15-.45.15-.602c.051.2.101.401.151.551.05.2.1.3.15.451l.702 2.104h-2.004zm-52.644.801l-.25.2-.05.05c-.1.1-.2.151-.3.201l-.302.15c-.1.05-.2.05-.35.1-.15.05-.25.05-.45.05-.251 0-.502-.05-.752-.15-.25-.1-.451-.25-.601-.45-.2-.2-.3-.451-.401-.752-.1-.3-.15-.65-.15-1.052 0-.4.05-.7.15-1.001.1-.301.25-.551.45-.752.201-.2.401-.4.652-.5.25-.1.55-.151.852-.151.2 0 .3.05.45.05.15.05.25.05.35.1.101.05.201.1.251.15.1.05.15.1.2.15.05 0 .05.05.05.05l.351.301.25-.4.552-.802c-.15-.15-.3-.3-.501-.4-.2-.15-.4-.2-.601-.3-.2-.101-.45-.151-.701-.201-.25-.05-.501-.1-.802-.1-.55 0-1.102.1-1.553.3-.45.2-.851.45-1.202.801-.35.351-.6.752-.801 1.203-.2.5-.25 1.001-.25 1.552 0 .551.1 1.102.25 1.553.15.501.4.902.701 1.202.3.351.701.601 1.152.802.451.2.952.3 1.503.3.6 0 1.152-.1 1.603-.3.45-.2.801-.451 1.052-.852l.05-.05-.852-1.052zm23.592-5.51h-.851l-.15.351-1.854 3.757c-.05.15-.15.25-.2.45-.05.15-.15.301-.2.451-.05-.15-.1-.3-.2-.45-.051-.15-.151-.25-.201-.401l-1.803-3.807-.15-.3h-1.804v7.613h1.503V49.74c0-.1-.05-.25-.05-.35l1.953 3.906.2.35h1.102l.2-.4.351-.701.1-.2 1.503-2.956c-.05.25-.05.501-.05.701v4.358h1.503v-7.714h-.902zm21.138 4.96c-.1-.151-.15-.251-.25-.301-.1-.1-.2-.15-.301-.2.25-.1.45-.2.601-.351.2-.15.35-.3.45-.501.151-.2.201-.4.302-.601.05-.2.1-.451.1-.701 0-.301-.05-.601-.15-.902-.1-.3-.251-.5-.501-.701-.251-.2-.552-.35-.902-.451-.4-.1-.852-.15-1.353-.15h-2.404v7.613h1.703v-2.855h.451c.15 0 .25.05.3.05.1.05.15.1.2.2l.652 1.153v.05l.551 1.002c0 .05.05.05.05.05l.15.25h1.954l-1.603-2.655zM73.72 50.34h-.701v-2.254h.701c.451 0 .752.1.952.25.2.2.3.451.3.802 0 .15-.05.3-.1.45-.05.15-.15.251-.2.401-.1.1-.25.2-.4.25-.1.05-.301.1-.552.1z" fill="#EBEFF4"/><path d="M20.575 32.809v-6.712c-4.758-.952-8.264-4.659-8.264-8.516 0-3.606 3.406-7.413 8.264-8.314V2.605c-10.118.951-16.179 8.064-16.179 15.077 0 7.313 6.462 14.125 16.18 15.127z" fill="#C12A21"/><path d="M88.445 32.809v-6.712c-4.758-.952-8.265-4.659-8.265-8.516 0-3.606 3.406-7.413 8.265-8.314V2.605c-10.118.951-16.129 8.114-16.129 15.077 0 7.313 6.462 14.125 16.13 15.127z" fill="#456091"/><path d="M50.078 26.948c.55-1.102.801-2.304.801-3.556 0-1.753-.55-3.256-1.703-4.709-1.152-1.402-2.504-2.404-4.157-3.055-1.653-.601-4.258-1.252-7.814-1.853-2.104-.351-3.506-.802-4.108-1.303-.6-.5-.901-1.102-.901-1.803 0-1.803 1.603-2.705 4.809-2.705 1.953 0 3.506.501 4.608 1.553h8.264c-1.903-4.658-6.31-7.013-13.123-7.013-3.807 0-6.862.902-9.116 2.755-2.254 1.854-3.356 4.108-3.356 6.762 0 2.605.951 4.609 2.805 5.961 1.903 1.352 5.059 2.454 9.467 3.206 2.404.45 3.957.851 4.808 1.352.852.501 1.252 1.152 1.252 2.054 0 .851-.45 1.603-1.402 2.204a.38.38 0 01-.2.1s-.902.651-4.058.651c-3.155 0-4.057-.651-4.057-.651-.952-.45-1.703-1.102-2.204-1.903h-8.215c.2.7.451 1.302.752 1.903 0 0 3.556 5.91 13.724 5.91 10.118.1 13.124-5.86 13.124-5.86z" fill="#C12A21"/><path d="M61.347 26.297V2.504h-7.714V32.86h18.683v-6.562h-10.97z" fill="#456091"/><path d="M12.16 40.322c0 .25-.05.45-.1.651-.1.2-.2.4-.3.501-.15.15-.3.25-.501.35-.2.1-.401.151-.651.151s-.451-.05-.652-.15c-.2-.1-.4-.2-.5-.35a1.058 1.058 0 01-.301-.502c-.1-.2-.1-.4-.1-.651 0-.25.05-.45.1-.651.1-.2.2-.4.3-.501a1.8 1.8 0 01.501-.35c.2-.1.401-.151.652-.151.25 0 .45.05.65.15.201.1.402.2.502.35.15.151.25.302.3.502.05.2.1.4.1.651zm-.65 0c0-.15-.05-.3-.101-.45a.807.807 0 00-.2-.351c-.1-.1-.2-.15-.3-.2-.151-.05-.251-.101-.452-.101-.15 0-.3.05-.45.1a.77.77 0 00-.301.2c-.1.1-.15.2-.2.351-.05.15-.1.3-.1.451 0 .15.05.3.1.45.05.151.1.251.2.351.1.1.2.15.3.2.15.05.25.101.451.101.15 0 .3-.05.451-.1.15-.05.2-.15.3-.2.1-.1.15-.2.201-.351.1-.1.1-.3.1-.451zm3.255.35v1.253h-.601v-3.206h.952c.2 0 .4.05.55.05.15.05.251.1.401.2.1.1.15.2.2.301.05.1.1.25.1.4 0 .101-.05.201-.05.301-.05.1-.1.2-.15.25-.05.101-.15.151-.2.201l-.3.15c.1.05.15.1.2.2l.801 1.153h-.7l-.752-1.152-.1-.1c-.05-.05-.1-.05-.15-.05h-.201v.05zm0-.4h.4c.1 0 .201-.05.301-.05.1-.05.15-.05.2-.1.05-.05.1-.1.1-.15.05-.1.05-.15.05-.201 0-.15-.05-.3-.15-.4-.1-.1-.25-.151-.5-.151h-.401v1.052zm10.218-1.553v.45h-1.402v.903h1.102v.5H23.58v.902h1.402v.45H22.98V38.72h2.003zm4.909 1.603c0 .25-.05.45-.1.651-.1.2-.2.35-.3.501-.151.15-.301.25-.502.3-.2.1-.4.1-.65.1h-1.203V38.67h1.202c.25 0 .451.05.651.1.2.1.401.2.501.3.15.151.25.301.3.502.05.3.101.5.101.751zm-.601 0c0-.15-.05-.3-.1-.45a.807.807 0 00-.2-.351c-.1-.1-.201-.15-.301-.2-.15-.05-.25-.101-.45-.101h-.602v2.254h.601c.15 0 .3-.05.45-.1.151-.05.201-.15.301-.2.1-.1.15-.2.2-.351.05-.15.1-.35.1-.501zm5.66 0c0 .25-.05.45-.1.651-.1.2-.2.4-.3.501-.15.15-.301.25-.502.35-.2.1-.4.151-.65.151a1.39 1.39 0 01-.652-.15c-.2-.1-.4-.2-.5-.35a1.042 1.042 0 01-.301-.502c-.1-.2-.1-.4-.1-.651 0-.25.05-.45.1-.651.05-.2.2-.4.3-.501.15-.15.3-.25.501-.35.2-.1.4-.151.651-.151.25 0 .451.05.651.15.2.1.401.2.501.35.15.151.25.302.3.502.051.2.101.4.101.651zm-.601 0c0-.15-.05-.3-.1-.45a.807.807 0 00-.2-.351c-.1-.1-.2-.15-.301-.2-.15-.05-.25-.101-.45-.101a.951.951 0 00-.402.1c-.15.05-.25.15-.3.2-.1.1-.15.2-.2.351-.05.15-.1.3-.1.451 0 .15.05.3.1.45.05.151.1.251.2.351.1.1.2.15.3.2.15.05.25.101.401.101.15 0 .3-.05.45-.1.151-.05.201-.15.301-.2.1-.1.15-.2.2-.351.05-.1.101-.3.101-.451zm9.868 1.603h-.602l-.3-.802h-1.302l-.351.802h-.601l1.252-3.206h.601l1.303 3.206zm-2.104-1.202h1.052l-.401-1.052c-.05-.05-.05-.1-.05-.15 0-.05-.05-.15-.05-.25-.05.1-.05.15-.05.2-.05.05-.05.1-.05.15l-.451 1.102zm9.166-.401c0 .25-.05.45-.1.651-.1.2-.2.35-.3.501-.15.15-.301.25-.501.3-.2.1-.401.1-.652.1h-1.202V38.67h1.152c.25 0 .451.05.651.1.2.1.401.2.501.3.15.151.25.301.3.502.101.3.151.5.151.751zm-.6 0c0-.15-.051-.3-.101-.45a.807.807 0 00-.2-.351c-.1-.1-.2-.15-.3-.2-.151-.05-.251-.101-.452-.101h-.6v2.254h.6c.15 0 .3-.05.451-.1.15-.05.2-.15.3-.2.1-.1.15-.2.201-.351.05-.15.1-.35.1-.501zm4.607-1.603v.45h-1.402v.903h1.102v.5h-1.102v.902h1.402v.45h-2.003V38.72h2.003zm10.369 0v.45h-1.403v.903h1.102v.5h-1.102v.902h1.403v.45h-2.004V38.72h2.004zm8.064 2.705c.1 0 .2-.05.3-.05.101-.05.151-.1.201-.15.05-.1.1-.15.15-.25.05-.101.05-.201.05-.301v-1.904h.602v1.904c0 .2-.05.35-.1.5-.05.15-.15.301-.251.401-.1.1-.25.2-.4.25-.151.05-.351.1-.552.1-.2 0-.4-.05-.55-.1a1.085 1.085 0 01-.401-.25c-.1-.1-.2-.25-.25-.4a1.46 1.46 0 01-.101-.501v-1.904h.601v1.904c0 .15.05.25.05.3.05.1.1.2.15.25.05.1.15.15.2.15.1.051.201.051.301.051zm10.87-1.102c0 .25-.05.45-.1.651-.1.2-.2.4-.301.501-.15.15-.3.25-.5.35-.201.1-.402.151-.652.151s-.45-.05-.651-.15c-.2-.1-.401-.2-.501-.35a1.048 1.048 0 01-.3-.502c-.1-.2-.1-.4-.1-.651 0-.25.05-.45.1-.651.05-.2.2-.4.3-.501.15-.15.3-.25.5-.35.201-.1.401-.151.652-.151.25 0 .45.05.651.15.2.1.4.2.501.35.15.151.25.302.3.502.05.2.1.4.1.651zm-.651 0c0-.15-.05-.3-.1-.45a.806.806 0 00-.201-.351c-.1-.1-.2-.15-.3-.2-.15-.05-.251-.101-.451-.101-.15 0-.3.05-.451.1-.15.05-.25.15-.3.2-.1.1-.151.2-.201.351-.05.15-.1.3-.1.451 0 .15.05.3.1.45.05.151.1.251.2.351.1.1.2.15.3.2.151.05.251.101.452.101.15 0 .3-.05.45-.1.15-.05.2-.15.301-.2.1-.1.15-.2.2-.351.1-.1.1-.3.1-.451zm-77.288.851c-.05.05-.1.1-.15.1-.05.05-.1.05-.151.1-.05.051-.1.051-.2.051h-.2c-.151 0-.251-.05-.401-.1-.1-.05-.2-.15-.301-.2-.1-.1-.15-.2-.2-.351-.05-.15-.1-.3-.1-.501 0-.15.05-.3.1-.45.05-.151.1-.251.2-.352.1-.1.2-.15.3-.2.15-.05.251-.1.401-.1.15 0 .25 0 .3.05.101.05.151.05.201.1.05.05.1.05.15.1l.15.1.301-.4c-.15-.15-.25-.2-.45-.3-.2-.1-.401-.1-.602-.1-.2 0-.45.05-.7.1-.201.1-.402.2-.502.3-.15.15-.25.3-.3.5-.1.201-.1.402-.1.652s.05.45.1.651c.1.2.15.4.3.501.15.15.3.25.501.3.2.1.4.15.651.15.25 0 .501-.05.702-.15.2-.1.35-.2.5-.4l-.3-.35-.2.2zm12.522-.5v1.252h-.601v-3.206h.951c.2 0 .401.05.552.05.15.05.25.1.4.2.1.1.15.2.2.301.05.1.1.25.1.4 0 .101-.05.201-.05.301-.05.1-.1.2-.15.25-.05.101-.15.151-.2.201l-.3.15c.1.05.15.1.2.2l.801 1.153h-.701l-.751-1.152-.1-.1c-.05-.05-.1-.05-.15-.05h-.201v.05zm0-.401h.4c.1 0 .2-.05.301-.05.1-.05.15-.05.2-.1.05-.05.1-.1.1-.15.05-.1.05-.15.05-.201 0-.15-.05-.3-.15-.4-.1-.1-.25-.151-.5-.151h-.401v1.052zm18.383.4v1.253h-.601v-3.206h.951c.2 0 .401.05.551.05.15.05.25.1.401.2.1.1.15.2.2.301.05.1.1.25.1.4 0 .101-.05.201-.05.301-.05.1-.1.2-.15.25-.05.101-.15.151-.2.201l-.3.15c.1.05.15.1.2.2l.801 1.153h-.701l-.752-1.152-.1-.1c-.05-.05-.1-.05-.15-.05h-.2v.05zm0-.4h.4c.1 0 .2-.05.3-.05.101-.05.151-.05.201-.1.05-.05.1-.1.1-.15.05-.1.05-.15.05-.201 0-.15-.05-.3-.15-.4-.1-.1-.25-.151-.5-.151h-.401v1.052zm40.272.4v1.253h-.602v-3.206h.952c.2 0 .4.05.551.05.15.05.25.1.4.2.101.1.151.2.201.301.05.1.1.25.1.4 0 .101-.05.201-.05.301-.05.1-.1.2-.15.25-.05.101-.15.151-.2.201l-.3.15c.1.05.15.1.2.2l.801 1.153h-.701l-.752-1.152-.1-.1c-.05-.05-.1-.05-.15-.05h-.2v.05zm0-.4h.4c.1 0 .2-.05.3-.05.101-.05.151-.05.201-.1.05-.05.1-.1.1-.15.05-.1.05-.15.05-.201 0-.15-.05-.3-.15-.4-.1-.1-.25-.151-.5-.151h-.401v1.052zm-8.566.05v.45h.501v.552c-.1.05-.2.1-.25.1-.1.05-.2.05-.35.05a.951.951 0 01-.402-.1.769.769 0 01-.3-.2c-.1-.1-.15-.2-.2-.351-.05-.15-.1-.3-.1-.501 0-.15.05-.3.1-.45.05-.151.1-.251.2-.351.1-.1.2-.15.3-.2.15-.05.25-.101.451-.101.1 0 .2 0 .25.05.1.05.15.05.201.05.05 0 .1.05.15.1.05.05.1.05.15.1l.15.1.251-.45c-.15-.15-.3-.2-.5-.3-.201-.1-.401-.1-.702-.1-.25 0-.5.05-.701.1-.2.1-.4.2-.501.3-.1.1-.25.3-.3.5-.1.201-.1.402-.1.652s.05.45.1.651c.1.2.2.4.3.501.15.15.3.25.5.3.201.1.402.15.652.15.15 0 .25 0 .4-.05.1 0 .201-.05.301-.05.1-.05.2-.05.25-.1.05-.05.151-.1.251-.15v-1.302l-1.052.05zm-7.663.25c-.05-.1-.1-.15-.15-.25-.1-.05-.15-.1-.251-.15-.1-.05-.2-.1-.25-.1-.1-.05-.2-.05-.251-.1-.05-.05-.15-.05-.25-.1s-.15-.101-.15-.151c-.05-.05-.05-.1-.05-.2 0-.05 0-.1.05-.15.05-.05.05-.1.1-.151.05-.05.1-.05.15-.1.05-.05.15-.05.2-.05.05 0 .15 0 .25.05.05.05.15.05.15.1.05.05.101.05.151.1h.05l.15.1.2-.45c-.1-.1-.25-.2-.4-.25-.15-.051-.3-.101-.5-.101-.151 0-.301.05-.452.1-.15.05-.25.1-.3.2-.1.1-.15.2-.2.301-.05.1-.1.2-.1.3 0 .15.05.251.05.401.05.1.1.2.15.25.1.05.15.1.25.151.1.05.2.1.25.1.1.05.2.05.251.1.1.05.15.05.25.1s.15.1.15.15c.05.05.05.101.05.201 0 .15-.05.25-.15.35-.1.101-.2.101-.4.101-.1 0-.2-.05-.25-.05-.1-.05-.15-.05-.201-.1-.05-.05-.1-.1-.15-.1h-.05l-.25-.1-.251.45c.05.05.15.1.2.15.1.05.15.1.25.15.1.05.2.05.251.1.1.05.2.051.3.051.2 0 .301-.05.451-.1.15-.05.25-.15.351-.2.1-.1.15-.2.2-.301.05-.15.1-.25.1-.4.1-.201.1-.301.05-.402zm26.798 0c-.05-.1-.1-.15-.15-.25-.101-.05-.151-.1-.251-.15-.1-.05-.2-.1-.25-.1-.1-.05-.201-.05-.251-.1-.05-.05-.15-.05-.25-.1s-.15-.101-.15-.151c-.05-.05-.05-.1-.05-.2 0-.05 0-.1.05-.15.05-.05.05-.1.1-.151.05-.05.1-.05.15-.1.05-.05.15-.05.2-.05.05 0 .15 0 .25.05.05.05.15.05.15.1.05.05.1.05.15.1h.051l.15.1.2-.45c-.1-.1-.25-.2-.4-.25-.15-.051-.3-.101-.501-.101-.15 0-.3.05-.45.1-.151.05-.251.1-.301.2-.1.1-.15.2-.2.301-.05.1-.1.2-.1.3 0 .15.05.251.05.401.05.1.1.2.15.25.1.05.15.1.25.151.1.05.2.1.25.1.1.05.2.05.25.1.051.05.151.05.251.1s.15.1.15.15c.05.05.05.101.05.201 0 .15-.05.25-.15.35-.1.101-.2.101-.4.101-.1 0-.2-.05-.25-.05-.1-.05-.151-.05-.201-.1-.05-.05-.1-.1-.15-.1h-.05l-.15-.1-.251.45c.05.05.15.1.2.15.1.05.15.1.25.15.1.05.201.05.251.1.1.05.2.051.3.051.201 0 .301-.05.451-.1.15-.05.25-.15.351-.2.1-.1.15-.2.2-.301.05-.15.1-.25.1-.4 0-.201 0-.301-.05-.402z" fill="#EBEFF4"/></svg>