<svg width="201" height="56" fill="none" xmlns="http://www.w3.org/2000/svg"><g clip-path="url(#clip0_557_7576)"><mask id="a" style="mask-type:luminance" maskUnits="userSpaceOnUse" x="0" y="0" width="36" height="36"><path d="M.695 0h35.069v35.068H.695V0z" fill="#fff"/></mask><g mask="url(#a)"><path d="M.695 0h35.069v35.068H.695V0z" fill="url(#paint0_linear_557_7576)"/></g><mask id="b" style="mask-type:luminance" maskUnits="userSpaceOnUse" x="1" y="0" width="35" height="34"><path d="M3.433.618c-.658 0-1.125.573-1.23 1.375 0 0-.875 4.605-.875 14.38a131.87 131.87 0 00.875 16.176c.085.776.552 1.381 1.23 1.381H33.79a1.276 1.276 0 001.23-1.381s-.342-7.493-.342-14.788.342-15.788.342-15.788A1.316 1.316 0 0033.79.618H3.433z" fill="#fff"/></mask><g mask="url(#b)"><path d="M1.328.618h33.707V33.93H1.328V.618z" fill="url(#paint1_linear_557_7576)"/></g><mask id="c" style="mask-type:luminance" maskUnits="userSpaceOnUse" x="17" y="3" width="15" height="13"><path d="M20.484 4.138c.953.4 4.802 2.48 5.262 3.144a32.371 32.371 0 00-7.782 2.237l-.118.243a53.527 53.527 0 017.59-.875 23.827 23.827 0 01-2.584 3.105l-.112.263c2.348-1.414 3.013-1.513 5.184-2.782.815 1.21 1.012 4 1.045 6.216.704-1.408 1.56-6.697 1.204-7.65 1.44-.987 1.638-1.783 1.638-1.783a13.36 13.36 0 00-2.763.362 25.18 25.18 0 00-8.453-2.724l-.111.244z" fill="#fff"/></mask><g mask="url(#c)"><path d="M17.86 3.894h13.952V15.69H17.859V3.894z" fill="url(#paint2_linear_557_7576)"/></g><mask id="d" style="mask-type:luminance" maskUnits="userSpaceOnUse" x="4" y="20" width="9" height="11"><path d="M6.116 20.57a14.67 14.67 0 000 4.427c-.648.116-1.287.274-1.914.474l-.112.236a23.93 23.93 0 002.697 1.48 9.156 9.156 0 002.052 2.908l.112-.243a5.262 5.262 0 01-.302-1.974 12.87 12.87 0 003.447.553l.111-.25a9.21 9.21 0 01-3.216-1.678 9.208 9.208 0 011.177-2.262l.112-.244c-.987.145-1.888.513-2.743.658-.658-1.184-.934-2.809-1.276-4.355l-.145.27z" fill="#fff"/></mask><g mask="url(#d)"><path d="M4.076 20.32h8.111v9.775h-8.11V20.32z" fill="url(#paint3_linear_557_7576)"/></g><mask id="e" style="mask-type:luminance" maskUnits="userSpaceOnUse" x="6" y="10" width="15" height="10"><path d="M11.99 12.498a18.966 18.966 0 00-1.973-.032 19.24 19.24 0 00-3.335.361l-.105.244c1.19.053 2.829.368 3.454 1a18.715 18.715 0 00-3.605 5.243s3.289-3.06 4.67-3.816c0 0 .737 2.46 1.25 3.69l.112-.243a20.64 20.64 0 011.098-4.256c.405-.137.83-.21 1.257-.217a19.188 19.188 0 015.322.342l.111-.237a19.076 19.076 0 00-5.887-1.835h.086c.226-.66.505-1.3.835-1.914a9.703 9.703 0 00-3.29 1.71" fill="#fff"/></mask><g mask="url(#e)"><path d="M6.426 10.815h13.82v8.492H6.427v-8.492z" fill="url(#paint4_linear_557_7576)"/></g><mask id="f" style="mask-type:luminance" maskUnits="userSpaceOnUse" x="14" y="25" width="8" height="6"><path d="M18.811 27.628a40.78 40.78 0 01-.098-1.42 29.97 29.97 0 01-1.671 2.078c-.69.152-1.399.21-2.105.171h-.776l-.112.244c.613.308 1.266.53 1.94.657-.564.448-1.16.855-1.782 1.217l-.112.244a14.027 14.027 0 003.611-1.362c.489.026.979-.002 1.46-.085l.12-.244c-.073-.25-.29-.401-.356-.743.905-.72 1.76-1.5 2.559-2.335l.118-.25a21.552 21.552 0 01-2.796 1.828z" fill="#fff"/></mask><g mask="url(#f)"><path d="M14.049 25.8h7.578v5.025h-7.578V25.8z" fill="url(#paint5_linear_557_7576)"/></g><path d="M28.068 9.21c-2.164 1.269-2.828 1.38-5.183 2.789a23.954 23.954 0 002.697-3.368 53.547 53.547 0 00-7.578.874 30.156 30.156 0 017.893-2.486c-.48-.658-4.328-2.737-5.262-3.138 3.046.237 6.769 1.375 8.551 2.474.91-.205 1.838-.322 2.77-.35a3.677 3.677 0 01-1.651 1.777c.362.96-.5 6.243-1.204 7.644 0-2.21-.224-5-1.046-6.217m-15.86 18.972a8.473 8.473 0 01-3.125-1.92 9.688 9.688 0 011.178-2.264 67.219 67.219 0 00-2.631.428 13.512 13.512 0 01-1.388-4.105c-.22 1.47-.22 2.964 0 4.434-.698.18-1.38.418-2.04.71a24.5 24.5 0 002.697 1.507 9.123 9.123 0 002.053 2.9 5.322 5.322 0 01-.184-2.243c1.116.339 2.274.522 3.44.546m3.237-17.57a7.283 7.283 0 00-.96 1.895 15.973 15.973 0 015.775 2.078 18.67 18.67 0 00-5.335-.355c-.427.01-.85.083-1.257.217a22.477 22.477 0 00-1.203 4.506c-.514-1.23-1.25-3.697-1.25-3.697-1.401.757-4.651 3.829-4.651 3.829a18.563 18.563 0 013.598-5.21c-.625-.658-2.263-.948-3.46-1a13.229 13.229 0 013.447-.605 16.877 16.877 0 011.974.033 9.9 9.9 0 013.328-1.678m3.42 15.347a25.734 25.734 0 01-1.683 2.072 10.29 10.29 0 01-2.987.415 7.25 7.25 0 001.94.657 13.212 13.212 0 01-1.894 1.46 13.813 13.813 0 003.612-1.354c.49.02.982-.01 1.467-.092a8.13 8.13 0 01-.244-.994c.918-.717 1.782-1.5 2.585-2.341a17.331 17.331 0 01-2.703 1.578c-.092-.46-.092-.868-.092-1.4z" fill="#fff"/><path d="M4.623 46.705c-.085-.75-.276-1.487-1.362-1.487-.657 0-1.25.33-1.25 1.08 0 1.775 4.013 1.762 4.013 4.308 0 1.625-1.125 2.44-2.763 2.44A3.743 3.743 0 01.44 51.803l.658-1.026a3.005 3.005 0 002.217 1.026c.77 0 1.316-.302 1.316-1.04.006-1.585-3.993-1.663-3.993-4.36 0-1.652 1.236-2.428 2.631-2.428A2.452 2.452 0 015.9 46.501l-1.276.204zm4 3.236c.059 1.533.658 1.974 1.625 1.974a2.966 2.966 0 001.736-.658l.21 1.066a3.901 3.901 0 01-2.223.723c-1.65 0-2.776-.986-2.776-3.48 0-2.493.987-3.486 2.69-3.486 1.704 0 2.395 1.132 2.395 2.796v1.066H8.623zm2.341-1.065c0-1.125-.328-1.651-1.111-1.651-.783 0-1.165.486-1.224 1.65h2.335zm7.986-1.401l-.914-.046c.248.352.364.78.329 1.21a2.349 2.349 0 01-2.427 2.526 1.972 1.972 0 01-.658-.079c-.25.178-.415.29-.415.513 0 .704 4.026-.125 4.026 2.263 0 1.44-1.513 2.138-3.15 2.138-1.639 0-2.737-.599-2.737-1.664a1.815 1.815 0 011.138-1.572.973.973 0 01-.546-.935 1.5 1.5 0 01.796-1.177 2.44 2.44 0 01-.901-2.04 2.342 2.342 0 012.46-2.525c.325 0 .648.055.954.164h2.045v1.224zm-4.644 6.716c0 .599.71.75 1.487.75.776 0 1.75-.342 1.75-.915 0-.815-1.119-.802-2.145-.94-.54.25-1.098.658-1.098 1.105m1.631-7c-.723 0-1.17.409-1.17 1.435s.447 1.44 1.17 1.44c.724 0 1.178-.414 1.178-1.44s-.448-1.434-1.178-1.434zm5.282-.94v4.552a1 1 0 001.125 1.112 1 1 0 001.125-1.112v-4.552h1.362v4.513c0 1.552-1.053 2.289-2.487 2.289-1.434 0-2.486-.737-2.486-2.29v-4.512h1.361zm6.631 0v.658a2.244 2.244 0 011.684-.816c.987 0 1.178.901 1.178 1.875l-1.165.138c0-.401-.046-.658-.42-.658-.454.082-.86.331-1.139.698v4.742h-1.361v-6.637h1.223zM36.68 49.6c0 2.303-.954 3.454-2.737 3.454-1.783 0-2.75-1-2.75-3.473 0-2.474.96-3.493 2.75-3.493s2.737 1.006 2.737 3.512zm-4.085 0c0 1.796.447 2.336 1.315 2.336.869 0 1.316-.54 1.316-2.316 0-1.776-.434-2.375-1.316-2.375-.881 0-1.315.527-1.315 2.355zm8.466-1.348c-.046-.585-.31-1.026-1.027-1.026-.52 0-.92.23-.92.73 0 1.256 3.098 1.145 3.098 3.157 0 1.204-.849 1.974-2.276 1.974a3.349 3.349 0 01-2.335-.875l.447-1a2.73 2.73 0 001.861.704c.52 0 .96-.197.96-.724 0-1.052-3.065-1.039-3.065-3.15 0-1.178.843-1.974 2.23-1.974 1.533 0 2.171.888 2.171 1.973l-1.144.21zm7.4 4.486v2.724l-1.316.302v-9.512h1.224v.599a3.02 3.02 0 011.974-.763c1.124 0 2.216.657 2.216 3.414 0 2.578-1.177 3.552-2.716 3.552a3.29 3.29 0 01-1.316-.316m0-1.197a2.18 2.18 0 001.177.375c.73 0 1.388-.605 1.388-2.414 0-1.81-.611-2.184-1.25-2.184a2.335 2.335 0 00-1.315.46v3.763zm8.525-3.44c0-.658-.414-.875-.973-.875a.987.987 0 00-1.08 1.026l-1.196-.125c.04-1.316 1.111-2.04 2.361-2.04 1.375 0 2.25.705 2.25 1.889v3.466c0 .31.145.448.362.448.242-.015.473-.107.657-.264l.08 1a1.645 1.645 0 01-1.152.441 1.007 1.007 0 01-1.111-.927 2.433 2.433 0 01-1.908.927 1.644 1.644 0 01-1.776-1.802c0-1.698 1.625-2.401 3.486-2.388V48.1zm0 1.789c-1.164-.04-2.138.388-2.138 1.237 0 .513.224.789.75.789a2.013 2.013 0 001.388-.737v-1.29zm4.566-3.638v.658a2.255 2.255 0 011.69-.816c.987 0 1.171.901 1.171 1.875l-1.158.138c0-.401-.052-.658-.427-.658a1.84 1.84 0 00-1.138.698v4.742H60.42v-6.637h1.198zm6.986 1.849c0-.658-.408-.875-.974-.875a.987.987 0 00-1.072 1.026l-1.204-.125c.04-1.316 1.112-2.04 2.361-2.04 1.375 0 2.25.705 2.25 1.889v3.466c0 .31.151.448.362.448a1.11 1.11 0 00.658-.264l.085.987c-.31.29-.72.448-1.144.441a1 1 0 01-1.112-.927 2.447 2.447 0 01-1.934.927 1.645 1.645 0 01-1.776-1.802c0-1.698 1.625-2.401 3.486-2.388l.014-.763zm0 1.789c-1.158-.04-2.138.388-2.138 1.237 0 .513.23.789.75.789a2.014 2.014 0 001.388-.737v-1.29zm7.92-3.638v4.552a1.124 1.124 0 102.25 0v-4.552h1.361v4.513c0 1.552-1.052 2.289-2.487 2.289-1.434 0-2.486-.737-2.486-2.29v-4.512h1.362zm6.63.599a3.381 3.381 0 012.066-.763c1.197 0 1.973.657 1.973 2.118v4.684h-1.361v-4.414c0-.81-.276-1.099-1.04-1.099a2.868 2.868 0 00-1.473.487v5.026h-1.362v-6.64h1.224l-.027.599zm10.394 0a3.289 3.289 0 011.973-.763 1.644 1.644 0 011.553.776 3.849 3.849 0 012.118-.776c1.191 0 1.862.657 1.862 2.118v4.684h-1.362v-4.447c0-.83-.322-1.066-1-1.066a2.869 2.869 0 00-1.375.487c.027.178.04.359.04.54v4.486H96.02v-4.263c0-.934-.17-1.25-1-1.25a2.63 2.63 0 00-1.315.487v5.026h-1.362v-6.64h1.224l-.02.599zm10.545-.599v4.552a1.124 1.124 0 102.249 0v-4.552h1.362v4.513c0 1.552-1.052 2.289-2.486 2.289-1.434 0-2.487-.737-2.487-2.29v-4.512h1.362zm6.631.599a3.38 3.38 0 012.065-.763c1.197 0 1.974.657 1.974 2.118v4.684H113.4v-4.414c0-.81-.276-1.099-1.039-1.099a2.868 2.868 0 00-1.474.487v5.026h-1.362v-6.64h1.224l-.026.599zm9.558 5.25a2.503 2.503 0 01-1.915.953c-1.072 0-2.269-.829-2.269-3.467s1.131-3.5 2.361-3.5c.563.01 1.115.151 1.612.415v-2.736l1.362-.25v7.893c0 .31.145.448.362.448a1.09 1.09 0 00.657-.263l.093.986a1.66 1.66 0 01-1.152.441.987.987 0 01-1.098-.954m-.211-4.5a2.742 2.742 0 00-1.315-.374c-.658 0-1.224.414-1.224 2.302 0 1.625.553 2.276 1.151 2.276a1.901 1.901 0 001.401-.75l-.013-3.453zm8.493 2.033c0 2.303-.954 3.454-2.737 3.454-1.782 0-2.749-1-2.749-3.473 0-2.474.96-3.493 2.749-3.493 1.789 0 2.737 1.006 2.737 3.512zm-4.085 0c0 1.796.447 2.336 1.315 2.336.869 0 1.316-.54 1.316-2.316 0-1.776-.434-2.375-1.316-2.375-.881 0-1.315.527-1.315 2.355zm9.906.343c.06 1.532.658 1.973 1.625 1.973a2.945 2.945 0 001.73-.658l.217 1.066a3.897 3.897 0 01-2.223.723c-1.651 0-2.776-.986-2.776-3.48 0-2.493.987-3.486 2.684-3.486s2.401 1.125 2.401 2.79v1.065l-3.658.006zm2.349-1.066c0-1.125-.329-1.651-1.118-1.651-.79 0-1.158.486-1.224 1.65h2.342zm4.032-2.026a3.375 3.375 0 012.059-.763c1.204 0 1.974.657 1.974 2.118v4.684h-1.362v-4.414c0-.81-.276-1.099-1.039-1.099a2.85 2.85 0 00-1.474.487v5.026h-1.362v-6.64h1.224l-.02.599zm10.144 3.091c.059 1.533.658 1.974 1.625 1.974a2.964 2.964 0 001.736-.658l.211 1.066a3.903 3.903 0 01-2.224.723c-1.651 0-2.776-.986-2.776-3.48 0-2.493.987-3.486 2.691-3.486 1.704 0 2.394 1.125 2.394 2.79v1.065l-3.657.006zm2.348-1.065c0-1.125-.329-1.651-1.112-1.651-.782 0-1.164.486-1.223 1.65h2.335zm3.348-2.625l1.658 5.138 1.586-5.138h1.368l-2.217 6.638h-1.585l-2.263-6.638h1.453zm10.677 3.348c0 2.303-.947 3.454-2.737 3.454-1.789 0-2.743-1-2.743-3.473 0-2.474.961-3.493 2.743-3.493 1.783 0 2.737 1.006 2.737 3.512zm-4.085 0c0 1.796.454 2.336 1.348 2.336.895 0 1.316-.54 1.316-2.316 0-1.776-.441-2.375-1.316-2.375s-1.348.527-1.348 2.355zm6.946-6.084v7.847a.443.443 0 00.112.364.43.43 0 00.355.136 1.64 1.64 0 00.81-.263l.138 1.053a2.776 2.776 0 01-1.388.401c-1.112 0-1.388-.816-1.388-1.69v-7.598l1.361-.25zm3.513 2.736v4.552a1.125 1.125 0 002.25 0v-4.552h1.355v4.513c0 1.552-1.046 2.289-2.48 2.289s-2.487-.737-2.487-2.29v-4.512h1.362zm8.644 2.237c-.04-.658-.316-1.263-1.066-1.263s-1.197.48-1.197 2.355.566 2.335 1.552 2.335a2.755 2.755 0 001.671-.599l.263 1.013a3.722 3.722 0 01-2.21.724c-1.723 0-2.697-1.085-2.697-3.486 0-2.401.835-3.474 2.671-3.474 1.598 0 2.21.987 2.236 2.27l-1.223.125zm4.059-3.099h-1.362v-1.5h1.362v1.5zm0 7.526h-1.362V46.25h1.362v6.664zm6.986-3.316c0 2.303-.954 3.454-2.737 3.454-1.783 0-2.75-1-2.75-3.473 0-2.474.961-3.493 2.75-3.493 1.789 0 2.737 1.006 2.737 3.512zm-4.092 0c0 1.796.454 2.336 1.355 2.336s1.316-.54 1.316-2.316c0-1.776-.441-2.375-1.316-2.375s-1.355.527-1.355 2.355zm3.289-6.065l-1.454 1.974h-1.157l1.223-1.974h1.388zm3.526 3.316a3.341 3.341 0 012.059-.763c1.197 0 1.973.657 1.973 2.118v4.684h-1.361v-4.414c0-.81-.277-1.099-1.04-1.099a2.868 2.868 0 00-1.473.487v5.026h-1.362v-6.64h1.23l-.026.599zM44.513 4.842c.092 1.223.151 4.282.151 5.407s0 4.473-.164 5.966v.119h5.388c2.63 0 5.433-.836 5.433-3.184 0-1.474-1.066-2.566-3.059-3.158 1.46-.394 2.454-1.407 2.454-2.578 0-1.908-2.197-2.632-4.256-2.684h-5.947v.112zm4.158 1.184c2.25 0 3.085.467 3.085 1.697.004.312-.104.615-.303.855a2.835 2.835 0 01-2.335.73h-.053l-.657 1.632h.657a3.533 3.533 0 012.882 1.032c.252.29.39.662.388 1.046 0 1.316-1.125 1.974-3.342 1.974h-1.362c-.079-1.698-.079-4.013-.079-4.697 0-.81 0-2.631.086-4.158a6.15 6.15 0 011.059-.065M67.734 4.73h-2.631l.112 2.914c.046 1.454.092 2.94.19 4.38A9.059 9.059 0 0064.3 10.19c0-.046-2.736-4.243-3.683-5.434h-3.053v.105c.086 1.224.152 4.283.152 5.407 0 1.027 0 4.48-.171 5.967v.125h2.703v-.119c-.158-2.841-.158-5.696-.158-8.459.141.46.364.89.658 1.27.046.072 4.69 6.86 4.927 7.268v.046h2.178v-.125c-.165-1.493-.171-4.94-.171-5.966 0-1.125.065-4.184.15-5.407V4.73h-.098zm3.145.105c.085 1.23.15 4.282.15 5.407 0 1.026 0 4.473-.17 5.967v.118h3.217v-.118c-.112-1.066-.152-3.105-.165-4.678h1.046c4.25 0 6.309-1.138 6.309-3.492 0-2.691-2.895-3.29-5.316-3.362h-5.058l-.013.158zm3.947 1.316c1.506 0 2.572.289 3.078.914.235.302.358.676.349 1.059 0 1.677-1.875 2.033-3.454 2.033h-.658l-.256-.04V8.65c0-.743 0-1.592.04-2.4.295-.047.594-.073.894-.08m12.584-1.335c.092 1.23.151 4.282.151 5.407 0 1.026 0 4.473-.17 5.967v.118h3.23v-.118c-.106-1.066-.152-3.105-.165-4.678h1.046c4.242 0 6.315-1.138 6.315-3.492 0-2.691-2.895-3.29-5.322-3.362h-5.059l-.026.158zM91.35 6.15c1.506 0 2.572.289 3.085.914.23.304.35.678.342 1.059 0 1.677-1.875 2.033-3.454 2.033h-.657l-.25-.04V8.644c0-.744 0-1.586.04-2.395.295-.046.594-.072.894-.079m10.742-1.44h-.059v.065c-.599 1.645-4.454 10.085-5.052 11.38l-.08.159h2.764v-.066c.243-.79.552-1.69.914-2.664l2.283-.033h2.295c.5 1.25.869 2.197 1.033 2.67v.06h3.204L104.25 4.73h-2.158zm.783 3.42c.256.54.921 2.099 1.664 3.947h-3.361c.598-1.473 1.19-2.802 1.697-3.947zm7.815-3.315c.079 1.223.151 4.282.151 5.407 0 1.026 0 4.48-.178 5.967v.125h3.23v-.125c-.164-1.494-.171-4.94-.171-5.967 0-.802.033-2.631.092-4.052.263-.033.625-.06.869-.066 1.506-.033 2.572.29 3.078.915.236.299.36.671.349 1.052 0 1.316-1.257 2.013-2.427 2.079-.22.01-.441 0-.658-.033l-.217-.04.138.204c1.131 1.678 2.848 4.605 3.572 5.987v.046h3.453l-.105-.171c-.118-.191-2.381-3.513-3.342-4.934l-.066-.086c1.757-.532 2.632-1.532 2.632-3.052 0-2.69-2.895-3.289-5.322-3.361h-5.059l-.019.105zm15.833-.118h-3.072v.111c.086 1.23.152 4.29.152 5.414 0 1.02 0 4.467-.171 5.96v.118h3.223v-.118c-.158-1.493-.171-4.94-.171-5.96 0-1.125.066-4.184.151-5.414v-.111h-.112zm3.013.125c.092 1.223.151 4.282.151 5.407s0 4.473-.171 5.966v.119h5.381c2.632 0 5.44-.836 5.44-3.184 0-1.474-1.065-2.566-3.058-3.158 1.46-.394 2.453-1.407 2.453-2.578 0-1.908-2.19-2.632-4.256-2.684h-5.92l-.02.112zm4.158 1.184c2.249 0 3.085.467 3.085 1.697a1.32 1.32 0 01-.303.855 2.829 2.829 0 01-2.348.73h-.06l-.611 1.632h.625a3.531 3.531 0 012.861 1.032c.25.292.388.662.388 1.046 0 1.316-1.125 1.974-3.335 1.974h-1.368c-.079-1.698-.079-4.013-.079-4.697 0-.816 0-2.631.092-4.158.348-.052.7-.074 1.053-.065m14.557-1.355h-2.171v.065c-.658 1.75-4.716 10.65-5.052 11.387l-.079.151h2.77v-.065c.236-.79.552-1.69.914-2.664l2.283-.033h2.295c.5 1.256.869 2.197 1.027 2.67v.06h3.203l-5.144-11.571h-.046zm-1.316 3.42c.264.546.915 2.099 1.671 3.947h-1.671l-1.69-.033c.592-1.473 1.184-2.796 1.69-3.947m7.434-.375c0 2.04 2.052 2.868 3.861 3.605 1.408.566 2.855 1.158 2.855 2.125.014.256-.065.508-.224.71-.335.402-1.026.573-2.118.52a9.906 9.906 0 01-3.624-1.026l-.566-.257v2.533l.362.079.223.046a14.34 14.34 0 003.289.474c3.395 0 5.427-1.356 5.427-3.605 0-2.092-2.098-2.928-3.946-3.664-1.362-.546-2.776-1.112-2.776-1.974 0-.263 0-1.04 1.749-1.04a8.916 8.916 0 013.289.817l.658.276V4.776l-.658-.119a15.335 15.335 0 00-2.887-.342c-2.941 0-4.914 1.375-4.914 3.414zM52.611 22.4a4.13 4.13 0 00-2.144-.605c-2.632 0-3.513 2.065-3.513 3.835 0 2.453 1.506 3.69 3.532 3.69a4.512 4.512 0 003.053-1.316v2.125a9.04 9.04 0 01-3.52.658c-3.644 0-5.92-2.27-5.92-5.157 0-3.04 2.407-5.263 6.387-5.263.915.01 1.825.131 2.71.362l-.585 1.67zm8.802-1.869c.388 1.033 3.69 8.388 4.466 10.052h-2.77a56.39 56.39 0 00-.92-2.368h-3.947a36.29 36.29 0 00-.81 2.368H55c.572-1.25 3.947-8.552 4.48-10.052h1.934zm.243 6.362l-1.434-3.401c-.46.973-.96 2.124-1.493 3.4h2.927zM72.01 20.53c2.112 0 4.605.591 4.605 2.914 0 1.315-.757 2.184-2.27 2.63a53.996 53.996 0 003.06 4.507h-3c-.658-1.25-2.152-3.776-3.244-5.414.256.053.516.078.777.073.874 0 2.105-.658 2.105-1.796 0-1.448-1.75-1.71-2.632-1.71-.364 0-.729.019-1.092.059a88.738 88.738 0 00-.085 3.519c0 .888 0 3.861.158 5.262h-2.796c.138-1.394.171-3.19.171-5.262 0-1.75 0-3.848-.145-4.782h4.388zm11.163 0c4.236 0 5.855 2.223 5.855 5.012 0 2.79-1.579 5.039-6.013 5.039h-3.73c.139-1.349.139-3.204.139-5.263 0-.973 0-3.486-.139-4.795l3.888.006zm-1.164 1.263c-.06.657-.073 2.368-.073 3.532 0 1.467 0 2.631.06 3.947.238.026.477.039.717.04 2.427 0 3.69-.764 3.69-3.849 0-2.94-1.316-3.776-3.75-3.717l-.644.047zm12.183-1.264c-.086 1.165-.145 3.803-.145 4.796 0 .875 0 3.861.145 5.262h-2.79c.145-1.394.158-4.38.158-5.262 0-.881-.059-3.631-.125-4.796h2.757zm10.65 0v1.454a92.567 92.567 0 00-3.414-.105c-.487 0-1.033 0-1.592.046-.046.618-.06 1.395-.06 2.066v.875l3.507-.053v1.559l-3.513-.138c0 1.276 0 3.256.158 4.348h-2.79c.178-1.395.178-4.381.178-5.263 0-.881-.072-3.63-.164-4.795l7.69.006z" fill="#EBEFF4"/></g><defs><linearGradient id="paint0_linear_557_7576" x1="18.004" y1="-.806" x2="18.004" y2="36.21" gradientUnits="userSpaceOnUse"><stop stop-color="#43774F"/><stop offset=".6" stop-color="#9FC8AD"/><stop offset="1" stop-color="#549462"/></linearGradient><linearGradient id="paint1_linear_557_7576" x1="18.538" y1="-8.729" x2="18.538" y2="32.871" gradientUnits="userSpaceOnUse"><stop stop-color="#549462"/><stop offset=".3" stop-color="#9FC8AD"/><stop offset=".55" stop-color="#549462"/><stop offset=".84" stop-color="#43774F"/><stop offset=".89" stop-color="#488057"/><stop offset=".98" stop-color="#56986E"/><stop offset="1" stop-color="#599D73"/></linearGradient><linearGradient id="paint2_linear_557_7576" x1="24.929" y1="30.556" x2="24.929" y2="3.638" gradientUnits="userSpaceOnUse"><stop stop-color="#5EA77E"/><stop offset="1" stop-color="#549462"/></linearGradient><linearGradient id="paint3_linear_557_7576" x1="8.387" y1="30.539" x2="8.387" y2="3.615" gradientUnits="userSpaceOnUse"><stop stop-color="#5EA77E"/><stop offset="1" stop-color="#549462"/></linearGradient><linearGradient id="paint4_linear_557_7576" x1="13.215" y1="30.579" x2="13.215" y2="3.667" gradientUnits="userSpaceOnUse"><stop stop-color="#5EA77E"/><stop offset="1" stop-color="#549462"/></linearGradient><linearGradient id="paint5_linear_557_7576" x1="17.941" y1="30.556" x2="17.941" y2="3.638" gradientUnits="userSpaceOnUse"><stop stop-color="#5EA77E"/><stop offset="1" stop-color="#549462"/></linearGradient><clipPath id="clip0_557_7576"><path fill="#fff" transform="translate(.44)" d="M0 0h199.648v56H0z"/></clipPath></defs></svg>