<svg width="47" height="36" fill="none" xmlns="http://www.w3.org/2000/svg"><path d="M21.542 24h3.916v4h-3.916v-4zm0-16h3.916v12h-3.916V8zM23.5 0c-4.674 0-9.157 1.896-12.463 5.272C7.732 8.648 5.875 13.226 5.875 18s1.857 9.352 5.162 12.728C14.343 34.104 18.826 36 23.5 36c4.674 0 9.157-1.896 12.463-5.272 3.305-3.376 5.162-7.954 5.162-12.728s-1.857-9.352-5.162-12.728C32.657 1.896 28.174 0 23.5 0zm0 32c-7.56 0-13.708-6.28-13.708-14S15.94 4 23.5 4c7.56 0 13.708 6.28 13.708 14S31.06 32 23.5 32zm16.646 3A24.408 24.408 0 0047 18c0-6.62-2.624-12.62-6.854-17L38.03 3.16C41.75 7 44.063 12.22 44.063 18c0 5.8-2.311 11-6.032 14.84L40.146 35zM8.969 32.84C5.25 29 2.938 23.8 2.938 18c0-5.78 2.31-11 6.031-14.84L6.854 1A24.408 24.408 0 000 18c0 6.62 2.624 12.62 6.854 17l2.115-2.16z" fill="#000"/></svg>