<svg width="306" height="144" fill="none" xmlns="http://www.w3.org/2000/svg"><g filter="url(#filter0_d_246_12085)"><rect x="40" y="32" width="226" height="64" rx="32" fill="#fff"/><g clip-path="url(#clip0_246_12085)"><path d="M67.42 51.42c.78.78.78 2.04 0 2.82L59.66 62H90c1.1 0 2 .9 2 2s-.9 2-2 2H59.64l7.76 7.76c.78.78.78 2.04 0 2.82-.78.78-2.04.78-2.82 0L53.4 65.4c-.78-.78-.78-2.04 0-2.82l11.2-11.16c.76-.78 2.04-.78 2.82 0z" fill="#0076A9"/></g><g filter="url(#filter1_bi_246_12085)" transform="rotate(90 115 64)"><circle cx="115" cy="64" r="11" fill="url(#paint0_radial_246_12085)"/><circle cx="115" cy="64" r="10.7" stroke="url(#paint1_radial_246_12085)" stroke-width=".6"/></g><circle cx="115" cy="64" transform="rotate(90 115 64)" fill="#0076A9" r="6"/><g filter="url(#filter2_bi_246_12085)" transform="rotate(90 153 64)"><circle cx="153" cy="64" r="11" fill="url(#paint2_radial_246_12085)"/><circle cx="153" cy="64" r="10.7" stroke="url(#paint3_radial_246_12085)" stroke-width=".6"/></g><g filter="url(#filter3_bi_246_12085)" transform="rotate(90 191 64)"><circle cx="191" cy="64" r="11" fill="url(#paint4_radial_246_12085)"/><circle cx="191" cy="64" r="10.7" stroke="url(#paint5_radial_246_12085)" stroke-width=".6"/></g><g clip-path="url(#clip1_246_12085)"><path d="M238.58 51.42c-.78.78-.78 2.04 0 2.82l7.76 7.76H216c-1.1 0-2 .9-2 2s.9 2 2 2h30.36l-7.76 7.76c-.78.78-.78 2.04 0 2.82.78.78 2.04.78 2.82 0L252.6 65.4c.78-.78.78-2.04 0-2.82l-11.2-11.16c-.76-.78-2.04-.78-2.82 0z" fill="#0076A9"/></g></g><defs><radialGradient id="paint0_radial_246_12085" cx="0" cy="0" r="1" gradientUnits="userSpaceOnUse" gradientTransform="matrix(22.23514 22.52576 -21.96097 21.67763 103.765 52.757)"><stop stop-color="#fff" stop-opacity=".6"/><stop offset="1" stop-color="#fff" stop-opacity=".1"/></radialGradient><radialGradient id="paint1_radial_246_12085" cx="0" cy="0" r="1" gradientUnits="userSpaceOnUse" gradientTransform="rotate(44.498 -13.56 155.413) scale(29.3887 28.629)"><stop stop-color="#fff"/><stop offset=".292" stop-color="#fff" stop-opacity=".4"/><stop offset=".654" stop-color="#fff" stop-opacity=".4"/><stop offset="1" stop-color="#fff" stop-opacity=".5"/></radialGradient><radialGradient id="paint2_radial_246_12085" cx="0" cy="0" r="1" gradientUnits="userSpaceOnUse" gradientTransform="matrix(22.23514 22.52576 -21.96097 21.67763 141.766 52.758)"><stop stop-color="#fff" stop-opacity=".6"/><stop offset="1" stop-color="#fff" stop-opacity=".1"/></radialGradient><radialGradient id="paint3_radial_246_12085" cx="0" cy="0" r="1" gradientUnits="userSpaceOnUse" gradientTransform="rotate(44.498 5.44 201.857) scale(29.3887 28.629)"><stop stop-color="#fff"/><stop offset=".292" stop-color="#fff" stop-opacity=".4"/><stop offset=".654" stop-color="#fff" stop-opacity=".4"/><stop offset="1" stop-color="#fff" stop-opacity=".5"/></radialGradient><radialGradient id="paint4_radial_246_12085" cx="0" cy="0" r="1" gradientUnits="userSpaceOnUse" gradientTransform="matrix(22.23514 22.52576 -21.96097 21.67763 179.766 52.758)"><stop stop-color="#fff" stop-opacity=".6"/><stop offset="1" stop-color="#fff" stop-opacity=".1"/></radialGradient><radialGradient id="paint5_radial_246_12085" cx="0" cy="0" r="1" gradientUnits="userSpaceOnUse" gradientTransform="rotate(44.498 24.44 248.302) scale(29.3887 28.629)"><stop stop-color="#fff"/><stop offset=".292" stop-color="#fff" stop-opacity=".4"/><stop offset=".654" stop-color="#fff" stop-opacity=".4"/><stop offset="1" stop-color="#fff" stop-opacity=".5"/></radialGradient><filter id="filter0_d_246_12085" x="0" y="0" width="306" height="144" filterUnits="userSpaceOnUse" color-interpolation-filters="sRGB"><feFlood flood-opacity="0" result="BackgroundImageFix"/><feColorMatrix in="SourceAlpha" values="0 0 0 0 0 0 0 0 0 0 0 0 0 0 0 0 0 0 127 0" result="hardAlpha"/><feOffset dy="8"/><feGaussianBlur stdDeviation="20"/><feComposite in2="hardAlpha" operator="out"/><feColorMatrix values="0 0 0 0 0 0 0 0 0 0 0 0 0 0 0 0 0 0 0.16 0"/><feBlend in2="BackgroundImageFix" result="effect1_dropShadow_246_12085"/><feBlend in="SourceGraphic" in2="effect1_dropShadow_246_12085" result="shape"/></filter><filter id="filter1_bi_246_12085" x="90.25" y="39.25" width="49.5" height="49.5" filterUnits="userSpaceOnUse" color-interpolation-filters="sRGB"><feFlood flood-opacity="0" result="BackgroundImageFix"/><feGaussianBlur in="BackgroundImageFix" stdDeviation="6.875"/><feComposite in2="SourceAlpha" operator="in" result="effect1_backgroundBlur_246_12085"/><feBlend in="SourceGraphic" in2="effect1_backgroundBlur_246_12085" result="shape"/><feColorMatrix in="SourceAlpha" values="0 0 0 0 0 0 0 0 0 0 0 0 0 0 0 0 0 0 127 0" result="hardAlpha"/><feOffset dy="2.75"/><feGaussianBlur stdDeviation="1.375"/><feComposite in2="hardAlpha" operator="arithmetic" k2="-1" k3="1"/><feColorMatrix values="0 0 0 0 0 0 0 0 0 0 0 0 0 0 0 0 0 0 0.25 0"/><feBlend in2="shape" result="effect2_innerShadow_246_12085"/></filter><filter id="filter2_bi_246_12085" x="128.25" y="39.25" width="49.5" height="49.5" filterUnits="userSpaceOnUse" color-interpolation-filters="sRGB"><feFlood flood-opacity="0" result="BackgroundImageFix"/><feGaussianBlur in="BackgroundImageFix" stdDeviation="6.875"/><feComposite in2="SourceAlpha" operator="in" result="effect1_backgroundBlur_246_12085"/><feBlend in="SourceGraphic" in2="effect1_backgroundBlur_246_12085" result="shape"/><feColorMatrix in="SourceAlpha" values="0 0 0 0 0 0 0 0 0 0 0 0 0 0 0 0 0 0 127 0" result="hardAlpha"/><feOffset dy="2.75"/><feGaussianBlur stdDeviation="1.375"/><feComposite in2="hardAlpha" operator="arithmetic" k2="-1" k3="1"/><feColorMatrix values="0 0 0 0 0 0 0 0 0 0 0 0 0 0 0 0 0 0 0.25 0"/><feBlend in2="shape" result="effect2_innerShadow_246_12085"/></filter><filter id="filter3_bi_246_12085" x="166.25" y="39.25" width="49.5" height="49.5" filterUnits="userSpaceOnUse" color-interpolation-filters="sRGB"><feFlood flood-opacity="0" result="BackgroundImageFix"/><feGaussianBlur in="BackgroundImageFix" stdDeviation="6.875"/><feComposite in2="SourceAlpha" operator="in" result="effect1_backgroundBlur_246_12085"/><feBlend in="SourceGraphic" in2="effect1_backgroundBlur_246_12085" result="shape"/><feColorMatrix in="SourceAlpha" values="0 0 0 0 0 0 0 0 0 0 0 0 0 0 0 0 0 0 127 0" result="hardAlpha"/><feOffset dy="2.75"/><feGaussianBlur stdDeviation="1.375"/><feComposite in2="hardAlpha" operator="arithmetic" k2="-1" k3="1"/><feColorMatrix values="0 0 0 0 0 0 0 0 0 0 0 0 0 0 0 0 0 0 0.25 0"/><feBlend in2="shape" result="effect2_innerShadow_246_12085"/></filter><clipPath id="clip0_246_12085"><path fill="#fff" transform="matrix(-1 0 0 1 96 40)" d="M0 0h48v48H0z"/></clipPath><clipPath id="clip1_246_12085"><path fill="#fff" transform="translate(210 40)" d="M0 0h48v48H0z"/></clipPath></defs></svg>